<?xml version="1.0" encoding="utf-8"?>
<!-- Generator: Adobe Illustrator 22.1.0, SVG Export Plug-In . SVG Version: 6.00 Build 0)  -->
<svg version="1.1" xmlns="http://www.w3.org/2000/svg" xmlns:xlink="http://www.w3.org/1999/xlink" x="0px" y="0px"
	 viewBox="0 0 935 200" style="enable-background:new 0 0 935 200;" xml:space="preserve">
<style type="text/css">
	.st0{fill:#59AD41;}
	.st1{clip-path:url(#SVGID_2_);}
	.st2{clip-path:url(#SVGID_4_);}
	.st3{clip-path:url(#SVGID_6_);fill:#A7A9AC;}
	.st4{fill:#A7A9AC;}
	.st5{fill:#D8E8D0;}
	.st6{fill:none;stroke:#FFFFFF;stroke-width:1.3794;stroke-miterlimit:3.8637;}
	.st7{fill:#A38D51;}
	.st8{fill:#808285;}
	.st9{fill:none;stroke:#808285;stroke-width:0.2473;stroke-miterlimit:3.8637;}
	.st10{fill:#808285;stroke:#808285;stroke-width:0.2473;stroke-miterlimit:3.8637;}
	.st11{fill:#6D6E71;}
	.st12{fill:none;stroke:#A7A9AC;stroke-width:0.2473;stroke-miterlimit:3.8637;}
	.st13{opacity:0.25;fill:url(#SVGID_7_);}
	.st14{opacity:0.25;fill:url(#SVGID_8_);}
	.st15{opacity:0.25;fill:url(#SVGID_9_);}
	.st16{opacity:0.25;fill:url(#SVGID_10_);}
	.st17{opacity:0.25;fill:url(#SVGID_11_);}
	.st18{opacity:0.25;fill:url(#SVGID_12_);}
	.st19{opacity:0.25;fill:url(#SVGID_13_);}
	.st20{opacity:0.25;fill:url(#SVGID_14_);}
	.st21{opacity:0.25;fill:url(#SVGID_15_);}
	.st22{opacity:0.25;}
	.st23{fill:url(#SVGID_16_);}
	.st24{fill:url(#SVGID_17_);}
	.st25{fill:url(#SVGID_18_);}
	.st26{fill:url(#SVGID_19_);}
	.st27{fill:url(#SVGID_20_);}
	.st28{fill:url(#SVGID_21_);}
	.st29{fill:url(#SVGID_22_);}
	.st30{fill:url(#SVGID_23_);}
	.st31{fill:url(#SVGID_24_);}
	.st32{fill:url(#SVGID_25_);}
	.st33{fill:#A6A8AB;}
	.st34{fill:#999999;}
	.st35{fill:#58595B;}
	.st36{fill:#333333;}
	.st37{opacity:0.2;}
	.st38{fill:#FFFFFF;}
	.st39{fill:#583F98;}
	.st40{fill:#F07DB0;}
	.st41{fill:#0071BB;}
	.st42{fill:#F37920;}
	.st43{fill:#668E3D;}
	.st44{fill:#B669A9;}
	.st45{fill:#FFC10E;}
	.st46{fill:#6DCEF5;}
	.st47{fill:#A5BD2C;}
	.st48{fill:#DA2128;}
	.st49{fill:#7A726B;}
	.st50{fill:#C4B7AC;}
	.st51{fill:#AFCB08;}
	.st52{fill:#C6C4B9;}
	.st53{fill:#483A2C;}
</style>
<g id="Layer_2">
</g>
<g id="Layer_1">
	<g>
		<path class="st0" d="M270.7,150.7c0,1,0.1,1.4,1.1,1.4c0.8,0,1.4-0.5,1.4-1.5c0-1.1-0.8-1.8-2-1.8c-0.5,0-0.5,0.1-0.5,0.3
			L270.7,150.7L270.7,150.7z M270.7,148.1c0,0.3,0,0.3,0.5,0.3c1,0,1.5-0.4,1.5-1.4c0-1-0.7-1.3-1.4-1.3c-0.5,0-0.6,0-0.6,0.5V148.1
			L270.7,148.1z M269.4,146.9c0-1,0-1.2-0.5-1.2l-0.3,0c-0.1-0.1-0.1-0.3,0-0.3c0.5,0,1.3-0.1,2.5-0.1c0.9,0,1.7,0.1,2.1,0.4
			c0.5,0.3,0.8,0.7,0.8,1.4c0,0.7-0.5,1.1-1.2,1.4c0,0-0.1,0-0.1,0.1c0,0,0,0,0.1,0.1c0.8,0.1,1.8,0.7,1.8,1.9c0,0.5-0.2,1-0.7,1.5
			c-0.5,0.4-1.2,0.6-2.5,0.6c-0.5,0-0.9,0-1.4,0c-0.5,0-1,0-1.5,0c-0.1,0-0.1-0.2,0-0.3l0.2,0c0.5-0.1,0.6-0.1,0.6-1.3L269.4,146.9
			L269.4,146.9z"/>
		<path class="st0" d="M282.5,147.1c-0.1,0.1-0.3,0.1-0.4,0c-0.2-0.7-0.7-1.6-2.1-1.6c-1.4,0-2.8,1-2.8,3.2c0,2.3,1.5,3.5,2.9,3.5
			c1.4,0,2-0.9,2.3-1.6c0.1-0.1,0.3-0.1,0.3,0c-0.1,0.7-0.4,1.5-0.5,1.7c-0.1,0-0.3,0.1-0.4,0.1c-0.2,0.1-1,0.3-1.7,0.3
			c-1.1,0-2-0.2-2.8-0.7c-0.9-0.6-1.6-1.6-1.6-3c0-1.3,0.6-2.3,1.4-2.9c0.8-0.6,1.9-0.9,3-0.9c0.6,0,1.4,0.1,1.9,0.2
			c0.1,0,0.2,0,0.3,0.1C282.3,145.6,282.4,146.3,282.5,147.1L282.5,147.1z"/>
		<path class="st0" d="M286.7,149.3c0.3,0,0.4,0,0.3-0.3l-0.5-1.3c-0.2-0.6-0.3-0.8-0.3-0.9h0c0,0.1-0.1,0.4-0.3,0.9l-0.5,1.3
			c-0.1,0.3-0.1,0.3,0.2,0.3L286.7,149.3L286.7,149.3z M285.4,149.8c-0.3,0-0.3,0-0.4,0.3l-0.4,1.3c-0.2,0.7-0.2,0.7,0.2,0.7
			l0.3,0.1c0.1,0.1,0.1,0.3,0,0.3c-0.4,0-0.7,0-1.2,0c-0.4,0-0.7,0-1.1,0c-0.1-0.1-0.1-0.2,0-0.3l0.3-0.1c0.3,0,0.4-0.1,0.6-0.5
			c0.1-0.3,0.3-0.7,0.5-1.3l1.5-3.9c0.1-0.4,0.2-0.6,0.2-0.8c0.4-0.1,0.7-0.5,0.8-0.5c0.1,0,0.1,0,0.2,0.1c0.2,0.5,0.3,1,0.5,1.5
			l1.6,4.6c0.3,0.7,0.3,0.8,0.9,0.9l0.2,0c0.1,0.1,0.1,0.3,0,0.3c-0.4,0-0.9,0-1.4,0c-0.5,0-1,0-1.3,0c-0.1-0.1-0.1-0.3,0-0.3l0.2,0
			c0.4,0,0.4-0.1,0.3-0.6l-0.5-1.5c-0.1-0.3-0.1-0.3-0.4-0.3L285.4,149.8L285.4,149.8z"/>
		<path class="st0" d="M300.5,151.3c0,0.4,0.1,0.7,0.3,0.8c0,0,0,0.1,0,0.2c-0.1,0-0.3,0-0.5,0.1c-0.7,0.2-1.5,0.3-2.1,0.3
			c-1.3,0-2.6-0.4-3.4-1.2c-0.7-0.7-1-1.6-1-2.5c0-0.9,0.3-1.9,1-2.6c0.8-0.8,2-1.3,3.5-1.3c0.5,0,1.1,0.1,1.5,0.2
			c0.3,0.1,0.6,0.1,0.7,0.1c0,0.3,0.1,0.9,0.1,1.7c-0.1,0.1-0.3,0.1-0.4,0c-0.2-1.1-1-1.6-2.1-1.6c-1.9,0-2.9,1.4-2.9,3.3
			c0,0.9,0.2,1.8,0.8,2.5c0.6,0.7,1.5,0.9,2.1,0.9c0.5,0,0.8-0.1,1-0.3c0.1-0.1,0.1-0.3,0.1-0.7v-0.4c0-0.8,0-0.8-0.7-1l-0.4-0.1
			c-0.1-0.1-0.1-0.3,0-0.3c0.4,0,1,0,1.7,0c0.5,0,0.9,0,1.3,0c0.1,0.1,0.1,0.2,0,0.3l-0.2,0c-0.4,0.1-0.5,0.2-0.5,0.8L300.5,151.3
			L300.5,151.3z"/>
		<path class="st0" d="M304.2,148.5c0,0.4,0,0.4,0.5,0.4c1.1,0,1.6-0.5,1.6-1.6c0-0.9-0.6-1.6-1.5-1.6c-0.6,0-0.6,0-0.6,0.5V148.5
			L304.2,148.5z M302.9,146.9c0-1,0-1.2-0.5-1.2l-0.3,0c-0.1-0.1-0.1-0.3,0-0.3c0.7-0.1,1.6-0.1,2.5-0.1c0.9,0,1.6,0.1,2.1,0.4
			c0.6,0.3,1,0.8,1,1.6c0,1-0.8,1.5-1.3,1.7c-0.1,0,0,0.1,0,0.2c0.9,1.5,1.4,2.4,1.9,2.8c0.3,0.3,0.6,0.3,0.8,0.3
			c0.1,0,0.1,0.2,0,0.2c-0.1,0-0.3,0.1-0.7,0.1c-1,0-1.6-0.4-2.3-1.4c-0.3-0.5-0.6-1.1-0.9-1.5c-0.2-0.3-0.3-0.4-0.7-0.4
			c-0.3,0-0.3,0-0.3,0.2v1.4c0,1.2,0.1,1.2,0.6,1.3l0.2,0c0.1,0.1,0.1,0.3,0,0.3c-0.5,0-1,0-1.5,0s-1,0-1.5,0c-0.1,0-0.1-0.2,0-0.3
			l0.2,0c0.5-0.1,0.6-0.1,0.6-1.3L302.9,146.9L302.9,146.9z"/>
		<path class="st0" d="M310.4,146.8c0-1.2-0.1-1.2-0.6-1.3l-0.2,0c-0.1-0.1-0.1-0.3,0-0.3c0.4,0,0.9,0,1.4,0h2.1c0.7,0,1.3,0,1.5,0
			c0,0.2,0.1,1,0.2,1.5c0,0.1-0.3,0.1-0.4,0c-0.2-0.6-0.3-0.9-0.7-1c-0.3-0.1-0.6-0.1-0.9-0.1h-0.7c-0.5,0-0.5,0-0.5,0.7v1.8
			c0,0.3,0,0.3,0.3,0.3h0.5c1,0,1.1,0,1.2-0.5l0.1-0.4c0.1-0.1,0.3-0.1,0.4,0c0,0.3,0,0.7,0,1.1c0,0.4,0,0.8,0,1.2
			c-0.1,0.1-0.3,0.1-0.4,0l-0.1-0.4c-0.1-0.5-0.3-0.5-1.2-0.5h-0.5c-0.3,0-0.3,0-0.3,0.3v1.4c0,0.6,0,1,0.2,1.1
			c0.1,0.2,0.3,0.2,1.2,0.2c1.4,0,1.6-0.3,2-1.2c0.1-0.1,0.3,0,0.4,0.1c-0.1,0.5-0.3,1.3-0.5,1.6c-0.5,0-1.4,0-2.7,0H311
			c-0.5,0-1.2,0-1.6,0c-0.1,0-0.1-0.2,0-0.3l0.4,0c0.5-0.1,0.6-0.1,0.6-1.3L310.4,146.8L310.4,146.8z"/>
		<path class="st0" d="M317,146.8c0-1.2-0.1-1.2-0.6-1.3l-0.2,0c-0.1-0.1-0.1-0.3,0-0.3c0.4,0,0.9,0,1.4,0h2.1c0.7,0,1.3,0,1.5,0
			c0,0.2,0.1,1,0.2,1.5c0,0.1-0.3,0.1-0.4,0c-0.2-0.6-0.3-0.9-0.7-1c-0.3-0.1-0.6-0.1-0.9-0.1h-0.7c-0.5,0-0.5,0-0.5,0.7v1.8
			c0,0.3,0,0.3,0.3,0.3h0.5c1,0,1.1,0,1.2-0.5l0.1-0.4c0.1-0.1,0.3-0.1,0.4,0c0,0.3,0,0.7,0,1.1c0,0.4,0,0.8,0,1.2
			c-0.1,0.1-0.3,0.1-0.4,0l-0.1-0.4c-0.1-0.5-0.3-0.5-1.2-0.5h-0.5c-0.3,0-0.3,0-0.3,0.3v1.4c0,0.6,0,1,0.2,1.1
			c0.1,0.2,0.3,0.2,1.2,0.2c1.4,0,1.6-0.3,2-1.2c0.1-0.1,0.3,0,0.4,0.1c-0.1,0.5-0.3,1.3-0.5,1.6c-0.5,0-1.4,0-2.7,0h-1.3
			c-0.5,0-1.2,0-1.6,0c-0.1,0-0.1-0.2,0-0.3l0.4,0c0.5-0.1,0.6-0.1,0.6-1.3L317,146.8L317,146.8z"/>
		<path class="st0" d="M329.6,150.6c0,0.3,0,1.7,0,1.9c-0.1,0.1-0.2,0.2-0.4,0.2c-0.2-0.2-0.5-0.6-1.3-1.5l-2.6-2.9
			c-0.7-0.8-1.1-1.2-1.2-1.4c0,0,0,0.1,0,0.7v2.1c0,0.8,0,1.8,0.2,2.2c0.1,0.2,0.3,0.2,0.6,0.3l0.2,0c0.1,0.1,0.1,0.3,0,0.3
			c-0.4,0-0.8,0-1.3,0c-0.5,0-0.8,0-1.1,0c-0.1-0.1-0.1-0.2,0-0.3l0.2-0.1c0.2,0,0.4-0.1,0.5-0.3c0.1-0.3,0.1-1.3,0.1-2.2v-2.6
			c0-0.9,0-1-0.4-1.3c-0.1-0.1-0.4-0.2-0.6-0.2l-0.2,0c-0.1-0.1-0.1-0.3,0-0.3c0.4,0,1,0,1.3,0c0.2,0,0.5,0,0.8,0
			c0.2,0.5,1.4,1.8,1.8,2.3l1.1,1.2c0.5,0.5,1.5,1.7,1.6,1.7c0,0,0-0.1,0-0.3V148c0-0.8,0-1.8-0.2-2.2c-0.1-0.2-0.3-0.2-0.5-0.3
			l-0.3,0c-0.1-0.1-0.1-0.3,0-0.3c0.4,0,0.8,0,1.3,0c0.5,0,0.8,0,1.2,0c0.1,0.1,0.1,0.2,0,0.3l-0.3,0.1c-0.2,0-0.4,0.1-0.5,0.3
			c-0.2,0.3-0.2,1.3-0.2,2.2L329.6,150.6L329.6,150.6z"/>
		<path class="st0" d="M343.7,152.2c0.1,0,0.1,0.3,0,0.3c-0.5,0-0.9,0-1.3,0c-0.5,0-1,0-1.5,0c-0.1,0-0.1-0.3,0-0.3l0.3-0.1
			c0.4-0.1,0.5-0.2,0.5-0.9v-3.5c0-0.4,0-0.8,0-1h0c-0.3,0.6-0.4,0.9-0.7,1.4L340,150c-0.4,0.8-0.9,2-1.1,2.5c0,0-0.2,0-0.3,0
			c-0.2-0.6-0.7-1.7-0.9-2.2l-1-2.1c-0.2-0.5-0.5-1.2-0.6-1.5h0c0,0.5,0,1.4-0.1,1.8c0,0.7,0,1.6,0,2.5c0,0.7,0,0.9,0.5,1l0.4,0.1
			c0.1,0.1,0.1,0.3,0,0.3c-0.4,0-0.7,0-1.2,0c-0.4,0-0.7,0-1.2,0c-0.1-0.1-0.1-0.3,0-0.3l0.2,0c0.5-0.1,0.6-0.2,0.7-0.9
			c0.1-0.7,0.1-1.4,0.2-2.5c0-0.7,0.1-1.7,0.1-2.3c0-0.5-0.2-0.7-0.6-0.8l-0.4-0.1c-0.1-0.1-0.1-0.3,0-0.3c0.3,0,0.6,0,1,0
			c0.4,0,0.8,0,1.2,0c0,0.7,0.3,1.2,0.6,1.8l1.2,2.5c0.1,0.2,0.4,0.7,0.5,1c0.2-0.3,0.3-0.6,0.6-1.1l1-2.1c0.4-0.7,0.7-1.4,0.9-2.1
			c0.3,0,0.7,0,0.9,0c0.5,0,0.8,0,1.2,0c0.1,0,0.1,0.3,0,0.3l-0.4,0.1c-0.5,0.1-0.6,0.3-0.6,0.8c0,1.6,0,3.2,0.1,4.9
			c0,0.7,0.2,0.8,0.5,0.9L343.7,152.2L343.7,152.2z"/>
		<path class="st0" d="M348,149.3c0.3,0,0.4,0,0.3-0.3l-0.5-1.3c-0.2-0.6-0.3-0.8-0.3-0.9h0c0,0.1-0.1,0.4-0.3,0.9l-0.5,1.3
			c-0.1,0.3-0.1,0.3,0.2,0.3L348,149.3L348,149.3z M346.7,149.8c-0.3,0-0.3,0-0.4,0.3l-0.4,1.3c-0.2,0.7-0.2,0.7,0.2,0.7l0.3,0.1
			c0.1,0.1,0.1,0.3,0,0.3c-0.4,0-0.7,0-1.2,0c-0.4,0-0.7,0-1.1,0c-0.1-0.1-0.1-0.2,0-0.3l0.3-0.1c0.3,0,0.4-0.1,0.6-0.5
			c0.1-0.3,0.3-0.7,0.5-1.3l1.5-3.9c0.1-0.4,0.2-0.6,0.2-0.8c0.4-0.1,0.7-0.5,0.8-0.5c0.1,0,0.1,0,0.2,0.1c0.2,0.5,0.3,1,0.5,1.5
			l1.6,4.6c0.3,0.7,0.3,0.8,0.9,0.9l0.2,0c0.1,0.1,0.1,0.3,0,0.3c-0.4,0-0.9,0-1.4,0c-0.5,0-1,0-1.3,0c-0.1-0.1-0.1-0.3,0-0.3l0.2,0
			c0.4,0,0.4-0.1,0.3-0.6l-0.5-1.5c-0.1-0.3-0.1-0.3-0.4-0.3L346.7,149.8L346.7,149.8z"/>
		<path class="st0" d="M354.1,148.5c0,0.4,0,0.4,0.5,0.4c1.1,0,1.6-0.5,1.6-1.6c0-0.9-0.6-1.6-1.5-1.6c-0.6,0-0.6,0-0.6,0.5V148.5
			L354.1,148.5z M352.8,146.9c0-1,0-1.2-0.5-1.2l-0.3,0c-0.1-0.1-0.1-0.3,0-0.3c0.7-0.1,1.6-0.1,2.5-0.1c0.9,0,1.6,0.1,2.1,0.4
			c0.6,0.3,1,0.8,1,1.6c0,1-0.8,1.5-1.3,1.7c-0.1,0,0,0.1,0,0.2c0.9,1.5,1.4,2.4,1.9,2.8c0.3,0.3,0.6,0.3,0.8,0.3
			c0.1,0,0.1,0.2,0,0.2c-0.1,0-0.3,0.1-0.7,0.1c-1,0-1.6-0.4-2.3-1.4c-0.3-0.5-0.6-1.1-0.9-1.5c-0.2-0.3-0.3-0.4-0.7-0.4
			c-0.3,0-0.3,0-0.3,0.2v1.4c0,1.2,0.1,1.2,0.6,1.3l0.2,0c0.1,0.1,0.1,0.3,0,0.3c-0.5,0-1,0-1.5,0c-0.5,0-1,0-1.5,0
			c-0.1,0-0.1-0.2,0-0.3l0.2,0c0.5-0.1,0.6-0.1,0.6-1.3L352.8,146.9L352.8,146.9z"/>
		<path class="st0" d="M361.5,148c0,0.3,0,0.5,0.2,0.5c0.2,0,0.5-0.3,0.8-0.7l1.1-1.2c0.1-0.1,0.5-0.5,0.6-0.7
			c0.2-0.3,0.2-0.3,0.1-0.4l-0.3-0.1c-0.1-0.1-0.1-0.2,0-0.3c0.5,0,0.8,0,1.2,0c0.5,0,0.8,0,1.2,0c0.1,0,0.1,0.3,0,0.3
			c-1,0.1-1.3,0.4-2.1,1.1c-0.5,0.5-0.9,0.9-1.3,1.3c-0.1,0.1-0.1,0.2,0,0.4c0.9,1.1,1.9,2.4,2.7,3.4c0.2,0.3,0.5,0.4,0.8,0.4l0.3,0
			c0.1,0.1,0.1,0.3,0,0.3c-0.4,0-0.8,0-1.4,0c-0.5,0-1,0-1.5,0c-0.1,0-0.1-0.3,0-0.3l0.3,0c0.2,0,0.2-0.1,0.1-0.3
			c-0.5-0.6-1.8-2.3-2.2-2.8c-0.1-0.1-0.2-0.2-0.3-0.2c-0.3,0-0.3,0.3-0.3,0.6v1.4c0,1.2,0.1,1.2,0.6,1.3l0.3,0
			c0.1,0.1,0.1,0.3,0,0.3c-0.5,0-1,0-1.5,0c-0.5,0-1,0-1.4,0c-0.1,0-0.1-0.3,0-0.3l0.2,0c0.5-0.1,0.6-0.1,0.6-1.3v-4.1
			c0-1.2-0.1-1.2-0.6-1.3l-0.2,0c-0.1-0.1-0.1-0.3,0-0.3c0.4,0,0.9,0,1.4,0c0.5,0,1,0,1.4,0c0.1,0,0.1,0.3,0,0.3l-0.2,0
			c-0.5,0.1-0.6,0.1-0.6,1.3L361.5,148L361.5,148z"/>
		<path d="M265.8,159v2h0.8c0.5,0,0.9,0,1.1-0.1s0.3-0.2,0.4-0.3c0.1-0.2,0.2-0.3,0.2-0.5c0-0.3-0.1-0.5-0.2-0.6
			c-0.1-0.2-0.3-0.3-0.6-0.3c-0.2,0-0.5,0-1,0L265.8,159L265.8,159z M264.4,164.8v-6.9h2.2c0.8,0,1.4,0,1.7,0.1
			c0.4,0.1,0.7,0.3,1,0.7c0.3,0.3,0.4,0.8,0.4,1.3c0,0.4-0.1,0.8-0.2,1.1c-0.2,0.3-0.4,0.5-0.6,0.7c-0.2,0.2-0.5,0.3-0.7,0.3
			c-0.3,0.1-0.8,0.1-1.4,0.1h-0.9v2.6H264.4L264.4,164.8z"/>
		<polygon points="271.1,164.8 271.1,157.9 272.5,157.9 272.5,163.6 275.9,163.6 275.9,164.8 		"/>
		<path d="M280.8,162l-0.9-2.6l-0.9,2.6H280.8L280.8,162z M283.3,164.8h-1.5l-0.6-1.6h-2.7l-0.6,1.6h-1.5l2.7-6.9h1.5L283.3,164.8
			L283.3,164.8z"/>
		<polygon points="285.1,164.8 285.1,159 283,159 283,157.9 288.5,157.9 288.5,159 286.5,159 286.5,164.8 		"/>
		<polygon points="289.6,164.8 289.6,157.9 291,157.9 291,164.8 		"/>
		<polygon points="292.5,164.8 292.5,157.9 293.8,157.9 296.7,162.5 296.7,157.9 298,157.9 298,164.8 296.6,164.8 293.8,160.3 
			293.8,164.8 		"/>
		<path d="M299.6,157.9h1.4v3.7c0,0.6,0,1,0.1,1.2c0.1,0.3,0.2,0.5,0.4,0.7s0.5,0.3,0.9,0.3c0.4,0,0.7-0.1,0.9-0.2
			c0.2-0.2,0.3-0.4,0.4-0.6c0-0.2,0.1-0.6,0.1-1.2v-3.8h1.4v3.6c0,0.8,0,1.4-0.1,1.8c-0.1,0.3-0.2,0.6-0.4,0.9s-0.5,0.4-0.8,0.6
			c-0.3,0.1-0.8,0.2-1.3,0.2c-0.7,0-1.2-0.1-1.5-0.2c-0.3-0.1-0.6-0.4-0.8-0.6s-0.3-0.5-0.4-0.8c-0.1-0.4-0.1-1-0.1-1.7L299.6,157.9
			L299.6,157.9z"/>
		<polygon points="306.7,164.8 306.7,157.9 308.8,157.9 310.1,162.6 311.3,157.9 313.4,157.9 313.4,164.8 312.1,164.8 312.1,159.4 
			310.7,164.8 309.4,164.8 308,159.4 308,164.8 		"/>
		<path d="M322.2,162.2l1.3,0.4c-0.2,0.8-0.5,1.3-1,1.7c-0.5,0.4-1.1,0.5-1.8,0.5c-0.9,0-1.7-0.3-2.3-0.9c-0.6-0.6-0.9-1.5-0.9-2.6
			c0-1.1,0.3-2,0.9-2.7c0.6-0.6,1.4-0.9,2.3-0.9c0.8,0,1.5,0.3,2.1,0.7c0.3,0.3,0.5,0.7,0.7,1.3l-1.4,0.3c-0.1-0.4-0.3-0.6-0.5-0.8
			c-0.3-0.2-0.6-0.3-0.9-0.3c-0.5,0-0.9,0.2-1.2,0.5c-0.3,0.4-0.5,1-0.5,1.8c0,0.9,0.2,1.5,0.5,1.9c0.3,0.4,0.7,0.6,1.2,0.6
			c0.4,0,0.7-0.1,1-0.4C321.9,163.1,322.1,162.7,322.2,162.2L322.2,162.2z"/>
		<polygon points="325,164.8 325,157.9 326.4,157.9 326.4,160.6 329.1,160.6 329.1,157.9 330.5,157.9 330.5,164.8 329.1,164.8 
			329.1,161.8 326.4,161.8 326.4,164.8 		"/>
		<path d="M335.8,162l-0.9-2.6l-0.9,2.6H335.8L335.8,162z M338.3,164.8h-1.5l-0.6-1.6h-2.7l-0.6,1.6h-1.5l2.7-6.9h1.5L338.3,164.8
			L338.3,164.8z"/>
		<polygon points="339.2,164.8 339.2,157.9 341.3,157.9 342.6,162.6 343.8,157.9 345.9,157.9 345.9,164.8 344.6,164.8 344.6,159.4 
			343.2,164.8 341.9,164.8 340.5,159.4 340.5,164.8 		"/>
		<path d="M348.9,159v2h0.8c0.5,0,0.9,0,1.1-0.1c0.2-0.1,0.3-0.2,0.4-0.3c0.1-0.2,0.2-0.3,0.2-0.5c0-0.3-0.1-0.5-0.2-0.6
			c-0.1-0.2-0.3-0.3-0.6-0.3c-0.2,0-0.5,0-1,0L348.9,159L348.9,159z M347.5,164.8v-6.9h2.2c0.8,0,1.4,0,1.7,0.1
			c0.4,0.1,0.7,0.3,1,0.7c0.3,0.3,0.4,0.8,0.4,1.3c0,0.4-0.1,0.8-0.2,1.1c-0.2,0.3-0.4,0.5-0.6,0.7s-0.5,0.3-0.7,0.3
			c-0.3,0.1-0.8,0.1-1.4,0.1h-0.9v2.6H347.5L347.5,164.8z"/>
		<polygon points="354,164.8 354,157.9 355.4,157.9 355.4,164.8 		"/>
		<g>
			<g>
				<defs>
					<rect id="SVGID_1_" x="264.4" y="49.7" width="105.7" height="115.2"/>
				</defs>
				<clipPath id="SVGID_2_">
					<use xlink:href="#SVGID_1_"  style="overflow:visible;"/>
				</clipPath>
				<path class="st1" d="M358.1,161.3c0,0.8,0.2,1.4,0.5,1.8c0.4,0.4,0.8,0.6,1.4,0.6s1-0.2,1.4-0.6c0.4-0.4,0.5-1,0.5-1.8
					c0-0.8-0.2-1.4-0.5-1.8c-0.3-0.4-0.8-0.6-1.4-0.6c-0.6,0-1,0.2-1.4,0.6C358.3,159.9,358.1,160.5,358.1,161.3L358.1,161.3z
					 M356.7,161.4c0-0.7,0.1-1.3,0.3-1.8c0.2-0.4,0.4-0.7,0.6-0.9c0.3-0.3,0.6-0.5,0.9-0.6c0.4-0.2,0.9-0.3,1.5-0.3
					c1,0,1.8,0.3,2.4,0.9c0.6,0.6,0.9,1.5,0.9,2.6c0,1.1-0.3,2-0.9,2.6s-1.4,0.9-2.4,0.9c-1,0-1.8-0.3-2.4-0.9
					C357,163.3,356.7,162.5,356.7,161.4L356.7,161.4z"/>
			</g>
			<g>
				<defs>
					<rect id="SVGID_3_" x="264.4" y="49.7" width="105.7" height="115.2"/>
				</defs>
				<clipPath id="SVGID_4_">
					<use xlink:href="#SVGID_3_"  style="overflow:visible;"/>
				</clipPath>
				<polygon class="st2" points="364.6,164.8 364.6,157.9 366,157.9 368.8,162.5 368.8,157.9 370.1,157.9 370.1,164.8 368.7,164.8 
					365.9,160.3 365.9,164.8 				"/>
			</g>
			<g>
				<defs>
					<rect id="SVGID_5_" x="264.4" y="49.7" width="105.7" height="115.2"/>
				</defs>
				<clipPath id="SVGID_6_">
					<use xlink:href="#SVGID_5_"  style="overflow:visible;"/>
				</clipPath>
				<path class="st3" d="M319.1,50.7l1,0.5l1.4,0.6l0.1,0.5l1.3,1l1.4,1.2l2.3,1.6l1.6,1.1l2,1.2l2.9,2.3l0.9,1.4l0.3-0.5l2,1.6
					l2.1,1.6l1.4,0.8l1.2,0.7l1.8,1.3l0.9,0.7l1.2,0.7l0.2,1.2l0.7,1l2,1.7l1.1,0.9v-0.5l-0.3-0.6l-0.8-0.5l-1-0.2l-0.2-0.7
					l-0.9-1.3l0.7,0.5l0.9,0.6l0.6,0.4l1.5,0.9l0.4,0.7l0.1-0.3l2.1,1.2v0.6h0.7l0.7,0.3l1.7,1.4l1.2,0.7l0.6,0.4l1.5,0.8l0.4,0.7
					l-0.9,0.1l0.4,0.8l1.4,0.5l1,0.4L360,81l-0.9-0.1l-1-0.3l-0.9-0.6l-1-0.3l1.4-0.3l-0.1-0.3l-0.8-0.2l-1.3-0.1l-0.8-0.1l-0.6-1.1
					l-1.6-0.1l-0.4-0.8l-0.4,0.4l0.4,0.8l-0.1,1.7v6.5l0.2,2.9l-0.1,2.3l-0.1,2.3l-0.4,1.7l0.1-1.1l-0.1-1.3l0.1-1.6l0.1-2.3
					l-0.4-1.5V89l-0.1,1.3v2.1l-0.3,1.9l-1,5.2l0.4,1.5l0.1,1.4l-0.2,0.9l-0.5-1.2l-0.2,4.8l-0.4,5.3l-0.4,0.7l-0.3,0.6l0.6,0.1
					l0,2.4l-0.2,0.4l0.2,0.7l-0.1,1.7l-0.4,0.5l0.4,0.6l-0.2,1.2l0.1,2.6l-0.2-0.9l-0.4-0.7v1.1l0.1,0.5l0.1,0.5
					c0,0,0.2,0.6-0.1,0.3c-0.4-0.3-0.7-1.7-0.7-1.7l-1-1.7c0,0,0.1-0.6,0.4-0.9s-0.4-1.3-0.4-1.3L346,118l0.5-0.4
					c-0.4-0.2-0.4-1.3-0.4-1.3l0.4-0.5l-0.9-0.9l0.1,1.4v1.1l-0.4-1.4v-1.8v-2l-0.8-2.7l0.1-4.2l-0.1-2.3l-0.1-6.2l0.4-1.3v-2.6
					l0.1-1.7l-0.2-4.2c-0.2-0.4,0.7-2.4,0.7-2.4l0.3-1.3l0.6-1.7h-0.7l0.5-1.2l-0.4-1l-1.8,0.4l0.1-0.6l-2.3-0.1l-6.9-0.4h-1.7
					l0.1,0.3l2.3,0.3l1.8,0.3h-4.2l-6-0.4h-5.7l-4.8,0.9c0,0-6.8,0.5-7,0.6c-0.2,0.1-14.6,0.2-14.6,0.2l-5-0.1l0.2,8.1l0.2,0.7
					l-0.1,12.7l0.1,9.9l-0.1,10.9l0.1,7.6l3.7,0.1h4.3c5.1-0.2,12,0.9,12,0.9l0.4,0.4h1.9l1.7,0.4l4.8,0.8c1.4,0.1,6.8-0.3,6.8-0.3
					l1.4-0.2l0.2-0.4l4.9,0.7l5,0.2c1-0.1,4,0.1,4,0.1c2.6,0.1,5.2,2.1,5.2,2.1c1.9,1.7,0,2.9,0,2.9c-0.4,0.7-3.9,1.4-3.9,1.4
					l-2.9,0.2l-9.5-0.1l-4.8,0.2l-10.2-0.1l-4.3-0.7l-10.8-0.4l-4.3,0.1l-9.3-0.1c-4,0-3.7-3.6-3.7-3.6l0.1-14.1l0.1-8.3l0.4-9.2
					l0.4-9.1v-7.5l-0.1-5.6l-4.6,0.8c-3.6,0.4-4.8-1.9-4.8-1.9c-1.3-3.3,2.1-4.4,2.1-4.4c0.5,0,4.4-1.7,4.4-1.7l2.4-1.2
					c0.1-0.4,2.9-1.4,2.9-1.4l2.2-1.2c0.9-0.4,5.7-4.1,5.7-4.1l4.1-2.9l2.4-2.3c0.2-0.4,1.9-1.8,1.9-1.8l0.6-0.6l2-1.6l1.7-1.4
					l0.6-0.7l2.2-2.6c0.7-1,3.4-2.4,3.4-2.4c0.7-0.3,4.3,0.1,4.3,0.1L319.1,50.7L319.1,50.7L319.1,50.7z M328.8,64.9l-1.5-0.9
					l-1.3-1.1l-1.2-0.9l0-0.4l-0.9-0.3l-1.6-0.8l-1.1-1.2l-0.7-0.5l-1.1-0.6l-1.2-0.6l-1.1-0.7l-0.8-0.6c0,0-0.9-0.2-1.2,0.1
					l-0.5,0.9l-0.6,0.8l-0.8,1.1c0,0-1.3,1.7-1.7,1.7l-0.4,0.4l-0.9,0.8l-0.8,0.6l-0.9,0.9l-1.4,1.5l-2.2,1.8l-0.9,0.6l-0.2,0.3
					l-2.5,2.3l-1.4,1l-0.3,0.5l-0.7,0.4l-0.6,0.6l-1.7,1.9l17.8,0l11.4,0.2l0.4,0.1l-1.4,0.1l-0.4,0.3l1.4,0l0.6,0.1l1.2,0.1
					l0.4-0.2l-0.6-0.2l-0.6-0.1l-0.2-0.3l4.7,0.3l0.9,0l5.2,0.2l0.9,0l6.3,0c0,0,1.8,0.1,2.2,0.1c0.4,0,0-0.3,0-0.3l-5-2.4l-0.9-0.5
					l-0.8-0.5l-0.8-0.3l-0.9-0.6l-0.2-0.3l-1.3-0.4l-0.1-0.3l-0.6,0l-1-0.7l-1-0.7l-1-0.4l-0.3-0.4l-0.6-0.3l-0.5-0.7l-1.6-1
					L328.8,64.9L328.8,64.9L328.8,64.9z"/>
			</g>
		</g>
		<polygon class="st4" points="352.4,78.9 353.1,79.3 353.4,79.4 353.5,79.7 353.9,79.7 354.8,80.6 355,80.6 354.2,79.6 353.9,79.4 
			353.6,79.1 353.2,78.9 352.8,78.8 352.4,78.9 		"/>
		<polygon class="st4" points="359.1,81.9 358.8,81.8 358.7,81.6 358.6,82.2 359,82.4 359.4,82.7 359.7,83.1 359.8,83.4 360.2,83.8 
			360.6,83.9 360.9,83.7 360.3,83.4 360.1,82.7 359.6,82.4 359.5,82 359.1,81.9 		"/>
		<polygon class="st4" points="350.3,106 350.5,107 350.5,107.5 350.6,108.6 350.7,109.5 350.7,110.4 350.7,112 351,111.1 
			351.2,110.2 351.3,109.5 351,108.9 350.9,108 350.3,106 		"/>
		<polygon class="st4" points="352.7,121.2 352.4,122 352.5,122.5 352.6,123.6 352.4,124.8 352.4,126.1 352.4,126.7 352.3,127.3 
			352.5,128.6 352.8,127.5 352.8,125.7 352.9,124.9 353,123.8 352.8,122.8 352.7,121.9 352.7,121.2 		"/>
		<polygon class="st4" points="346.7,124.1 347.4,124 347.3,123.6 346.9,123 346.6,122.7 346.2,122.6 346.4,123.6 346.6,124.7 
			346.9,125.6 347.1,126.3 347.1,126.3 347.5,127.2 347.7,127.9 347.8,128.5 348.1,127.9 348.2,127 347.5,126.4 347.5,126.1 
			347.3,125.3 347.1,124.8 346.7,124.1 		"/>
		<polygon class="st4" points="349.4,130 349.2,130.3 349.2,130.7 349.2,131.3 349.4,131.8 349.7,131.7 349.7,131.2 349.6,130.5 
			349.8,130.1 349.4,130 		"/>
		<polygon class="st4" points="349.5,125.3 349.3,125.9 349.6,126.4 349.5,126.3 349.8,125.8 349.5,125.3 		"/>
		<polygon class="st4" points="349.8,127 349.4,127.3 349.6,127.7 349.9,127.3 349.8,127 		"/>
		<polygon class="st4" points="353.2,108.1 353,108.6 352.8,109.1 353,109.7 353.2,109.1 353.3,108.7 353.2,108.1 		"/>
		<path class="st0" d="M312.4,112.1c0,0-0.1-1.5-0.3-2.6c-0.3-1.1-1.2-2.7-1.6-3.2c-0.4-0.4-1.3-1.6-1.9-2.2c-0.6-0.5-1.7-1.6-2-1.8
			c-0.3-0.2-0.7-0.7-2.1-1.3c-1.4-0.7-1.4-0.7-2-0.9c-0.5-0.2-1.8-0.6-2.7-0.8c-0.8-0.2-2.3-0.5-3-0.5c-0.7,0-4.4-0.9-4.4-0.9
			s2.5,3.7,3.3,5.1c0.8,1.4,1.4,2.5,2.4,4.2c0.9,1.7,1.2,1.8,2.2,3.4c1.1,1.6,2.3,3.2,3.5,4.6c1.2,1.4,1.7,2.1,2.7,3.1
			c1,1,3.4,2.9,4.3,3.5c0.9,0.5,2.8,1.9,2.8,1.9l-0.8-3.1l-0.3-2.2l-0.2-2.3l-0.1-2.9L312.4,112.1L312.4,112.1L312.4,112.1z"/>
		<path class="st0" d="M316.1,129.4l-0.7-1.6l-1.1-2.3c0,0-0.3-0.2-0.8-1c-0.6-0.9-1.7-2.3-1.8-4.1c-0.1-1.8,0.1-4.8,0.7-7.2
			c0.6-2.4,0.7-2.9,1.9-5.7c1.1-2.8,2.6-5,3.3-6.3c0.7-1.2,1.9-3.2,2.8-4.6s3.9-5.7,4.4-6.3c0.4-0.6,6.3-7.3,7.1-8.3
			c0.9-1,4.5-4.9,5.2-5.6c0.7-0.7,6.4-6.1,7.5-7.3c1.2-1.1,4.2-3.6,4.8-4.2s3.4-2.6,4.1-3.2s4.7-3.4,5.9-3.9c1.3-0.5,3.9-1.9,6-2.1
			c2-0.2,4.3-0.6,2.4-0.2c-2,0.5-4.9,1.6-6,2.3c-1,0.6-1.3,0.6-2.9,2c-1.4,1.2-1.1,0.7-2.5,2c-1.3,1.1-2.7,2.4-3.1,2.8
			c-0.5,0.4-3,2.7-3,2.7l-2.8,2.8l-2.6,2.7l-2.7,2.8c0,0-2.6,3.2-2.9,3.5c-0.3,0.3-3,4-3.8,5.3c-0.8,1.3-2.5,4.1-3,4.8
			c-0.5,0.7-2.6,4.2-3.1,5.3c-0.6,1.2-1.8,3.5-2.3,4.6c-0.5,1.1-2.8,5.1-3.9,7.9s-2.5,6.6-2.8,7.5c-0.3,0.9-1.5,5.4-2,6.1
			c-0.4,0.6-1.4,2.6-2.2,3.5c-0.7,0.9-0.4,1.9-0.4,1.9s0.1,0.7,1.1,2.9c0.9,2.2,0.7,1.7,0.7,1.7l-0.4,1.7L316.1,129.4L316.1,129.4
			L316.1,129.4z"/>
		<path class="st5" d="M300.1,102.4c0,0-0.4-0.3,1.7,1c2.1,1.2,0.4,0.2,1.8,1.2c1.3,0.9,1.7,1.7,2.4,2.4c0.7,0.7,1.5,2.3,1.8,3.3
			c0.3,0.9,0.7,3,0.7,3s-1.4-2.9-2.6-4.2c-1.2-1.3-1.4-1.6-2.3-2.6c0.2,0.3-1.6-1.6-2.5-2.5c-0.8-0.8-3.5-2.6-3.5-2.6L300.1,102.4
			L300.1,102.4L300.1,102.4z"/>
		<path class="st5" d="M317.1,131.5c0.1-0.5,0.2-0.9,0.4-0.9c0.2,0,0.3,0.5,0.2,1s-0.2,0.9-0.4,0.9C317.1,132.5,317,132,317.1,131.5
			L317.1,131.5L317.1,131.5z"/>
		<path class="st5" d="M314.8,114.7l-0.2,1.2l-0.1,1.5c0,0,0.1,1.3,0.1,1.5c0,0.3,0.1,0.3,0.1,0.6c0,0.2,0.2,0.5,0.2,0.5
			s0.2,0.4,0.3,0.4c0.1,0,0.2,0.1,0.3-0.1c0.1-0.2,0.1-0.7,0.1-0.9s0-0.6,0-1c0-0.4,0-0.9,0.1-1.5c0.1-0.6,0.3-1.4,0.3-1.7
			c0.1-0.3,0.7-2.5,0.9-2.9c0.2-0.4,0.5-1.6,1.3-3.3c0.7-1.7,1.4-3.2,1.9-4.4c0.6-1.2,2.4-4.6,3.1-5.8c0.7-1.2,1.9-3.2,2.6-4.2
			c0.7-1,1.5-2.7,2.5-3.9s2.4-3.6,3.4-5.1c1-1.4,4-5.7,8-9.8c3.9-4,3.7-3.9,4.8-4.9c1.1-1,1.8-1.9,5-4.5c3.2-2.6,6.2-5.1,6.2-5.1
			l-7.8,6.2c0,0-3.9,3.5-5.3,4.9c-1.4,1.4-1.2,1-4.7,4.9c-3.4,3.8-2.1,2.3-2.5,2.9c-0.4,0.6-1.7,2.1-2.8,3.5s-0.3,0.3-1.9,2.6
			c-1.6,2.2-2.2,3.1-3.9,5.6c-1.6,2.5-0.1,0.1-2.9,4.4c-2.8,4.3-1.8,2.7-3.4,5.6c-1.7,2.9-0.7,0.9-2.4,4.5c-1.7,3.6-1.1,2.6-2.1,5
			c-1,2.4-1,3-1,3L314.8,114.7L314.8,114.7L314.8,114.7z"/>
		<path class="st6" d="M312.8,109.5c0,0-0.5,1.6-1,3.9c-0.5,2.3-0.3,1.3-0.6,3.2c-0.3,1.9-0.4,2.2-0.3,3.5c0.1,1.4,0.3,1.7,1.2,3.4
			c0.7,1.4,0.6,1.6,0.6,2.2"/>
	</g>
	<g>
		<path class="st7" d="M120.8,70.2c1.8-0.2,1.9,0.9,1.9,1.4c0,0.4,1.6,11,1.6,11s4.2-4,6.6-6.6c2.4-2.6,4.4-2.2,4.4-2.2
			s25.2-0.6,27.3-0.9s0.9,2,0,2.6s-28.1,19.3-28.1,19.3s2.2,33.9,2.2,35.3c0,1.4,0.3,2.7-1.5,3.7s-2.5-0.8-2.5-0.8L116.4,104
			c0,0-13.9,13.2-14.7,13.9c-0.8,0.7-1.4,1.6-2.6,1.2c-1.3-0.4,2.5-8.1,3.3-9.7c0.8-1.6,9.4-20,9.4-20l-15.5-13
			c-1.4-2.7,3-3.5,4.1-3.7c1.1-0.2,6.7-1,10.5-1.5C114.7,70.5,118.5,70.5,120.8,70.2L120.8,70.2z M133.6,51.6c0,0,2.1,10.8,2.5,14
			c0.4,3.1-1.4,3.6-1.8,3.5c-0.4-0.1-9.5-1.8-11.1-2.2c-1.6-0.4-0.7-1.5-0.7-1.5s8.7-14.3,9.8-14.7
			C133.5,50.3,133.6,51.6,133.6,51.6L133.6,51.6z"/>
		<path class="st8" d="M3.2,162.2h0.7c1.5,0,2.5-0.8,2.7-2.3c0.3-1.7-0.6-2.3-2.2-2.3H2.5l-1.2,7.3h1.4L3.2,162.2L3.2,162.2z
			 M3.7,158.8H4c0.8,0,1.3,0.1,1.2,1.1c-0.1,1-0.6,1.1-1.5,1.1H3.4L3.7,158.8L3.7,158.8z"/>
		<path class="st9" d="M3.2,162.2h0.7c1.5,0,2.5-0.8,2.7-2.3c0.3-1.7-0.6-2.3-2.2-2.3H2.5l-1.2,7.3h1.4L3.2,162.2L3.2,162.2z
			 M3.7,158.8H4c0.8,0,1.3,0.1,1.2,1.1c-0.1,1-0.6,1.1-1.5,1.1H3.4L3.7,158.8L3.7,158.8z"/>
		<polygon class="st10" points="15.8,157.6 14.4,157.6 13.2,165 16.6,165 16.8,163.7 14.8,163.7 		"/>
		<path class="st8" d="M28.1,163.4l0.3,1.5H30l-1.6-7.5h-1.1l-4,7.5h1.5l0.8-1.5H28.1L28.1,163.4z M27.9,162.2h-1.7l1.2-2.7h0
			L27.9,162.2L27.9,162.2z"/>
		<path class="st9" d="M28.1,163.4l0.3,1.5H30l-1.6-7.5h-1.1l-4,7.5h1.5l0.8-1.5H28.1L28.1,163.4z M27.9,162.2h-1.7l1.2-2.7h0
			L27.9,162.2L27.9,162.2z"/>
		<polygon class="st10" points="39.8,158.9 41.2,158.9 41.4,157.6 37,157.6 36.8,158.9 38.3,158.9 37.4,165 38.8,165 		"/>
		<polygon class="st10" points="50.1,157.6 48.7,157.6 47.6,165 49,165 		"/>
		<polygon class="st10" points="56.8,165 58.2,165 59,160 59,160 62.1,165.1 63.1,165.1 64.3,157.6 62.9,157.6 62.1,162.6 
			62.1,162.6 59,157.4 58,157.4 		"/>
		<path class="st10" d="M71.4,162c-0.3,1.8,0.3,3.1,2.2,3.1c2,0,2.9-1.4,3.2-3.1l0.7-4.4h-1.4l-0.7,4.1c-0.1,0.9-0.4,2.2-1.6,2.2
			c-1.2,0-1.1-1.3-1-2.2l0.7-4.1H72L71.4,162L71.4,162z"/>
		<polygon class="st10" points="90.1,165 91.6,165 91.7,157.4 90.6,157.4 88.1,162.3 87.1,157.4 86.1,157.4 83.7,165 85.1,165 
			86.5,160.4 86.5,160.4 87.4,165 87.9,165 90.3,160.4 90.3,160.4 		"/>
		<path class="st7" d="M4.1,142.1c0-2.2,0-2.7,0-3.1c0-0.5,0.1-0.8,0.6-0.8c0.2,0,0.4,0,0.6,0c0.2,0,0.3,0,0.3-0.1
			c0-0.1-0.1-0.1-0.3-0.1c-0.6,0-1.7,0-2,0c-0.4,0-1.3,0-2,0c-0.2,0-0.3,0-0.3,0.1c0,0.1,0.1,0.1,0.3,0.1c0.2,0,0.4,0,0.5,0
			c0.5,0.1,0.6,0.3,0.6,0.8c0,0.5,0,0.9,0,3.1v2.6c0,1.4,0,2.5-0.1,3.2c-0.1,0.4-0.1,0.8-0.4,0.8c-0.1,0-0.3,0.1-0.5,0.1
			c-0.2,0-0.2,0-0.2,0.1c0,0.1,0.1,0.1,0.3,0.1c0.3,0,0.7,0,1,0c0.4,0,0.7,0,0.8,0c0.6,0,1.1,0,1.8,0c0.7,0,1.4,0,2.5,0
			c0.8,0,0.8-0.1,0.9-0.4c0.1-0.4,0.2-1.5,0.2-1.7c0-0.2,0-0.3-0.1-0.3c-0.1,0-0.1,0.1-0.2,0.2c0,0.3-0.2,0.7-0.4,0.9
			c-0.4,0.4-1,0.4-1.7,0.4c-1.2,0-1.5-0.1-1.8-0.3c-0.3-0.3-0.3-1.3-0.3-3.2L4.1,142.1L4.1,142.1z"/>
		<path class="st7" d="M10.9,145.4c0,1.2,0,2.1-0.1,2.7c0,0.4-0.1,0.6-0.4,0.7c-0.1,0-0.3,0-0.5,0c-0.2,0-0.2,0.1-0.2,0.1
			c0,0.1,0.1,0.1,0.3,0.1c0.3,0,0.6,0,0.9,0c0.3,0,0.6,0,0.7,0c0.4,0,0.9,0,1.5,0c0.6,0,1.4,0,2.4,0c0.5,0,0.6,0,0.7-0.3
			c0.1-0.3,0.2-1.1,0.2-1.4c0-0.1,0-0.3-0.1-0.3c-0.1,0-0.1,0.1-0.1,0.2c-0.1,0.5-0.2,0.8-0.6,0.9c-0.3,0.1-0.9,0.2-1.2,0.2
			c-1.3,0-1.7-0.2-1.8-1.1c0-0.4,0-1.4,0-1.9v-1c0-0.1,0-0.1,0.1-0.1c0.3,0,1.8,0,2,0.1c0.5,0,0.7,0.2,0.7,0.5c0,0.2,0,0.3,0,0.5
			c0,0.1,0,0.1,0.1,0.1c0.1,0,0.1-0.2,0.1-0.3c0-0.1,0-0.6,0.1-0.8c0.1-0.6,0.1-0.8,0.1-0.9c0-0.1,0-0.1-0.1-0.1
			c-0.1,0-0.1,0.1-0.2,0.2c-0.1,0.1-0.3,0.2-0.6,0.2c-0.3,0-2,0-2.3,0c-0.1,0-0.1-0.1-0.1-0.1v-3.1c0-0.1,0-0.1,0.1-0.1
			c0.3,0,1.8,0,2,0.1c0.7,0.1,0.8,0.2,0.9,0.5c0.1,0.1,0.1,0.4,0.1,0.5c0,0.1,0,0.2,0.1,0.2c0.1,0,0.1-0.1,0.1-0.2
			c0-0.1,0.1-0.7,0.1-0.8c0-0.6,0.1-0.7,0.1-0.8c0-0.1,0-0.1-0.1-0.1c-0.1,0-0.1,0-0.2,0.1c-0.1,0-0.3,0.1-0.6,0.1
			c-0.3,0-3.1,0-3.6,0c-0.4,0-1.2,0-1.9,0c-0.2,0-0.3,0-0.3,0.1s0.1,0.1,0.2,0.1c0.2,0,0.4,0,0.5,0c0.4,0.1,0.5,0.3,0.6,0.7
			c0,0.4,0,0.8,0,2.7L10.9,145.4L10.9,145.4z"/>
		<path class="st7" d="M23.1,145.9c0.1,0,0.1,0,0.1,0.1l1,2.5c0.1,0.1,0,0.3-0.1,0.3c-0.1,0-0.2,0.1-0.2,0.1c0,0.1,0.1,0.1,0.4,0.1
			c1.1,0,2,0,2.5,0c0.5,0,0.6,0,0.6-0.1c0-0.1-0.1-0.1-0.2-0.1c-0.1,0-0.3,0-0.5,0c-0.2-0.1-0.6-0.2-1.1-1.4c-0.8-1.9-3-7.1-3.3-7.8
			c-0.1-0.3-0.2-0.4-0.4-0.4c-0.1,0-0.2,0.1-0.4,0.5l-3.4,7.9c-0.3,0.6-0.5,1-1.1,1.1c-0.1,0-0.3,0-0.4,0c-0.1,0-0.1,0.1-0.1,0.1
			c0,0.1,0.1,0.1,0.2,0.1c0.7,0,1.4,0,1.5,0c0.4,0,1,0,1.4,0c0.1,0,0.2,0,0.2-0.1c0-0.1,0-0.1-0.2-0.1h-0.2c-0.4,0-0.5-0.1-0.5-0.4
			c0-0.1,0.1-0.5,0.2-0.8l0.7-1.7c0-0.1,0-0.1,0.1-0.1L23.1,145.9L23.1,145.9z M20.3,145.2C20.2,145.2,20.2,145.2,20.3,145.2
			l1.2-3.3c0,0,0-0.1,0.1-0.1c0,0,0,0.1,0.1,0.1l1.2,3.2c0,0,0,0.1-0.1,0.1L20.3,145.2L20.3,145.2z"/>
		<path class="st7" d="M28.8,145.4c0,1.2,0,2.1-0.1,2.7c0,0.4-0.1,0.6-0.4,0.7c-0.1,0-0.3,0-0.5,0c-0.2,0-0.2,0.1-0.2,0.1
			c0,0.1,0.1,0.1,0.3,0.1c0.3,0,0.6,0,0.9,0c0.3,0,0.6,0,0.7,0c0.3,0,0.8,0,1.3,0.1c0.5,0,1.1,0.1,1.6,0.1c2.4,0,3.8-0.9,4.4-1.5
			c0.7-0.7,1.4-1.9,1.4-3.5c0-1.5-0.6-2.5-1.2-3.2c-1.4-1.4-3.6-1.4-5.2-1.4c-0.8,0-1.7,0-2.1,0c-0.4,0-1.2,0-1.9,0
			c-0.2,0-0.3,0-0.3,0.1s0.1,0.1,0.2,0.1c0.2,0,0.4,0,0.5,0c0.4,0.1,0.5,0.3,0.6,0.7c0,0.4,0,0.8,0,2.7L28.8,145.4L28.8,145.4z
			 M30.6,143c0-1,0-2,0-2.5c0-0.1,0-0.2,0.2-0.3c0.1-0.1,0.5-0.1,0.8-0.1c1,0,2.4,0.1,3.6,1.2c0.6,0.5,1.2,1.5,1.2,3.1
			c0,1.3-0.3,2.4-1.1,3.1c-0.8,0.7-1.7,0.9-2.8,0.9c-1,0-1.5-0.3-1.7-0.5c-0.1-0.1-0.1-0.6-0.1-0.9c0-0.3,0-1.2,0-2.5L30.6,143
			L30.6,143z"/>
		<path class="st7" d="M41,145.4c0,1.2,0,2.1-0.1,2.7c0,0.4-0.1,0.6-0.4,0.7c-0.1,0-0.3,0-0.5,0c-0.2,0-0.2,0.1-0.2,0.1
			c0,0.1,0.1,0.1,0.3,0.1c0.3,0,0.6,0,0.9,0c0.3,0,0.6,0,0.7,0c0.4,0,0.9,0,1.5,0c0.6,0,1.4,0,2.4,0c0.5,0,0.6,0,0.7-0.3
			c0.1-0.3,0.2-1.1,0.2-1.4c0-0.1,0-0.3-0.1-0.3c-0.1,0-0.1,0.1-0.1,0.2c-0.1,0.5-0.2,0.8-0.6,0.9c-0.3,0.1-0.9,0.2-1.2,0.2
			c-1.3,0-1.7-0.2-1.8-1.1c0-0.4,0-1.4,0-1.9v-1c0-0.1,0-0.1,0.1-0.1c0.3,0,1.8,0,2,0.1c0.5,0,0.7,0.2,0.7,0.5c0,0.2,0,0.3,0,0.5
			c0,0.1,0,0.1,0.1,0.1c0.1,0,0.1-0.2,0.1-0.3c0-0.1,0-0.6,0.1-0.8c0.1-0.6,0.1-0.8,0.1-0.9c0-0.1,0-0.1-0.1-0.1s-0.1,0.1-0.2,0.2
			c-0.1,0.1-0.3,0.2-0.6,0.2c-0.3,0-2,0-2.3,0c-0.1,0-0.1-0.1-0.1-0.1v-3.1c0-0.1,0-0.1,0.1-0.1c0.3,0,1.8,0,2,0.1
			c0.7,0.1,0.8,0.2,0.9,0.5c0.1,0.1,0.1,0.4,0.1,0.5c0,0.1,0,0.2,0.1,0.2c0.1,0,0.1-0.1,0.1-0.2c0-0.1,0.1-0.7,0.1-0.8
			c0-0.6,0.1-0.7,0.1-0.8c0-0.1,0-0.1-0.1-0.1c-0.1,0-0.1,0-0.2,0.1c-0.1,0-0.3,0.1-0.6,0.1c-0.3,0-3.1,0-3.6,0c-0.4,0-1.2,0-1.9,0
			c-0.2,0-0.3,0-0.3,0.1s0.1,0.1,0.2,0.1c0.2,0,0.4,0,0.5,0c0.4,0.1,0.5,0.3,0.6,0.7c0,0.4,0,0.8,0,2.7L41,145.4L41,145.4z"/>
		<path class="st7" d="M49.2,145.4c0,1.2,0,2.1-0.1,2.7c0,0.4-0.1,0.6-0.4,0.7c-0.1,0-0.3,0-0.5,0c-0.2,0-0.2,0.1-0.2,0.1
			c0,0.1,0.1,0.1,0.3,0.1c0.5,0,1.3,0,1.6,0c0.2,0,1.3,0,2,0c0.2,0,0.3,0,0.3-0.1c0-0.1-0.1-0.1-0.2-0.1c-0.2,0-0.4,0-0.6,0
			c-0.4-0.1-0.5-0.3-0.5-0.7c-0.1-0.5-0.1-1.5-0.1-2.7v-0.2c0-0.1,0-0.1,0.1-0.1l1.2,0c0.1,0,0.2,0,0.2,0.1c0.2,0.2,0.7,1,1.2,1.7
			c0.7,1,1.2,1.6,1.8,1.8c0.3,0.2,0.7,0.3,1.4,0.3H58c0.2,0,0.3,0,0.3-0.1c0-0.1-0.1-0.1-0.2-0.1c-0.1,0-0.2,0-0.3,0
			c-0.2,0-0.7-0.1-1.4-0.8c-0.8-0.8-1.7-1.9-2.9-3.3c1.3-1,1.8-1.8,1.8-2.8c0-0.8-0.6-1.5-0.9-1.7c-0.7-0.5-1.6-0.5-2.5-0.5
			c-0.4,0-1.6,0-2,0c-0.3,0-1.1,0-1.8,0c-0.2,0-0.3,0-0.3,0.1s0.1,0.1,0.2,0.1c0.2,0,0.4,0,0.5,0c0.4,0.1,0.5,0.3,0.6,0.7
			c0,0.4,0,0.8,0,2.7L49.2,145.4L49.2,145.4z M50.8,140.4c0-0.1,0-0.1,0.1-0.2c0.1,0,0.4,0,0.8,0c0.8,0,2,0.5,2,2.2
			c0,1-0.4,1.6-0.8,1.9c-0.2,0.2-0.4,0.2-0.9,0.2c-0.3,0-0.7,0-1-0.1c-0.1,0-0.1-0.1-0.1-0.2L50.8,140.4L50.8,140.4z"/>
		<path class="st7" d="M60.5,149.2c0.7,0,1.6-0.1,2.2-0.5c1-0.7,1.3-1.4,1.3-2.4c0-1.1-0.5-2.1-2.2-3.1l-0.5-0.3
			c-1.2-0.7-1.4-1.1-1.4-1.7c0-0.9,0.8-1.3,1.8-1.3c0.8,0,1.3,0.4,1.4,0.6c0.3,0.3,0.3,0.7,0.3,0.8c0,0.1,0,0.2,0.1,0.2
			c0.1,0,0.2-0.1,0.2-0.4c0-1,0-1.3,0-1.5c0-0.1-0.1-0.1-0.2-0.2c-0.3-0.1-1-0.2-1.8-0.2c-1.8,0-3.3,1-3.3,2.5c0,1.1,0.5,1.9,2,2.9
			l0.8,0.4c1.2,0.7,1.3,1.2,1.3,1.8c0,0.9-0.7,1.6-1.8,1.6c-0.8,0-1.8-0.3-2.1-1.2c-0.1-0.2-0.1-0.5-0.1-0.7c0-0.1,0-0.2-0.1-0.2
			c-0.1,0-0.2,0.1-0.2,0.3c0,0.2-0.1,1-0.1,1.7c0,0.3,0,0.3,0.3,0.4C59,149.1,59.8,149.2,60.5,149.2L60.5,149.2z"/>
		<path class="st7" d="M68.7,143.6C68.6,143.6,68.6,143.6,68.7,143.6l-0.1-0.4c0-1.9,0-2.4,0-2.8c0-0.4,0.1-0.6,0.5-0.7
			c0.1,0,0.3,0,0.4,0c0.2,0,0.2,0,0.2-0.1c0-0.1-0.1-0.1-0.3-0.1c-0.5,0-1.4,0-1.7,0c-0.4,0-1.2,0-1.9,0c-0.2,0-0.3,0-0.3,0.1
			s0.1,0.1,0.2,0.1c0.2,0,0.4,0,0.5,0c0.4,0.1,0.5,0.3,0.6,0.7c0,0.4,0,0.8,0,2.7v2.2c0,1.2,0,2.1-0.1,2.7c0,0.4-0.1,0.6-0.4,0.7
			c-0.1,0-0.3,0-0.5,0c-0.2,0-0.2,0.1-0.2,0.1c0,0.1,0.1,0.1,0.3,0.1c0.5,0,1.4,0,1.7,0c0.4,0,1.3,0,2.1,0c0.2,0,0.3,0,0.3-0.1
			c0-0.1-0.1-0.1-0.2-0.1c-0.2,0-0.5,0-0.7,0c-0.4-0.1-0.5-0.3-0.5-0.7c-0.1-0.6-0.1-1.5-0.1-2.7v-1c0-0.1,0-0.1,0.1-0.1h4.9
			c0,0,0.1,0,0.1,0.1v1c0,1.2,0,2.1-0.1,2.6c0,0.4-0.1,0.6-0.4,0.7c-0.1,0-0.3,0-0.5,0c-0.1,0-0.2,0.1-0.2,0.1
			c0,0.1,0.1,0.1,0.3,0.1c0.5,0,1.4,0,1.7,0c0.4,0,1.2,0,2.1,0c0.2,0,0.3,0,0.3-0.1c0-0.1-0.1-0.1-0.2-0.1c-0.2,0-0.5,0-0.7,0
			c-0.4-0.1-0.5-0.3-0.5-0.7c-0.1-0.6-0.1-1.5-0.1-2.7v-2.2c0-1.9,0-2.3,0-2.7c0-0.4,0.1-0.6,0.5-0.7c0.2,0,0.3,0,0.4,0
			c0.1,0,0.2,0,0.2-0.1c0-0.1-0.1-0.1-0.3-0.1c-0.5,0-1.4,0-1.7,0c-0.3,0-1.3,0-1.9,0c-0.2,0-0.3,0-0.3,0.1s0.1,0.1,0.2,0.1
			c0.2,0,0.4,0,0.5,0c0.4,0.1,0.5,0.3,0.6,0.7c0,0.4,0,0.9,0,2.8v0.3c0,0.1,0,0.1-0.1,0.1L68.7,143.6L68.7,143.6z"/>
		<path class="st7" d="M79.7,145.4c0,1.2,0,2.2-0.1,2.7c0,0.4-0.1,0.6-0.4,0.6c-0.1,0-0.3,0-0.5,0c-0.2,0-0.2,0.1-0.2,0.1
			c0,0.1,0.1,0.1,0.3,0.1c0.5,0,1.4,0,1.7,0c0.4,0,1.2,0,2.1,0c0.1,0,0.3,0,0.3-0.1c0-0.1-0.1-0.1-0.2-0.1c-0.2,0-0.5,0-0.7,0
			c-0.4-0.1-0.5-0.3-0.5-0.6c-0.1-0.5-0.1-1.5-0.1-2.8v-2.2c0-1.9,0-2.3,0-2.7c0-0.4,0.1-0.6,0.5-0.7c0.1,0,0.3,0,0.4,0
			c0.1,0,0.2,0,0.2-0.1c0-0.1-0.1-0.1-0.3-0.1c-0.5,0-1.3,0-1.7,0c-0.4,0-1.3,0-1.7,0c-0.2,0-0.3,0-0.3,0.1c0,0.1,0.1,0.1,0.2,0.1
			c0.2,0,0.3,0,0.5,0.1c0.3,0.1,0.4,0.2,0.4,0.7c0,0.4,0,0.8,0,2.7L79.7,145.4L79.7,145.4z"/>
		<path class="st7" d="M85.7,145.4c0,1.2,0,2.1-0.1,2.7c0,0.4-0.1,0.6-0.4,0.7c-0.1,0-0.3,0-0.5,0c-0.2,0-0.2,0.1-0.2,0.1
			c0,0.1,0.1,0.1,0.3,0.1c0.5,0,1.3,0,1.6,0c0.3,0,1.3,0,2.1,0c0.1,0,0.2,0,0.2-0.1c0-0.1-0.1-0.1-0.2-0.1c-0.2,0-0.5,0-0.7,0
			c-0.4-0.1-0.5-0.3-0.5-0.7c-0.1-0.6-0.1-1.5-0.1-2.7v-5c0-0.1,0-0.2,0.1-0.2c0.1,0,0.4-0.1,0.6-0.1c0.3,0,0.8,0.1,1.3,0.5
			c0.7,0.6,0.8,1.4,0.8,1.9c0,1.3-1,2-1.7,2c-0.3,0-0.4,0.1-0.4,0.2c0,0.1,0.1,0.1,0.2,0.1c0.1,0,0.3,0,0.4,0c1.8,0,3.3-1.3,3.3-3.1
			c0-0.7-0.4-1.2-0.7-1.5c-0.2-0.2-0.8-0.7-2.4-0.7c-0.6,0-1.6,0-2.2,0c-0.4,0-1.2,0-1.9,0c-0.2,0-0.3,0-0.3,0.1s0.1,0.1,0.2,0.1
			c0.2,0,0.4,0,0.5,0c0.4,0.1,0.5,0.3,0.6,0.7c0,0.4,0,0.8,0,2.7L85.7,145.4L85.7,145.4z"/>
		<path class="st7" d="M2.3,129.8c0,1.4,0,2.5-0.1,3.2c-0.1,0.4-0.1,0.8-0.4,0.8c-0.1,0-0.3,0.1-0.5,0.1c-0.2,0-0.2,0-0.2,0.1
			c0,0.1,0.1,0.1,0.3,0.1c0.3,0,0.7,0,1,0c0.4,0,0.7,0,0.8,0c0.4,0,0.9,0,1.5,0c0.6,0,1.4,0,2.6,0c0.6,0,0.7,0,0.8-0.4
			c0.1-0.3,0.2-1.3,0.2-1.6c0-0.1,0-0.3-0.1-0.3C8,131.8,8,131.9,8,132c-0.1,0.6-0.3,0.9-0.7,1.1c-0.4,0.2-1,0.2-1.4,0.2
			c-1.5,0-1.7-0.2-1.8-1.2c0-0.4,0-1.8,0-2.3v-1.2c0-0.1,0-0.1,0.1-0.1c0.4,0,1.8,0,2.1,0c0.6,0.1,0.8,0.3,0.8,0.6
			c0,0.2,0,0.4,0.1,0.5c0,0.1,0,0.1,0.1,0.1c0.1,0,0.1-0.2,0.1-0.3c0-0.1,0-0.7,0.1-1c0.1-0.8,0.1-1,0.1-1.1s0-0.1-0.1-0.1
			c-0.1,0-0.1,0.1-0.2,0.2c-0.1,0.1-0.4,0.2-0.7,0.2c-0.3,0-2,0-2.4,0c-0.1,0-0.1-0.1-0.1-0.2v-3.7c0-0.1,0-0.1,0.1-0.1
			c0.3,0,1.8,0,2.1,0.1c0.7,0.1,0.9,0.3,1,0.5c0.1,0.2,0.1,0.4,0.1,0.5c0,0.1,0,0.2,0.1,0.2c0.1,0,0.1-0.1,0.1-0.2
			c0-0.2,0.1-0.8,0.1-1c0-0.7,0.1-0.9,0.1-1c0-0.1,0-0.1-0.1-0.1s-0.2,0-0.2,0.1c-0.1,0-0.4,0.1-0.6,0.1c-0.3,0-3.2,0-3.7,0
			c-0.2,0-0.6,0-0.9,0c-0.4,0-0.8,0-1.2,0c-0.2,0-0.3,0-0.3,0.1s0.1,0.1,0.3,0.1c0.2,0,0.5,0,0.6,0c0.5,0.1,0.6,0.3,0.6,0.8
			c0,0.5,0,0.9,0,3.1L2.3,129.8L2.3,129.8z"/>
		<path class="st7" d="M11.7,127.2L11.7,127.2c0.3,0.2,1.7,1.7,3.1,3.1c1.4,1.3,3,2.9,3.8,3.6c0.1,0.1,0.3,0.3,0.5,0.3
			c0.1,0,0.2-0.1,0.2-0.4l0.1-7.9c0-0.7,0.1-0.9,0.5-1c0.2,0,0.3,0,0.4,0c0.1,0,0.2-0.1,0.2-0.1c0-0.1-0.1-0.1-0.3-0.1
			c-0.6,0-1.1,0-1.3,0c-0.3,0-1,0-1.7,0c-0.2,0-0.3,0-0.3,0.1c0,0.1,0,0.1,0.2,0.1c0.2,0,0.5,0,0.7,0.1c0.3,0.1,0.4,0.3,0.4,1.1
			l0.1,5.6h-0.1c-0.2-0.2-1.9-1.9-2.8-2.8c-1.9-1.8-3.8-3.9-4-4c-0.2-0.2-0.4-0.4-0.6-0.4c-0.1,0-0.2,0.2-0.2,0.4l-0.1,7.5
			c0,1.1-0.1,1.4-0.4,1.5c-0.2,0-0.4,0.1-0.6,0.1c-0.1,0-0.2,0.1-0.2,0.1c0,0.1,0.1,0.1,0.3,0.1c0.7,0,1.3,0,1.4,0
			c0.2,0,0.8,0,1.7,0c0.2,0,0.3,0,0.3-0.1c0-0.1-0.1-0.1-0.2-0.1c-0.2,0-0.5,0-0.7-0.1c-0.3-0.1-0.4-0.4-0.4-1.4L11.7,127.2
			L11.7,127.2z"/>
		<path class="st7" d="M25.5,133.5c0.3,0.6,0.4,0.8,0.5,0.8c0.2,0,0.3-0.2,0.6-0.9c0.3-0.6,0.9-2,1.7-3.9c0.7-1.5,1.1-2.2,1.6-3.4
			c0.3-0.8,0.5-1,0.7-1.1c0.2-0.2,0.5-0.1,0.6-0.1s0.2,0,0.2-0.1c0-0.1-0.1-0.1-0.3-0.1c-0.4,0-1,0-1.2,0c-0.2,0-0.7,0-1.4,0
			c-0.3,0-0.4,0-0.4,0.1c0,0.1,0.1,0.1,0.2,0.1c0.2,0,0.4,0,0.5,0.1c0.1,0,0.2,0.1,0.2,0.2c0,0.1-0.1,0.3-0.1,0.5
			c-0.3,0.8-2,4.9-2.5,6.2h0l-2.2-5.6c-0.2-0.4-0.3-0.8-0.3-1c0-0.1,0-0.2,0.1-0.3c0.1-0.1,0.3-0.1,0.5-0.1c0.1,0,0.2,0,0.2-0.1
			c0-0.1-0.1-0.1-0.3-0.1c-0.7,0-1.3,0-1.7,0c-0.5,0-1.2,0-1.9,0c-0.2,0-0.3,0-0.3,0.1c0,0.1,0,0.1,0.1,0.1c0.1,0,0.3,0,0.5,0
			c0.5,0.1,0.7,0.2,1,0.9L25.5,133.5L25.5,133.5z"/>
		<path class="st7" d="M32.9,130.4c0,1.2,0,2.2-0.1,2.7c0,0.4-0.1,0.6-0.4,0.6c-0.1,0-0.3,0-0.5,0c-0.2,0-0.2,0.1-0.2,0.1
			c0,0.1,0.1,0.1,0.3,0.1c0.5,0,1.4,0,1.7,0c0.4,0,1.2,0,2.1,0c0.1,0,0.3,0,0.3-0.1c0-0.1-0.1-0.1-0.2-0.1c-0.2,0-0.5,0-0.7,0
			c-0.4-0.1-0.5-0.3-0.5-0.6c-0.1-0.5-0.1-1.5-0.1-2.8v-2.2c0-1.9,0-2.3,0-2.7c0-0.4,0.1-0.6,0.5-0.7c0.1,0,0.3,0,0.4,0
			c0.1,0,0.2,0,0.2-0.1c0-0.1-0.1-0.1-0.3-0.1c-0.5,0-1.3,0-1.7,0c-0.4,0-1.3,0-1.7,0c-0.2,0-0.3,0-0.3,0.1c0,0.1,0.1,0.1,0.2,0.1
			c0.2,0,0.3,0,0.5,0.1c0.3,0.1,0.4,0.2,0.4,0.7c0,0.4,0,0.8,0,2.7L32.9,130.4L32.9,130.4z"/>
		<path class="st7" d="M38.9,130.4c0,1.2,0,2.1-0.1,2.7c0,0.4-0.1,0.6-0.4,0.7c-0.1,0-0.3,0-0.5,0c-0.2,0-0.2,0.1-0.2,0.1
			c0,0.1,0.1,0.1,0.3,0.1c0.5,0,1.3,0,1.6,0c0.2,0,1.3,0,2,0c0.2,0,0.3,0,0.3-0.1c0-0.1-0.1-0.1-0.2-0.1c-0.2,0-0.4,0-0.6,0
			c-0.4-0.1-0.5-0.3-0.5-0.7c-0.1-0.5-0.1-1.5-0.1-2.7v-0.2c0-0.1,0-0.1,0.1-0.1l1.2,0c0.1,0,0.2,0,0.2,0.1c0.2,0.2,0.7,1,1.2,1.7
			c0.7,1,1.2,1.6,1.8,1.8c0.3,0.2,0.7,0.3,1.4,0.3h1.2c0.2,0,0.3,0,0.3-0.1c0-0.1-0.1-0.1-0.2-0.1c-0.1,0-0.2,0-0.3,0
			c-0.2,0-0.7-0.1-1.4-0.8c-0.8-0.8-1.7-1.9-2.9-3.3c1.3-1,1.8-1.8,1.8-2.8c0-0.8-0.6-1.5-0.9-1.7c-0.7-0.5-1.6-0.5-2.5-0.5
			c-0.4,0-1.6,0-2,0c-0.3,0-1.1,0-1.8,0c-0.2,0-0.3,0-0.3,0.1c0,0.1,0.1,0.1,0.2,0.1c0.2,0,0.4,0,0.5,0c0.4,0.1,0.5,0.3,0.6,0.7
			c0,0.4,0,0.8,0,2.7L38.9,130.4L38.9,130.4z M40.6,125.4c0-0.1,0-0.1,0.1-0.2c0.1,0,0.4,0,0.8,0c0.8,0,2,0.5,2,2.2
			c0,1-0.4,1.6-0.8,1.9c-0.2,0.2-0.4,0.2-0.9,0.2c-0.3,0-0.7,0-1-0.1c-0.1,0-0.1-0.1-0.1-0.2L40.6,125.4L40.6,125.4z"/>
		<path class="st7" d="M52.9,134.2c3.4,0,5.5-2.3,5.5-5.1s-2-4.7-5.3-4.7c-4,0-5.5,2.8-5.5,4.9C47.6,131.5,49.1,134.2,52.9,134.2
			L52.9,134.2z M53.5,133.5c-2.5,0-3.9-2-3.9-4.6c0-3.1,1.7-3.9,3.2-3.9c2.1,0,3.8,1.7,3.8,4.5C56.4,133.1,54.4,133.5,53.5,133.5
			L53.5,133.5z"/>
		<path class="st7" d="M61.5,127.2L61.5,127.2c0.3,0.2,1.7,1.7,3.1,3.1c1.4,1.3,3,2.9,3.8,3.6c0.1,0.1,0.3,0.3,0.5,0.3
			c0.1,0,0.2-0.1,0.2-0.4l0.1-7.9c0-0.7,0.1-0.9,0.5-1c0.2,0,0.3,0,0.4,0c0.1,0,0.2-0.1,0.2-0.1c0-0.1-0.1-0.1-0.3-0.1
			c-0.6,0-1.1,0-1.3,0c-0.3,0-1,0-1.7,0c-0.2,0-0.3,0-0.3,0.1c0,0.1,0,0.1,0.2,0.1c0.2,0,0.5,0,0.7,0.1c0.3,0.1,0.4,0.3,0.4,1.1
			l0.1,5.6h-0.1c-0.2-0.2-1.9-1.9-2.8-2.8c-1.9-1.8-3.8-3.9-4-4c-0.2-0.2-0.4-0.4-0.6-0.4c-0.1,0-0.2,0.2-0.2,0.4l-0.1,7.5
			c0,1.1-0.1,1.4-0.4,1.5c-0.2,0-0.4,0.1-0.6,0.1c-0.1,0-0.2,0.1-0.2,0.1c0,0.1,0.1,0.1,0.3,0.1c0.7,0,1.3,0,1.4,0
			c0.2,0,0.8,0,1.7,0c0.2,0,0.3,0,0.3-0.1c0-0.1-0.1-0.1-0.2-0.1c-0.2,0-0.5,0-0.7-0.1c-0.3-0.1-0.4-0.4-0.4-1.4L61.5,127.2
			L61.5,127.2z"/>
		<path class="st7" d="M72.5,132.8c-0.1,0.4-0.2,0.9-0.5,1c-0.2,0-0.3,0-0.4,0c-0.1,0-0.2,0.1-0.2,0.1c0,0.1,0.1,0.1,0.2,0.1
			c0.4,0,1,0,1.3,0c0.2,0,0.8,0,1.4,0c0.2,0,0.3,0,0.3-0.1c0-0.1-0.1-0.1-0.2-0.1c-0.1,0-0.2,0-0.5-0.1c-0.2,0-0.4-0.1-0.4-0.4
			c0-0.2,0-0.4,0-0.6l0.6-4.9h0c0.4,0.9,1.2,2.5,1.3,2.7c0.1,0.4,1.2,2.3,1.5,2.9c0.2,0.4,0.4,0.6,0.5,0.6c0.1,0,0.2-0.1,0.5-0.7
			l2.8-5.6h0l0.7,5.4c0,0.4,0,0.5-0.1,0.5c-0.1,0-0.1,0.1-0.1,0.1c0,0.1,0.1,0.1,0.4,0.1c0.5,0,2.4,0.1,2.7,0.1c0.2,0,0.3,0,0.3-0.1
			c0-0.1-0.1-0.1-0.2-0.1c-0.2,0-0.4,0-0.7-0.1c-0.4-0.1-0.5-0.5-0.6-1.2l-1.2-7.8c0-0.3-0.2-0.4-0.3-0.4c-0.1,0-0.2,0.1-0.3,0.3
			l-3.5,7.1l-3.5-7c-0.2-0.3-0.3-0.4-0.4-0.4c-0.1,0-0.2,0.1-0.3,0.3L72.5,132.8L72.5,132.8z"/>
		<path class="st7" d="M86.9,130.4c0,1.2,0,2.1-0.1,2.7c0,0.4-0.1,0.6-0.4,0.7c-0.1,0-0.3,0-0.5,0c-0.2,0-0.2,0.1-0.2,0.1
			c0,0.1,0.1,0.1,0.3,0.1c0.3,0,0.6,0,0.9,0c0.3,0,0.6,0,0.7,0c0.4,0,0.9,0,1.5,0c0.6,0,1.4,0,2.4,0c0.5,0,0.6,0,0.7-0.3
			c0.1-0.3,0.2-1.1,0.2-1.4c0-0.1,0-0.3-0.1-0.3c-0.1,0-0.1,0.1-0.1,0.2c-0.1,0.5-0.2,0.8-0.6,0.9c-0.3,0.1-0.9,0.2-1.2,0.2
			c-1.3,0-1.7-0.2-1.8-1.1c0-0.4,0-1.4,0-1.9v-1c0-0.1,0-0.1,0.1-0.1c0.3,0,1.8,0,2,0.1c0.5,0,0.7,0.2,0.7,0.5c0,0.2,0,0.3,0,0.5
			c0,0.1,0,0.1,0.1,0.1c0.1,0,0.1-0.2,0.1-0.3c0-0.1,0-0.6,0.1-0.8c0.1-0.6,0.1-0.8,0.1-0.9c0-0.1,0-0.1-0.1-0.1s-0.1,0.1-0.2,0.2
			c-0.1,0.1-0.3,0.2-0.6,0.2c-0.3,0-2,0-2.3,0c-0.1,0-0.1-0.1-0.1-0.1v-3.1c0-0.1,0-0.1,0.1-0.1c0.3,0,1.8,0,2,0.1
			c0.7,0.1,0.8,0.2,0.9,0.5c0.1,0.1,0.1,0.4,0.1,0.5c0,0.1,0,0.2,0.1,0.2c0.1,0,0.1-0.1,0.1-0.2c0-0.1,0.1-0.7,0.1-0.8
			c0-0.6,0.1-0.7,0.1-0.8c0-0.1,0-0.1-0.1-0.1c-0.1,0-0.1,0-0.2,0.1c-0.1,0-0.3,0.1-0.6,0.1c-0.3,0-3.1,0-3.6,0c-0.4,0-1.2,0-1.9,0
			c-0.2,0-0.3,0-0.3,0.1s0.1,0.1,0.2,0.1c0.2,0,0.4,0,0.5,0c0.4,0.1,0.5,0.3,0.6,0.7c0,0.4,0,0.8,0,2.7L86.9,130.4L86.9,130.4z"/>
		<path class="st7" d="M95.8,127.2L95.8,127.2c0.3,0.2,1.7,1.7,3.1,3.1c1.4,1.3,3,2.9,3.8,3.6c0.1,0.1,0.3,0.3,0.5,0.3
			c0.1,0,0.2-0.1,0.2-0.4l0.1-7.9c0-0.7,0.1-0.9,0.5-1c0.2,0,0.3,0,0.4,0c0.1,0,0.2-0.1,0.2-0.1c0-0.1-0.1-0.1-0.3-0.1
			c-0.6,0-1.1,0-1.3,0c-0.3,0-1,0-1.7,0c-0.2,0-0.3,0-0.3,0.1c0,0.1,0,0.1,0.2,0.1c0.2,0,0.5,0,0.7,0.1c0.3,0.1,0.4,0.3,0.4,1.1
			l0.1,5.6h-0.1c-0.2-0.2-1.9-1.9-2.8-2.8c-1.9-1.8-3.8-3.9-4-4c-0.2-0.2-0.4-0.4-0.6-0.4c-0.1,0-0.2,0.2-0.2,0.4l-0.1,7.5
			c0,1.1-0.1,1.4-0.4,1.5c-0.2,0-0.4,0.1-0.6,0.1c-0.1,0-0.2,0.1-0.2,0.1c0,0.1,0.1,0.1,0.3,0.1c0.7,0,1.3,0,1.4,0
			c0.2,0,0.8,0,1.7,0c0.2,0,0.3,0,0.3-0.1c0-0.1-0.1-0.1-0.2-0.1c-0.2,0-0.5,0-0.7-0.1c-0.3-0.1-0.4-0.4-0.4-1.4L95.8,127.2
			L95.8,127.2z"/>
		<path class="st7" d="M109.3,130.4c0,1.2,0,2.1-0.1,2.7c0,0.4-0.1,0.6-0.4,0.7c-0.1,0-0.3,0-0.5,0c-0.2,0-0.2,0.1-0.2,0.1
			c0,0.1,0.1,0.1,0.3,0.1c0.5,0,1.4,0,1.7,0c0.4,0,1.2,0,2.1,0c0.1,0,0.3,0,0.3-0.1c0-0.1-0.1-0.1-0.2-0.1c-0.2,0-0.5,0-0.7,0
			c-0.4-0.1-0.5-0.3-0.5-0.7c-0.1-0.6-0.1-1.5-0.1-2.7v-5.1l1.6,0c1.2,0,1.5,0.4,1.5,0.7l0,0.1c0,0.2,0,0.3,0.1,0.3
			c0.1,0,0.1-0.1,0.1-0.2c0-0.3,0-1.3,0-1.5c0-0.2,0-0.3-0.1-0.3c0,0-0.1,0-0.4,0.1c-0.2,0-0.5,0.1-0.9,0.1H108
			c-0.4,0-0.9,0-1.3-0.1c-0.3,0-0.5-0.1-0.6-0.1c-0.1,0-0.1,0.1-0.1,0.2c0,0.1-0.3,1.3-0.3,1.5c0,0.1,0,0.2,0.1,0.2s0.1-0.1,0.1-0.2
			c0-0.1,0.1-0.3,0.2-0.4c0.2-0.3,0.5-0.4,1.3-0.4l1.9,0L109.3,130.4L109.3,130.4z"/>
		<path class="st7" d="M2.3,114.8c0,1.4,0,2.5-0.1,3.2c-0.1,0.4-0.1,0.8-0.4,0.8c-0.1,0-0.3,0.1-0.5,0.1c-0.2,0-0.2,0-0.2,0.1
			c0,0.1,0.1,0.1,0.3,0.1c0.3,0,0.7,0,1,0c0.4,0,0.7,0,0.8,0c0.2,0,0.7,0,1.1,0c0.4,0,0.9,0,1,0c2.7,0,4-1.6,4-3.2
			c0-1.7-1.5-2.8-2.7-3.2c0.8-0.7,1.5-1.4,1.5-2.6c0-0.8-0.5-2.2-3.2-2.2c-0.5,0-1.1,0-1.8,0c-0.3,0-1.2,0-2,0c-0.2,0-0.3,0-0.3,0.1
			s0.1,0.1,0.3,0.1c0.2,0,0.5,0,0.6,0c0.5,0.1,0.6,0.3,0.6,0.8c0,0.5,0,0.9,0,3.1L2.3,114.8L2.3,114.8z M4.1,108.8
			c0-0.2,0-0.2,0.1-0.3c0.1,0,0.3,0,0.5,0c1.3,0,1.8,1.3,1.8,2.3c0,0.7-0.2,1.3-0.6,1.6c-0.3,0.2-0.6,0.3-1.1,0.3
			c-0.3,0-0.6,0-0.7,0c-0.1,0-0.1,0-0.1-0.2L4.1,108.8L4.1,108.8z M7.4,116.6c0,1.5-1.1,1.9-1.8,1.9c-0.3,0-0.7,0-1.1-0.2
			c-0.5-0.2-0.5-0.4-0.5-1.4v-3.5c0-0.1,0-0.1,0.1-0.1c0.2,0,0.4,0,0.6,0c0.6,0,0.9,0.1,1.2,0.4C7.1,114.4,7.4,115.7,7.4,116.6
			L7.4,116.6z"/>
		<path class="st7" d="M11.9,115.1c0,1.8,0.5,2.8,1.2,3.3c1,0.8,2.3,0.9,3,0.9c0.8,0,1.8-0.1,2.8-0.9c1.1-0.9,1.2-2.4,1.2-3.8v-1.3
			c0-1.9,0-2.3,0-2.7c0-0.4,0.1-0.6,0.5-0.7c0.2,0,0.2,0,0.4,0c0.1,0,0.2,0,0.2-0.1c0-0.1-0.1-0.1-0.3-0.1c-0.5,0-1.4,0-1.5,0
			c0,0-0.9,0-1.6,0c-0.2,0-0.3,0-0.3,0.1c0,0.1,0.1,0.1,0.2,0.1c0.1,0,0.4,0,0.5,0c0.4,0.1,0.5,0.3,0.6,0.7c0,0.4,0,0.8,0,2.7v1.6
			c0,1.3,0,2.4-0.8,3.1c-0.5,0.5-1.2,0.7-1.7,0.7c-0.4,0-1.1,0-1.6-0.5c-0.6-0.5-1-1.2-1-3.1v-1.8c0-1.9,0-2.3,0-2.7
			c0-0.4,0.1-0.6,0.5-0.7c0.2,0,0.2,0,0.4,0c0.1,0,0.2,0,0.2-0.1c0-0.1-0.1-0.1-0.3-0.1c-0.5,0-1.3,0-1.7,0c-0.4,0-1.3,0-1.9,0
			c-0.2,0-0.3,0-0.3,0.1c0,0.1,0.1,0.1,0.2,0.1c0.2,0,0.4,0,0.5,0c0.4,0.1,0.5,0.2,0.6,0.7c0,0.4,0,0.8,0,2.7L11.9,115.1L11.9,115.1
			z"/>
		<path class="st7" d="M23.4,115.4c0,1.2,0,2.2-0.1,2.7c0,0.4-0.1,0.6-0.4,0.6c-0.1,0-0.3,0-0.5,0c-0.2,0-0.2,0.1-0.2,0.1
			c0,0.1,0.1,0.1,0.3,0.1c0.5,0,1.4,0,1.7,0c0.4,0,1.2,0,2.1,0c0.1,0,0.3,0,0.3-0.1c0-0.1-0.1-0.1-0.2-0.1c-0.2,0-0.5,0-0.7,0
			c-0.4-0.1-0.5-0.3-0.5-0.6c-0.1-0.5-0.1-1.5-0.1-2.8v-2.2c0-1.9,0-2.3,0-2.7c0-0.4,0.1-0.6,0.5-0.7c0.1,0,0.3,0,0.4,0
			s0.2,0,0.2-0.1c0-0.1-0.1-0.1-0.3-0.1c-0.5,0-1.3,0-1.7,0c-0.4,0-1.3,0-1.7,0c-0.2,0-0.3,0-0.3,0.1c0,0.1,0.1,0.1,0.2,0.1
			c0.2,0,0.3,0,0.5,0.1c0.3,0.1,0.4,0.2,0.4,0.7c0,0.4,0,0.8,0,2.7L23.4,115.4L23.4,115.4z"/>
		<path class="st7" d="M31.2,113.2c0-1.9,0-2.3,0-2.7c0-0.4,0.1-0.6,0.5-0.7c0.1,0,0.4,0,0.5,0c0.2,0,0.2,0,0.2-0.1
			c0-0.1-0.1-0.1-0.3-0.1c-0.5,0-1.6,0-1.9,0c-0.4,0-1.2,0-1.8,0c-0.2,0-0.3,0-0.3,0.1c0,0.1,0.1,0.1,0.2,0.1c0.2,0,0.3,0,0.4,0
			c0.4,0.1,0.5,0.3,0.6,0.7c0,0.4,0,0.8,0,2.7v2.2c0,1.2,0,2.1-0.1,2.7c0,0.4-0.1,0.6-0.4,0.7c-0.1,0-0.3,0-0.5,0
			c-0.2,0-0.2,0.1-0.2,0.1c0,0.1,0.1,0.1,0.3,0.1c0.3,0,0.6,0,0.9,0c0.3,0,0.6,0,0.7,0c0.5,0,1.1,0,1.7,0c0.7,0,1.4,0,2.3,0
			c0.7,0,0.7-0.1,0.8-0.3c0.1-0.4,0.2-1.3,0.2-1.4c0-0.1,0-0.3-0.1-0.3c-0.1,0-0.1,0.1-0.1,0.2c0,0.2-0.2,0.6-0.3,0.8
			c-0.3,0.3-0.8,0.4-1.5,0.4c-1,0-1.5-0.1-1.7-0.3c-0.3-0.2-0.3-1-0.3-2.6L31.2,113.2L31.2,113.2z"/>
		<path class="st7" d="M38.6,115.4c0,1.2,0,2.1-0.1,2.7c0,0.4-0.1,0.6-0.4,0.7c-0.1,0-0.3,0-0.5,0c-0.2,0-0.2,0.1-0.2,0.1
			c0,0.1,0.1,0.1,0.3,0.1c0.5,0,1.4,0,1.7,0c0.4,0,1.2,0,2.1,0c0.1,0,0.3,0,0.3-0.1c0-0.1-0.1-0.1-0.2-0.1c-0.2,0-0.5,0-0.7,0
			c-0.4-0.1-0.5-0.3-0.5-0.7c-0.1-0.6-0.1-1.5-0.1-2.7v-5.1l1.6,0c1.2,0,1.5,0.4,1.5,0.7l0,0.1c0,0.2,0,0.3,0.1,0.3
			c0.1,0,0.1-0.1,0.1-0.2c0-0.3,0-1.3,0-1.5c0-0.2,0-0.3-0.1-0.3c0,0-0.1,0-0.4,0.1c-0.2,0-0.5,0.1-0.9,0.1h-5.3
			c-0.4,0-0.9,0-1.3-0.1c-0.3,0-0.5-0.1-0.6-0.1c-0.1,0-0.1,0.1-0.1,0.2c0,0.1-0.3,1.3-0.3,1.5c0,0.1,0,0.2,0.1,0.2
			c0.1,0,0.1-0.1,0.1-0.2c0-0.1,0.1-0.3,0.2-0.4c0.2-0.3,0.5-0.4,1.3-0.4l1.9,0L38.6,115.4L38.6,115.4z"/>
		<path class="st11" d="M108.7,143.4c-0.5,0.6-1,1.2-1.6,1.8c-0.6,0.6-1.1,1.1-1.7,1.6c-0.6,0.5-1.2,0.9-1.8,1.2
			c-0.6,0.3-1.1,0.4-1.6,0.4c-0.4,0-0.7-0.1-0.9-0.3s-0.3-0.5-0.3-0.8c0-0.3,0.1-0.7,0.3-1.2c0.2-0.5,0.5-1,0.8-1.6
			c-0.3,0.4-0.6,0.7-1,1.1c-0.4,0.4-0.7,0.8-1.1,1.1c-0.4,0.3-0.8,0.6-1.1,0.8c-0.4,0.2-0.7,0.3-1,0.3c-0.4,0-0.7-0.2-0.7-0.7
			c0-0.5,0.2-1.1,0.6-1.8s0.9-1.4,1.5-2.1c0.7-0.7,1.4-1.3,2.2-1.8c0.8-0.5,1.7-0.8,2.6-0.8c0.1-0.2,0.2-0.4,0.3-0.4
			c0.1-0.1,0.2-0.1,0.3-0.2l0.9-0.3l0.1,0c-0.1,0.1-0.2,0.2-0.3,0.4c-0.1,0.1-0.2,0.3-0.3,0.5c0.1,0,0.3,0,0.5,0s0.4,0,0.5,0.1
			c0.1,0,0.2,0.1,0.2,0.2c0,0.1,0,0.1-0.1,0.1c-0.1,0-0.3-0.1-0.6-0.1s-0.4,0-0.6,0c-1,1.7-1.7,3.1-2.2,4.1c-0.4,1-0.7,1.7-0.7,2.2
			c0,0.2,0,0.3,0.1,0.5c0.1,0.1,0.3,0.2,0.6,0.2c0.3,0,0.7-0.1,1.2-0.3c0.5-0.3,1-0.6,1.5-1c0.5-0.4,1.1-1,1.6-1.5
			c0.6-0.6,1.1-1.2,1.6-1.8c0-0.1,0.1-0.1,0.1,0C108.6,143.3,108.7,143.4,108.7,143.4L108.7,143.4z M103.7,141
			c-0.7,0-1.4,0.3-2.1,0.8c-0.7,0.5-1.2,1.1-1.7,1.8c-0.5,0.7-0.9,1.4-1.2,2c-0.3,0.7-0.4,1.2-0.4,1.5c0,0.2,0.1,0.3,0.2,0.3
			s0.3-0.1,0.6-0.3c0.3-0.2,0.6-0.4,0.9-0.7c0.3-0.3,0.7-0.6,1-1c0.4-0.4,0.7-0.8,1-1.2c0.3-0.5,0.7-1,1-1.6S103.5,141.5,103.7,141
			L103.7,141L103.7,141z"/>
		<path class="st11" d="M121.4,141.2c-0.3,0.1-0.6,0.2-1,0.3c-0.4,0.1-0.8,0.1-1.3,0.2c-0.4,0.1-0.8,0.1-1.2,0.2
			c-0.4,0-0.7,0.1-0.9,0.1c-0.1,0-0.2,0.1-0.2,0.2c0,0.1,0,0.2,0,0.3c0,0.6-0.1,1.2-0.3,1.8c-0.1,0.6-0.3,1.2-0.6,1.7
			c-0.2,0.5-0.5,1-0.8,1.5c-0.3,0.4-0.6,0.8-0.9,1c-0.4,0.3-0.7,0.6-1.1,0.7c-0.3,0.2-0.7,0.3-1.2,0.3c-0.6,0-1-0.2-1.3-0.5
			s-0.5-0.8-0.5-1.3c0-0.2,0-0.5,0.1-0.7c-0.4,0.2-0.8,0.5-1.3,0.7c-0.5,0.2-1,0.3-1.4,0.3c-0.3,0-0.5-0.1-0.6-0.2
			c-0.1-0.2-0.2-0.4-0.2-0.7c0-0.4,0.1-0.8,0.3-1.3c0.2-0.5,0.5-1,0.8-1.5c0.3-0.5,0.6-1,0.9-1.4c0.3-0.4,0.5-0.7,0.7-0.9
			c0.1-0.1,0.1-0.2,0.2-0.3c0.1-0.1,0.2-0.2,0.3-0.2c0.2,0,0.4-0.1,0.6-0.1c0.2-0.1,0.4-0.1,0.5-0.1c0.1,0,0.1,0,0.1,0.1
			c0,0-0.1,0.1-0.2,0.1c-0.1,0-0.3,0.2-0.4,0.3c-0.3,0.3-0.6,0.8-1,1.3c-0.3,0.5-0.6,1-0.8,1.5c-0.3,0.5-0.5,1-0.6,1.4
			c-0.1,0.4-0.2,0.8-0.2,1c0,0.1,0,0.2,0.1,0.3c0.1,0.1,0.2,0.2,0.3,0.2c0.1,0,0.3-0.1,0.6-0.2c0.3-0.1,0.8-0.3,1.3-0.7
			c0.2-0.8,0.5-1.6,0.9-2.4c0.4-0.8,0.9-1.5,1.4-2.2c0.1-0.1,0.3-0.3,0.5-0.5s0.6-0.3,0.9-0.3c0.2,0,0.3,0.1,0.3,0.2
			c0,0.1,0.1,0.2,0.1,0.3c0,0.1,0,0.3-0.1,0.6c-0.1,0.3-0.2,0.7-0.4,1.1c-0.2,0.4-0.6,0.9-1,1.4c-0.4,0.5-0.9,1-1.6,1.5
			c0,0.3,0,0.6,0.1,0.9c0,0.3,0.1,0.6,0.3,0.8c0.1,0.2,0.3,0.4,0.5,0.6c0.2,0.1,0.5,0.2,0.8,0.2c0.5,0,1-0.2,1.3-0.5
			c0.4-0.3,0.7-0.8,0.9-1.3c0.3-0.5,0.4-1.1,0.6-1.7c0.1-0.6,0.2-1.2,0.2-1.8c0-0.5,0-0.9-0.1-1.2c0-0.3-0.2-0.5-0.6-0.5
			c-0.1-0.1-0.1-0.1,0-0.2c0.1,0,0.3,0,0.5-0.1c0.2-0.1,0.3-0.2,0.4-0.2c0,0,0.1,0,0.1,0.1c0,0,0.1,0.1,0.3,0.2
			c0.1,0,0.4,0.1,0.6,0.2c0.3,0,0.7,0.1,1.2,0.1c0.6,0,1.2,0,1.9-0.1c0.6-0.1,1.1-0.2,1.3-0.3c0.1,0,0.1,0,0.2,0.1
			C121.6,141.1,121.6,141.1,121.4,141.2L121.4,141.2z M113.5,142.1c0,0,0-0.1-0.1-0.3c0-0.1-0.1-0.2-0.2-0.2c-0.1,0-0.3,0.1-0.4,0.3
			s-0.4,0.4-0.6,0.8c-0.2,0.3-0.4,0.8-0.6,1.3c-0.2,0.5-0.3,1.1-0.4,1.8c0.8-0.7,1.4-1.3,1.8-2C113.3,143.1,113.5,142.5,113.5,142.1
			L113.5,142.1z"/>
		<path class="st11" d="M129.6,143.4c-0.5,0.6-1,1.2-1.6,1.8c-0.6,0.6-1.1,1.1-1.7,1.6c-0.6,0.5-1.2,0.9-1.8,1.2
			c-0.6,0.3-1.1,0.4-1.6,0.4c-0.4,0-0.7-0.1-0.9-0.3s-0.3-0.5-0.3-0.8c0-0.3,0.1-0.7,0.3-1.2c0.2-0.5,0.5-1,0.8-1.6
			c-0.3,0.4-0.6,0.7-1,1.1c-0.4,0.4-0.7,0.8-1.1,1.1c-0.4,0.3-0.8,0.6-1.1,0.8c-0.4,0.2-0.7,0.3-1,0.3c-0.4,0-0.7-0.2-0.7-0.7
			c0-0.5,0.2-1.1,0.6-1.8c0.4-0.7,0.9-1.4,1.5-2.1c0.7-0.7,1.4-1.3,2.2-1.8c0.8-0.5,1.7-0.8,2.6-0.8c0.1-0.2,0.2-0.4,0.3-0.4
			c0.1-0.1,0.2-0.1,0.3-0.2l0.9-0.3l0.1,0c-0.1,0.1-0.2,0.2-0.3,0.4c-0.1,0.1-0.2,0.3-0.3,0.5c0.1,0,0.3,0,0.5,0
			c0.2,0,0.4,0,0.5,0.1c0.1,0,0.2,0.1,0.2,0.2c0,0.1,0,0.1-0.1,0.1c-0.1,0-0.3-0.1-0.6-0.1c-0.3,0-0.4,0-0.6,0
			c-1,1.7-1.7,3.1-2.2,4.1c-0.4,1-0.7,1.7-0.7,2.2c0,0.2,0,0.3,0.1,0.5c0.1,0.1,0.3,0.2,0.6,0.2c0.3,0,0.7-0.1,1.2-0.3
			c0.5-0.3,1-0.6,1.5-1c0.5-0.4,1.1-1,1.6-1.5c0.6-0.6,1.1-1.2,1.6-1.8c0-0.1,0.1-0.1,0.1,0C129.6,143.3,129.6,143.4,129.6,143.4
			L129.6,143.4z M124.7,141c-0.7,0-1.4,0.3-2.1,0.8c-0.7,0.5-1.2,1.1-1.7,1.8c-0.5,0.7-0.9,1.4-1.2,2c-0.3,0.7-0.4,1.2-0.4,1.5
			c0,0.2,0.1,0.3,0.2,0.3c0.1,0,0.3-0.1,0.6-0.3c0.3-0.2,0.6-0.4,0.9-0.7c0.3-0.3,0.7-0.6,1-1c0.4-0.4,0.7-0.8,1-1.2
			c0.3-0.5,0.7-1,1-1.6C124.2,142,124.5,141.5,124.7,141L124.7,141L124.7,141z"/>
		<path class="st11" d="M134.7,141.3c-0.1,0.1-0.3,0.3-0.4,0.5c-0.1,0.2-0.2,0.4-0.3,0.5c0,0.1-0.1,0.1-0.1,0.1c0,0-0.1,0-0.1-0.1
			c0-0.1-0.1-0.1-0.2-0.2c-0.1-0.1-0.2-0.2-0.3-0.2c-0.1-0.1-0.3-0.1-0.5-0.1c-0.3,0-0.6,0.1-0.9,0.3c-0.3,0.2-0.6,0.4-0.9,0.6
			c-0.4,0.3-0.8,0.7-1.1,1.1c-0.3,0.4-0.6,0.8-0.9,1.3c-0.3,0.4-0.5,0.9-0.8,1.3c-0.3,0.4-0.5,0.9-0.8,1.4c0,0.1-0.1,0.1-0.2,0.1
			c0,0-0.1-0.1-0.3-0.2c-0.1-0.1-0.2-0.2-0.2-0.3c0-0.1,0.1-0.3,0.2-0.6c0.3-0.6,0.7-1.2,1-1.8c0.4-0.6,0.7-1.2,1-1.7
			c0.3-0.5,0.6-1,0.8-1.4c0.2-0.4,0.4-0.7,0.5-0.9c0.1-0.2,0.2-0.3,0.2-0.3c0,0,0.1,0.1,0.3,0.2c0.2,0.1,0.3,0.3,0.3,0.4
			c0,0.1,0,0.2-0.1,0.3c-0.1,0.1-0.1,0.3-0.3,0.5c-0.1,0.1-0.2,0.3-0.3,0.4c-0.1,0.1-0.1,0.3-0.2,0.3c-0.1,0.1-0.1,0.2,0,0.2
			s0.1,0,0.2-0.1c0.2-0.2,0.5-0.4,0.8-0.7c0.3-0.3,0.6-0.5,1-0.7c0.3-0.2,0.7-0.4,1-0.6c0.3-0.1,0.6-0.2,0.9-0.2
			c0.2,0,0.3,0.1,0.5,0.2C134.7,141.1,134.7,141.2,134.7,141.3L134.7,141.3z"/>
		<path class="st11" d="M153.9,126.7c0,0.1-0.1,0.3-0.2,0.4c-0.1,0.1-0.2,0.3-0.3,0.5c0,0.1-0.1,0.2-0.2,0.2c-0.1,0-0.1,0-0.2,0
			c-0.1,0-0.1-0.1-0.3-0.1c-0.1,0-0.2-0.1-0.3-0.1c-0.1,0-0.3-0.1-0.6-0.1c-0.4,0-0.7,0.1-1.1,0.2c-0.4,0.1-0.7,0.2-1,0.4
			c-0.6,0.4-1.2,0.9-1.9,1.6c-0.7,0.7-1.3,1.5-1.9,2.3c-1.4,2-2.7,3.9-3.7,5.7c-1.1,1.8-1.9,3.3-2.7,4.7c-0.7,1.4-1.2,2.6-1.6,3.6
			c-0.4,1-0.5,1.7-0.5,2.2c0,0.4,0.1,0.7,0.2,0.9c0.2,0.2,0.4,0.3,0.8,0.3c0.6,0,1.1-0.2,1.6-0.5c0.5-0.4,1-0.8,1.5-1.3
			c0.5-0.6,0.9-1.1,1.3-1.8c0.4-0.7,0.7-1.3,1-1.8c0-0.1,0.1-0.1,0.2-0.1c0.1,0,0.1,0.1,0,0.3c-0.4,0.8-0.8,1.5-1.2,2.2
			c-0.4,0.7-0.9,1.3-1.4,1.8c-0.5,0.5-1,0.9-1.5,1.2c-0.5,0.3-1,0.4-1.5,0.4c-0.6,0-1-0.2-1.3-0.5c-0.3-0.3-0.4-0.7-0.4-1.2
			c0-0.5,0.1-1,0.3-1.6c0.2-0.6,0.5-1.3,1-2.2c-0.6,0.7-1.1,1.3-1.5,1.8c-0.4,0.5-0.8,0.9-1.2,1.1s-0.6,0.5-0.9,0.6
			c-0.2,0.1-0.4,0.2-0.6,0.2c-0.3,0-0.5-0.1-0.6-0.2c-0.1-0.2-0.2-0.4-0.2-0.6c0-0.2,0.1-0.4,0.2-0.7c0.1-0.3,0.3-0.6,0.4-0.9
			c0.8-1.3,1.6-2.3,2.6-3.1c1-0.8,2.2-1.3,3.6-1.6c1-1.8,2-3.4,2.9-4.8c0.9-1.4,1.9-2.8,3-4.1c0.9-1.1,1.8-2.1,2.7-3
			c0.9-0.9,1.8-1.5,2.8-2c0.7-0.3,1.3-0.5,1.9-0.5c0.3,0,0.5,0,0.6,0.1C153.8,126.6,153.9,126.6,153.9,126.7L153.9,126.7z
			 M139.5,141.3c-0.8,0-1.4,0.2-1.9,0.5c-0.4,0.3-0.8,0.6-1.1,1c-0.8,1-1.4,1.8-1.7,2.6c-0.3,0.7-0.5,1.2-0.5,1.5
			c0,0.1,0,0.2,0.1,0.2c0.1,0,0.1,0.1,0.2,0.1c0.1,0,0.4-0.2,0.8-0.5c0.4-0.3,0.8-0.7,1.3-1.3c0.5-0.6,1-1.2,1.5-1.9
			C138.7,142.8,139.1,142.1,139.5,141.3L139.5,141.3z"/>
		<line class="st12" x1="0.8" y1="153.5" x2="142.1" y2="153.5"/>
	</g>
	<g>
		<linearGradient id="SVGID_7_" gradientUnits="userSpaceOnUse" x1="528.9919" y1="155.5884" x2="528.9919" y2="120.1794">
			<stop  offset="0" style="stop-color:#FFFFFF"/>
			<stop  offset="1" style="stop-color:#000000"/>
		</linearGradient>
		<path class="st13" d="M532.9,137.8c0-1.1-0.2-2.1-0.5-2.8c-0.5-1-1.4-1.6-2.8-1.6c-1.2,0-2.1,0.5-2.7,1.5
			c-0.7,1.7-1.3,5.2-1.7,10.4c0,0.5,0,1.1,0,1.9c0,0.1,0,0.8,0.1,2c0.4,5.1,0.8,8.3,1.4,9.8c0.4,1,1.4,1.6,2.8,1.6
			c1.1,0,2-0.5,2.4-1.6c0.4-0.9,0.5-1.7,0.6-2.3h4.8c-0.1,1.5-0.4,2.9-1,4.3c-1.1,2.6-3.4,4-6.7,4c-3.6,0-6-1.3-7.4-4
			c-0.8-1.7-1.3-5.3-1.6-10.7c0-1.2-0.1-2.3-0.1-3.4c0-1.4,0-2.5,0.1-3.3c0.5-5.6,1.1-9.2,1.8-10.7c1.2-2.6,3.6-3.9,7.2-3.9
			c3.5,0,5.8,1.3,7,3.9c0.5,1.2,0.8,2.5,0.8,4v9h-7.5v-4.1h3L532.9,137.8z"/>
		<linearGradient id="SVGID_8_" gradientUnits="userSpaceOnUse" x1="546.5529" y1="155.1788" x2="546.5529" y2="119.7725">
			<stop  offset="0" style="stop-color:#FFFFFF"/>
			<stop  offset="1" style="stop-color:#000000"/>
		</linearGradient>
		<path class="st14" d="M540.3,128.8h12.6v4.1h-8v31.4h-4.6V128.8z"/>
		<linearGradient id="SVGID_9_" gradientUnits="userSpaceOnUse" x1="561.7412" y1="155.5885" x2="561.7412" y2="120.1794">
			<stop  offset="0" style="stop-color:#FFFFFF"/>
			<stop  offset="1" style="stop-color:#000000"/>
		</linearGradient>
		<path class="st15" d="M561.7,164.9c-3.3,0-5.9-1.6-7-3.9c-1.2-2.8-1.7-7.3-1.7-13.4c0-1.4,0-3,0.2-4.7c0.4-5.1,0.9-8.5,1.6-9.9
			c1.2-2.6,3.5-3.9,6.9-3.9c3.3,0,5.6,1.3,7,3.9c0.6,1.2,1,3,1.3,5.2c0,0,0.1,1.8,0.4,5.3c0,0.8,0.1,1.8,0.1,2.9
			c0,7-0.6,11.9-1.8,14.7C567.6,163.6,565.2,164.9,561.7,164.9z M561.7,133.3c-1.2,0-2,0.4-2.4,1.4c-1,2-1.5,5.5-1.6,10.6
			c0,0.5,0,1.2,0,2c0,1,0,1.8,0,2.4c0.3,4.5,0.8,7.6,1.5,9.4c0.5,1,1.4,1.5,2.6,1.5c1.2,0,2.1-0.5,2.6-1.6c0.7-1.6,1.2-4.7,1.5-9.3
			c0-0.5,0-1.2,0-2.3c0-1.4,0-2,0-2c-0.1-5.1-0.7-8.7-1.6-10.6C563.8,133.8,562.9,133.3,561.7,133.3z"/>
		<linearGradient id="SVGID_10_" gradientUnits="userSpaceOnUse" x1="580.9676" y1="155.1788" x2="580.9676" y2="119.7725">
			<stop  offset="0" style="stop-color:#FFFFFF"/>
			<stop  offset="1" style="stop-color:#000000"/>
		</linearGradient>
		<path class="st16" d="M573.1,164.3v-35.5h7.8c2.8,0,4.7,0.5,5.8,1.6c1.2,1.2,2.2,4.5,2.1,8c0,5.2-1,8.3-3.1,9.5
			c1.7,1,2.6,3.6,2.6,7.7c0,2.9-0.5,5-1.5,6.3c-1.1,1.5-3,2.3-5.6,2.3H573.1z M577.7,160.1h3.6c1.1,0,1.8-0.7,2.1-2
			c0.2-0.7,0.3-1.7,0.3-3.2c0-3.4-0.8-5.1-2.4-5.1h-3.6V160.1z M577.7,145.8h3.9c1.6,0,2.4-2.3,2.4-6.8c0-2.1,0-3.4-0.1-3.8
			c-0.3-1.5-1.1-2.3-2.4-2.3h-3.7V145.8z"/>
		<linearGradient id="SVGID_11_" gradientUnits="userSpaceOnUse" x1="598.8613" y1="155.1788" x2="598.8613" y2="119.7725">
			<stop  offset="0" style="stop-color:#FFFFFF"/>
			<stop  offset="1" style="stop-color:#000000"/>
		</linearGradient>
		<path class="st17" d="M597,164.3l-7.5-35.5h4.7l1.5,5.8h6.5l1.4-5.8h4.7l-7.4,35.5H597z M601.6,138.7h-5.3l2.7,13.7L601.6,138.7z"
			/>
		<linearGradient id="SVGID_12_" gradientUnits="userSpaceOnUse" x1="617.6443" y1="155.1788" x2="617.6443" y2="119.7725">
			<stop  offset="0" style="stop-color:#FFFFFF"/>
			<stop  offset="1" style="stop-color:#000000"/>
		</linearGradient>
		<path class="st18" d="M610.3,128.8H625v4.1h-10.2v31.4h-4.6V128.8z"/>
		<linearGradient id="SVGID_13_" gradientUnits="userSpaceOnUse" x1="630.5145" y1="155.1788" x2="630.5145" y2="119.7396">
			<stop  offset="0" style="stop-color:#FFFFFF"/>
			<stop  offset="1" style="stop-color:#000000"/>
		</linearGradient>
		<path class="st19" d="M626.8,159.3h2.8v-30.5h4.7v35.4l-7.5,0V159.3z"/>
		<linearGradient id="SVGID_14_" gradientUnits="userSpaceOnUse" x1="646.3731" y1="155.7523" x2="646.3731" y2="120.3422">
			<stop  offset="0" style="stop-color:#FFFFFF"/>
			<stop  offset="1" style="stop-color:#000000"/>
		</linearGradient>
		<path class="st20" d="M641.7,163.4c-1.3-1.3-2.2-3.1-2.7-5.4c-0.4-1.7-0.7-4.1-0.8-7.2c0-1.1-0.1-2.3,0-3.6c0-1.4,0-2.8,0.2-4.3
			c0.2-3.3,0.5-5.5,0.7-6.7c0.5-2.4,1.4-4.1,2.7-5.4c1.1-1.1,2.3-1.7,3.6-1.8c0.5,0,0.9-0.1,1.1,0c0.2,0,0.5,0,1.1,0
			c1,0.1,2.1,0.6,3.4,1.6c1.3,1.3,2.3,3.2,2.8,5.8c0.3,1.3,0.6,3.7,0.9,7.1c0.1,0.9,0.1,2.2,0.1,3.7c0,2.2,0,3.4,0,3.6
			c-0.1,3.1-0.4,5.4-0.8,6.9c-0.5,2.1-1.4,4-2.7,5.7c-0.9,0.9-2.2,1.5-3.9,1.7c-0.4,0-0.6,0-0.8,0c-0.2,0-0.5,0-0.8,0
			C644,165.1,642.7,164.4,641.7,163.4z M646.5,133.7c-1.2,0-2,0.7-2.6,2.2c-0.4,1.1-0.8,2.7-0.9,4.8l-0.3,4.8c0,0.4,0,1.1,0,2
			c0,0.5,0,1.3,0.1,2.3l0.2,4.5c0.1,1.9,0.4,3.4,0.8,4.3c0.6,1.3,1.4,2,2.6,2c1.2,0,2-0.7,2.6-2c0.4-1,0.7-2.4,0.8-4.3l0.2-4.5
			c0-1,0.1-1.7,0.1-2.3c0-0.9,0-1.6,0-2l-0.2-4.8c-0.1-2.1-0.4-3.7-0.8-4.8C648.5,134.4,647.7,133.7,646.5,133.7z"/>
		<linearGradient id="SVGID_15_" gradientUnits="userSpaceOnUse" x1="665.1788" y1="155.7523" x2="665.1788" y2="120.3422">
			<stop  offset="0" style="stop-color:#FFFFFF"/>
			<stop  offset="1" style="stop-color:#000000"/>
		</linearGradient>
		<path class="st21" d="M660.5,163.4c-1.3-1.3-2.2-3.1-2.7-5.4c-0.4-1.7-0.7-4.1-0.8-7.2c0-1.1-0.1-2.3,0-3.6c0-1.4,0-2.8,0.2-4.3
			c0.2-3.3,0.5-5.5,0.7-6.7c0.5-2.4,1.4-4.1,2.7-5.4c1.1-1.1,2.3-1.7,3.6-1.8c0.5,0,0.9-0.1,1.1,0c0.2,0,0.5,0,1.1,0
			c1,0.1,2.1,0.6,3.4,1.6c1.3,1.3,2.3,3.2,2.8,5.8c0.3,1.3,0.6,3.7,0.9,7.1c0.1,0.9,0.1,2.2,0.1,3.7c0,2.2,0,3.4,0,3.6
			c-0.1,3.1-0.4,5.4-0.8,6.9c-0.5,2.1-1.4,4-2.8,5.7c-0.9,0.9-2.2,1.5-3.9,1.7c-0.4,0-0.6,0-0.8,0c-0.2,0-0.5,0-0.8,0
			C662.8,165.1,661.5,164.4,660.5,163.4z M665.3,133.7c-1.2,0-2,0.7-2.6,2.2c-0.4,1.1-0.8,2.7-0.9,4.8l-0.3,4.8c0,0.4,0,1.1,0,2
			c0,0.5,0,1.3,0.1,2.3l0.2,4.5c0.1,1.9,0.4,3.4,0.8,4.3c0.6,1.3,1.4,2,2.6,2c1.2,0,2-0.7,2.6-2c0.4-1,0.7-2.4,0.8-4.3l0.2-4.5
			c0-1,0.1-1.7,0.1-2.3c0-0.9,0-1.6,0-2l-0.2-4.8c-0.1-2.1-0.4-3.7-0.8-4.8C667.3,134.4,666.5,133.7,665.3,133.7z"/>
		<g class="st22">
			<linearGradient id="SVGID_16_" gradientUnits="userSpaceOnUse" x1="487.9159" y1="154.6109" x2="487.9159" y2="119.205">
				<stop  offset="0" style="stop-color:#FFFFFF"/>
				<stop  offset="1" style="stop-color:#000000"/>
			</linearGradient>
			<path class="st23" d="M484.1,170.3c3.8,2,4.8,2.4,9.1,3.6c-0.5-1.3-0.8-2.2-1.1-3.5c-4.3-1-5.3-1.3-9.4-3.1
				C483,168.2,483.6,169.9,484.1,170.3"/>
			<linearGradient id="SVGID_17_" gradientUnits="userSpaceOnUse" x1="478.6046" y1="154.6102" x2="478.6046" y2="119.2019">
				<stop  offset="0" style="stop-color:#FFFFFF"/>
				<stop  offset="1" style="stop-color:#000000"/>
			</linearGradient>
			<path class="st24" d="M474.6,162c1.3,1.5,2.7,3.2,5.1,5.2c0.7,0.4,1.4,0.8,2.9,0.1c-2.2-1.8-4.1-3.4-6.8-6.5
				C475,161.8,474.9,162,474.6,162C474.6,162,474.6,162,474.6,162"/>
			<linearGradient id="SVGID_18_" gradientUnits="userSpaceOnUse" x1="472.6118" y1="154.6107" x2="472.6118" y2="119.2048">
				<stop  offset="0" style="stop-color:#FFFFFF"/>
				<stop  offset="1" style="stop-color:#000000"/>
			</linearGradient>
			<path class="st25" d="M472.2,158.7c0.7,0.6,1.4,1.4,3.6,2.1c-1-2.2-2-4.3-3-8.3c-1.2-0.1-2.1-0.2-3.4-0.3
				C471.1,157,472.1,158.4,472.2,158.7"/>
			<linearGradient id="SVGID_19_" gradientUnits="userSpaceOnUse" x1="471.7066" y1="154.6101" x2="471.7066" y2="119.2054">
				<stop  offset="0" style="stop-color:#FFFFFF"/>
				<stop  offset="1" style="stop-color:#000000"/>
			</linearGradient>
			<path class="st26" d="M468.5,147c1,1.5,2,3,4.3,5.4c0.4-2.3,0.7-4.6,2.1-8.5c-1.8-1.8-3.3-3.3-5-5.8
				C468.2,145,468.5,147,468.5,147"/>
			<linearGradient id="SVGID_20_" gradientUnits="userSpaceOnUse" x1="477.8878" y1="154.61" x2="477.8878" y2="119.2048">
				<stop  offset="0" style="stop-color:#FFFFFF"/>
				<stop  offset="1" style="stop-color:#000000"/>
			</linearGradient>
			<path class="st27" d="M474.9,143.9c1.9-1.2,3.9-2.4,7.9-4.3c-0.8-3.2-1.6-6.1-1.9-10.7c-2.7,1.2-5.2,2.3-8,4.4
				C473.3,136.5,473.5,139.2,474.9,143.9"/>
			<linearGradient id="SVGID_21_" gradientUnits="userSpaceOnUse" x1="489.5381" y1="154.611" x2="489.5381" y2="119.2045">
				<stop  offset="0" style="stop-color:#FFFFFF"/>
				<stop  offset="1" style="stop-color:#000000"/>
			</linearGradient>
			<path class="st28" d="M482.9,139.6c4.6,1.4,5.7,1.6,9.8,2.5c0.8-3.1,1.6-6.1,3.5-10.2c-3.9-1.1-4.9-1.4-9.4-3.1
				C485.4,131.8,484.2,134.5,482.9,139.6"/>
			<linearGradient id="SVGID_22_" gradientUnits="userSpaceOnUse" x1="500.1327" y1="154.6108" x2="500.1327" y2="119.2045">
				<stop  offset="0" style="stop-color:#FFFFFF"/>
				<stop  offset="1" style="stop-color:#000000"/>
			</linearGradient>
			<path class="st29" d="M492.7,142.1c2.1,2.3,4,4.4,7.4,7.2c2.3-2.7,4.5-5.2,7.4-8.3c-1.9-1.6-3.7-3.1-6.3-6.1
				C498.7,136.9,496.5,138.6,492.7,142.1"/>
			<linearGradient id="SVGID_23_" gradientUnits="userSpaceOnUse" x1="506.5925" y1="154.6102" x2="506.5925" y2="119.2046">
				<stop  offset="0" style="stop-color:#FFFFFF"/>
				<stop  offset="1" style="stop-color:#000000"/>
			</linearGradient>
			<path class="st30" d="M503.2,158.9c3.1-1.2,6-2.4,9.8-4.8c-1-2.4-1.9-4.6-2.8-8.6c-2.7,1.2-5.5,2.5-10.1,3.8
				C500.9,152.3,501.5,154.9,503.2,158.9"/>
			<linearGradient id="SVGID_24_" gradientUnits="userSpaceOnUse" x1="507.0297" y1="154.6102" x2="507.0297" y2="119.2028">
				<stop  offset="0" style="stop-color:#FFFFFF"/>
				<stop  offset="1" style="stop-color:#000000"/>
			</linearGradient>
			<path class="st31" d="M500.4,167.4c3.6,0.6,6.7,1.1,11.2,0.7c0.7-2.4,1-3.5,2-8.3c-3.1,0.1-5.7,0.1-10.4-0.8
				C501.5,164.1,501.1,165.6,500.4,167.4"/>
			<linearGradient id="SVGID_25_" gradientUnits="userSpaceOnUse" x1="500.0459" y1="154.6109" x2="500.0459" y2="119.2051">
				<stop  offset="0" style="stop-color:#FFFFFF"/>
				<stop  offset="1" style="stop-color:#000000"/>
			</linearGradient>
			<path class="st32" d="M499.3,174.5c2.5-0.4,4.9-0.7,8.7-2.6c-2.1-0.9-4.2-1.8-7.6-4.5c-2.5,1.2-4.9,2.4-8.3,3
				C497.4,174.3,499.2,174.5,499.3,174.5"/>
		</g>
		<g>
			<path class="st33" d="M532.9,116.2h-3v-4.1h7.5v9c0,1.5-0.3,2.8-0.8,4c-1.2,2.6-3.5,3.9-7,3.9c-3.6,0-6-1.3-7.2-3.9
				c-0.7-1.5-1.2-5.1-1.8-10.7c-0.1-0.8-0.1-1.9-0.1-3.3c0-1.1,0-2.2,0.1-3.4c0.3-5.4,0.9-9,1.6-10.7c1.3-2.6,3.8-3.9,7.4-3.9
				c3.3,0,5.6,1.3,6.7,3.9c0.6,1.4,0.9,2.8,1,4.3h-4.8c0-0.6-0.2-1.4-0.6-2.3c-0.5-1-1.3-1.6-2.4-1.6c-1.5,0-2.4,0.5-2.8,1.6
				c-0.6,1.5-1,4.7-1.4,9.8c0,1.2-0.1,1.9-0.1,2c0,0.8,0,1.4,0,1.9c0.4,5.2,1,8.6,1.7,10.4c0.6,1,1.5,1.5,2.7,1.5
				c1.4,0,2.3-0.5,2.8-1.6c0.3-0.8,0.5-1.7,0.5-2.8L532.9,116.2z"/>
			<path class="st34" d="M540.3,93.3h4.6v31.4h8v4.1h-12.6V93.3z"/>
			<path class="st34" d="M568.7,96.9c1.2,2.8,1.8,7.7,1.8,14.7c0,1.1,0,2.1-0.1,2.9c-0.3,3.5-0.4,5.3-0.4,5.3
				c-0.3,2.3-0.7,4-1.3,5.2c-1.4,2.6-3.7,3.9-7,3.9c-3.3,0-5.6-1.3-6.9-3.9c-0.8-1.5-1.3-4.8-1.6-9.9c-0.1-1.8-0.2-3.4-0.2-4.7
				c0-6.2,0.6-10.6,1.7-13.4c1.1-2.4,3.6-3.9,7-3.9C565.2,93,567.6,94.3,568.7,96.9z M564.2,123.2c0.9-2,1.4-5.5,1.6-10.6
				c0,0,0-0.7,0-2c0-1,0-1.8,0-2.3c-0.3-4.7-0.8-7.8-1.5-9.3c-0.5-1-1.4-1.6-2.6-1.6c-1.2,0-2.1,0.5-2.6,1.5
				c-0.7,1.7-1.2,4.8-1.5,9.4c0,0.5,0,1.3,0,2.4c0,0.8,0,1.5,0,2c0.1,5.1,0.6,8.6,1.6,10.6c0.5,0.9,1.3,1.4,2.4,1.4
				C562.9,124.7,563.8,124.2,564.2,123.2z"/>
			<path class="st34" d="M581.2,93.3c2.6,0,4.5,0.8,5.6,2.3c1,1.3,1.5,3.5,1.5,6.3c0,4.1-0.8,6.7-2.6,7.7c2.1,1.2,3.1,4.3,3.1,9.5
				c0,3.5-0.9,6.8-2.1,8c-1.1,1.1-3,1.6-5.8,1.6h-7.8V93.3H581.2z M577.7,107.6h3.6c1.6,0,2.4-1.7,2.4-5.1c0-1.5-0.1-2.6-0.3-3.2
				c-0.3-1.3-1-2-2.1-2h-3.6V107.6z M577.7,124.6h3.7c1.3,0,2.1-0.8,2.4-2.3c0.1-0.4,0.1-1.7,0.1-3.8c0-4.5-0.8-6.8-2.4-6.8h-3.9
				V124.6z"/>
			<path class="st34" d="M600.9,93.3l7.4,35.5h-4.7l-1.4-5.8h-6.5l-1.5,5.8h-4.7l7.5-35.5H600.9z M598.9,105.2l-2.7,13.7h5.3
				L598.9,105.2z"/>
			<path class="st34" d="M610.3,93.3h4.6v31.4H625v4.1h-14.8V93.3z"/>
			<path class="st35" d="M626.8,93.3l7.5,0v35.4h-4.7V98.2h-2.8V93.3z"/>
			<path class="st36" d="M645.5,92.9c0.3,0,0.6,0,0.8,0c0.2,0,0.4,0,0.8,0c1.7,0.2,3.1,0.8,3.9,1.7c1.3,1.6,2.3,3.5,2.7,5.7
				c0.4,1.6,0.7,3.9,0.8,6.9c0,0.2,0,1.4,0,3.6c0,1.6,0,2.8-0.1,3.7c-0.3,3.4-0.6,5.8-0.9,7.1c-0.6,2.6-1.5,4.5-2.8,5.8
				c-1.3,1-2.4,1.6-3.4,1.6c-0.5,0-0.9,0.1-1.1,0c-0.2,0-0.5,0-1.1,0c-1.4-0.1-2.6-0.8-3.6-1.8c-1.3-1.3-2.2-3.1-2.7-5.4
				c-0.2-1.2-0.5-3.4-0.7-6.7c-0.1-1.5-0.2-2.9-0.2-4.3c0-1.3,0-2.5,0-3.6c0.1-3.1,0.4-5.5,0.8-7.2c0.5-2.3,1.4-4.1,2.7-5.4
				C642.7,93.7,644,93,645.5,92.9z M649,122.2c0.4-1.1,0.7-2.7,0.8-4.8l0.2-4.8c0-0.4,0-1.1,0-2c0-0.5,0-1.3-0.1-2.3l-0.2-4.5
				c-0.1-1.9-0.4-3.4-0.8-4.3c-0.6-1.3-1.4-2-2.6-2c-1.2,0-2,0.7-2.6,2c-0.4,1-0.7,2.4-0.8,4.3l-0.2,4.5c0,1-0.1,1.7-0.1,2.3
				c0,0.9,0,1.6,0,2l0.3,4.8c0.1,2.1,0.4,3.7,0.9,4.8c0.6,1.5,1.5,2.2,2.6,2.2C647.7,124.4,648.5,123.6,649,122.2z"/>
			<path class="st36" d="M664.3,92.9c0.3,0,0.6,0,0.8,0c0.2,0,0.4,0,0.8,0c1.7,0.2,3.1,0.8,3.9,1.7c1.3,1.6,2.3,3.5,2.8,5.7
				c0.4,1.6,0.7,3.9,0.8,6.9c0,0.2,0,1.4,0,3.6c0,1.6,0,2.8-0.1,3.7c-0.3,3.4-0.6,5.8-0.9,7.1c-0.6,2.6-1.5,4.5-2.8,5.8
				c-1.3,1-2.4,1.6-3.4,1.6c-0.5,0-0.9,0.1-1.1,0c-0.2,0-0.5,0-1.1,0c-1.4-0.1-2.6-0.8-3.6-1.8c-1.3-1.3-2.2-3.1-2.7-5.4
				c-0.2-1.2-0.5-3.4-0.7-6.7c-0.1-1.5-0.2-2.9-0.2-4.3c0-1.3,0-2.5,0-3.6c0.1-3.1,0.4-5.5,0.8-7.2c0.5-2.3,1.4-4.1,2.7-5.4
				C661.5,93.7,662.8,93,664.3,92.9z M667.8,122.2c0.4-1.1,0.7-2.7,0.8-4.8l0.2-4.8c0-0.4,0-1.1,0-2c0-0.5,0-1.3-0.1-2.3l-0.2-4.5
				c-0.1-1.9-0.4-3.4-0.8-4.3c-0.6-1.3-1.4-2-2.6-2c-1.2,0-2,0.7-2.6,2c-0.4,1-0.7,2.4-0.8,4.3l-0.2,4.5c0,1-0.1,1.7-0.1,2.3
				c0,0.9,0,1.6,0,2l0.3,4.8c0.1,2.1,0.4,3.7,0.9,4.8c0.6,1.5,1.5,2.2,2.6,2.2C666.5,124.4,667.3,123.6,667.8,122.2z"/>
		</g>
		<g class="st37">
			<path class="st38" d="M629.5,110.1c1.6,0.1,3.2,0.1,4.7,0.2v-17l-7.5,0v4.9h2.8V110.1z"/>
			<path class="st38" d="M656.9,111.6c1.5,0.1,3.1,0.2,4.6,0.3c0-0.4,0-0.8,0-1.4c0-0.5,0-1.3,0.1-2.3l0.2-4.5
				c0.1-1.9,0.4-3.4,0.8-4.3c0.6-1.3,1.4-2,2.6-2c1.2,0,2,0.7,2.6,2c0.4,1,0.7,2.4,0.8,4.3l0.2,4.5c0,1,0.1,1.7,0.1,2.3
				c0,0.9,0,1.6,0,2c1.6,0.1,3.1,0.3,4.7,0.4c0-0.6,0-1.3,0-2.1c0-2.2,0-3.4,0-3.6c-0.1-3.1-0.4-5.4-0.8-6.9c-0.5-2.1-1.4-4-2.8-5.7
				c-0.9-0.9-2.2-1.5-3.9-1.7c-0.4,0-0.6,0-0.8,0c-0.2,0-0.5,0-0.8,0c-1.5,0.1-2.8,0.8-3.9,1.8c-1.3,1.3-2.2,3.1-2.7,5.4
				c-0.4,1.7-0.7,4.1-0.8,7.2c0,1.1-0.1,2.3,0,3.6C656.9,111.1,656.9,111.3,656.9,111.6z"/>
			<path class="st38" d="M642.6,110.7c0,0,0-0.1,0-0.1c0-0.5,0-1.3,0.1-2.3l0.2-4.5c0.1-1.9,0.4-3.4,0.8-4.3c0.6-1.3,1.4-2,2.6-2
				c1.2,0,2,0.7,2.6,2c0.4,1,0.7,2.4,0.8,4.3l0.2,4.5c0,1,0.1,1.7,0.1,2.3c0,0.2,0,0.4,0,0.6c1.6,0.1,3.1,0.2,4.7,0.3
				c0-0.2,0-0.4,0-0.6c0-2.2,0-3.4,0-3.6c-0.1-3.1-0.4-5.4-0.8-6.9c-0.5-2.1-1.4-4-2.7-5.7c-0.9-0.9-2.2-1.5-3.9-1.7
				c-0.4,0-0.6,0-0.8,0c-0.2,0-0.5,0-0.8,0c-1.5,0.1-2.8,0.8-3.9,1.8c-1.3,1.3-2.2,3.1-2.7,5.4c-0.4,1.7-0.7,4.1-0.8,7.2
				c0,1-0.1,2.1-0.1,3.2C639.6,110.5,641.1,110.6,642.6,110.7z"/>
			<path class="st38" d="M614.8,109.7V93.3h-4.6v16.4C611.8,109.6,613.3,109.7,614.8,109.7z"/>
			<path class="st38" d="M529.9,112.1c0.1,0,0.2,0,0.3,0L529.9,112.1L529.9,112.1z"/>
			<path class="st38" d="M525.2,112.5c0-0.5,0-1.1,0-1.8c0-0.1,0-0.8,0.1-2c0.4-5.1,0.8-8.3,1.4-9.8c0.4-1,1.4-1.6,2.8-1.6
				c1.1,0,2,0.5,2.4,1.6c0.4,0.9,0.5,1.7,0.6,2.3h4.8c-0.1-1.5-0.4-2.9-1-4.3c-1.1-2.6-3.4-3.9-6.7-3.9c-3.6,0-6,1.3-7.4,3.9
				c-0.8,1.7-1.3,5.3-1.6,10.7c0,1.2-0.1,2.3-0.1,3.4c0,0.7,0,1.3,0,1.9C522.2,112.8,523.7,112.7,525.2,112.5z"/>
			<path class="st38" d="M544.8,111.1V93.3h-4.6v18.1C541.8,111.3,543.3,111.2,544.8,111.1z"/>
			<path class="st38" d="M585.7,109.6C585.7,109.6,585.7,109.6,585.7,109.6c1.7-1,2.6-3.6,2.6-7.7c0-2.9-0.5-5-1.5-6.3
				c-1.1-1.5-3-2.3-5.6-2.3h-8.1v16.6C577.3,109.7,581.5,109.6,585.7,109.6z M577.7,97.4h3.6c1.1,0,1.8,0.7,2.1,2
				c0.2,0.7,0.3,1.7,0.3,3.2c0,3.4-0.8,5.1-2.4,5.1h-3.6V97.4z"/>
			<path class="st38" d="M557.6,110.4c0-0.9,0-1.6,0-2.1c0.3-4.5,0.8-7.6,1.5-9.4c0.5-1,1.4-1.5,2.6-1.5c1.2,0,2.1,0.5,2.6,1.6
				c0.7,1.6,1.2,4.7,1.5,9.3c0,0.4,0,1,0,1.8c1.6-0.1,3.1-0.1,4.7-0.2c-0.1-6.1-0.7-10.4-1.8-13c-1.2-2.6-3.5-3.9-7-3.9
				c-3.3,0-5.9,1.6-7,3.9c-1.2,2.8-1.7,7.3-1.7,13.4c0,0.1,0,0.2,0,0.2C554.5,110.5,556.1,110.5,557.6,110.4z"/>
			<path class="st38" d="M597,109.5c0.4,0,0.7,0,1.1,0l0.8-4.4l0.8,4.4c1.5,0,3,0,4.5,0l-3.4-16.3H597l-3.5,16.3
				C594.7,109.5,595.9,109.5,597,109.5z"/>
		</g>
		<g>
			<path class="st39" d="M484.1,87.2c3.8-2,4.8-2.4,9.1-3.6c-0.5,1.2-0.8,2.2-1.1,3.5c-4.3,1-5.3,1.3-9.4,3.1
				C483,89.3,483.6,87.6,484.1,87.2"/>
			<path class="st40" d="M474.6,95.5c1.3-1.6,2.7-3.2,5.1-5.2c0.7-0.4,1.4-0.8,2.9-0.1c-2.2,1.8-4.1,3.4-6.8,6.5
				C475,95.7,474.9,95.5,474.6,95.5C474.6,95.5,474.6,95.5,474.6,95.5"/>
			<path class="st41" d="M472.2,98.9c0.7-0.6,1.4-1.4,3.6-2.1c-1,2.2-2,4.3-3,8.3c-1.2,0.1-2.1,0.2-3.4,0.3
				C471.1,100.5,472.1,99.1,472.2,98.9"/>
			<path class="st42" d="M468.5,110.5c1-1.5,2-3,4.3-5.4c0.4,2.3,0.7,4.6,2.1,8.5c-1.8,1.8-3.3,3.3-5,5.8
				C468.2,112.5,468.5,110.5,468.5,110.5"/>
			<path class="st43" d="M474.9,113.6c1.9,1.2,3.9,2.4,7.9,4.3c-0.8,3.2-1.6,6.1-1.9,10.7c-2.7-1.2-5.2-2.3-8-4.4
				C473.3,121,473.5,118.3,474.9,113.6"/>
			<path class="st44" d="M482.9,117.9c4.6-1.4,5.7-1.6,9.8-2.5c0.8,3.1,1.6,6.1,3.5,10.2c-3.9,1.1-4.9,1.4-9.4,3.1
				C485.4,125.7,484.2,123.1,482.9,117.9"/>
			<path class="st45" d="M492.7,115.4c2.1-2.3,4-4.4,7.4-7.2c2.3,2.7,4.5,5.2,7.4,8.3c-1.9,1.6-3.7,3.1-6.3,6.1
				C498.7,120.6,496.5,118.9,492.7,115.4"/>
			<path class="st46" d="M503.2,98.6c3.1,1.2,6,2.4,9.8,4.8c-1,2.4-1.9,4.6-2.8,8.6c-2.7-1.2-5.5-2.5-10.1-3.8
				C500.9,105.2,501.5,102.6,503.2,98.6"/>
			<path class="st47" d="M500.4,90.1c3.6-0.6,6.7-1.1,11.2-0.7c0.7,2.4,1,3.5,2,8.3c-3.1-0.1-5.7-0.1-10.4,0.8
				C501.5,93.4,501.1,92,500.4,90.1"/>
			<path class="st48" d="M499.3,83c2.5,0.4,4.9,0.7,8.7,2.6c-2.1,0.9-4.2,1.8-7.6,4.5c-2.5-1.2-4.9-2.4-8.3-3
				C497.4,83.2,499.2,83,499.3,83"/>
		</g>
		<g>
			<path class="st35" d="M525.2,88.8l-0.3-3.6c0-0.4,0-0.8,0-1c0,0.2-0.1,0.5-0.2,0.9l-1,3.6h-0.8l-1-3.5c-0.1-0.4-0.2-0.9-0.2-1.1
				c0,0.2,0,0.7-0.1,1.1l-0.2,3.5h-0.9l0.5-5.8h1.3l0.9,3.3c0.1,0.5,0.2,0.8,0.2,1c0-0.2,0.1-0.5,0.2-0.9l0.9-3.3h1.3l0.5,5.8H525.2
				z"/>
			<path class="st35" d="M530.8,86.7c0,1.4-0.7,2.2-1.9,2.2c-1.1,0-1.9-0.9-1.9-2.2c0-1.3,0.7-2.2,1.8-2.2
				C530.1,84.4,530.8,85.3,530.8,86.7z M528.1,86.6c0,1.2,0.3,1.6,0.9,1.6c0.5,0,0.8-0.4,0.8-1.5c0-1.2-0.3-1.5-0.9-1.5
				C528.3,85.1,528.1,85.6,528.1,86.6z"/>
			<path class="st35" d="M533,88.9c-0.5,0-1.1-0.2-1.6-0.5l0.3-0.7c0.4,0.2,0.9,0.4,1.4,0.4c0.4,0,0.7-0.2,0.7-0.6
				c0-0.3-0.2-0.5-0.7-0.6l-0.5-0.1c-0.6-0.1-1-0.6-1-1.2c0-0.8,0.6-1.3,1.6-1.3c0.6,0,1,0.2,1.4,0.4l-0.3,0.6
				c-0.4-0.2-0.7-0.3-1-0.3c-0.4,0-0.6,0.2-0.6,0.5c0,0.3,0.1,0.4,0.6,0.5l0.5,0.1c0.8,0.2,1.1,0.7,1.1,1.2
				C534.7,88.3,534,88.9,533,88.9z"/>
			<path class="st35" d="M536.5,84.5h1l-0.2,0.6h-0.8v2.4c0,0.5,0.1,0.7,0.5,0.7c0.1,0,0.2,0,0.4-0.1l0.1,0.5
				c-0.3,0.1-0.5,0.2-0.8,0.2c-0.8,0-1.1-0.5-1.1-1.1v-2.6h-0.5v-0.6h0.5c0-0.4,0-0.7,0-1l0.9-0.2C536.6,83.6,536.5,84.1,536.5,84.5
				z"/>
			<path class="st35" d="M541.7,88.9c-0.7,0-1.3-0.2-1.9-0.5l0.4-0.7c0.5,0.3,1,0.5,1.6,0.5c0.7,0,1.1-0.3,1.1-0.9
				c0-0.4-0.3-0.7-0.9-0.9l-0.6-0.2c-0.5-0.2-0.9-0.4-1.1-0.7c-0.2-0.2-0.2-0.5-0.2-0.8c0-1,0.8-1.7,2-1.7c0.7,0,1.3,0.2,1.8,0.5
				l-0.4,0.7c-0.5-0.3-0.9-0.4-1.4-0.4c-0.6,0-0.9,0.3-0.9,0.8c0,0.4,0.2,0.5,0.8,0.7l0.7,0.2c0.8,0.2,1.4,0.8,1.4,1.6
				C544,88,543.2,88.9,541.7,88.9z"/>
			<path class="st35" d="M547.8,88.9c-0.2-0.1-0.3-0.3-0.4-0.5c-0.3,0.3-0.7,0.5-1.2,0.5c-0.5,0-0.8-0.2-1-0.4
				c-0.2-0.2-0.2-0.5-0.2-1v-2.9l0.9-0.2v2.8c0,0.5,0.1,0.9,0.6,0.9c0.3,0,0.7-0.2,0.8-0.5v-3l0.9-0.2v3.2c0,0.6,0.3,0.8,0.3,0.8
				L547.8,88.9z"/>
			<path class="st35" d="M550.7,88.9c-0.5,0-1.1-0.2-1.6-0.5l0.3-0.7c0.4,0.2,0.9,0.4,1.4,0.4c0.4,0,0.7-0.2,0.7-0.6
				c0-0.3-0.2-0.5-0.7-0.6l-0.5-0.1c-0.6-0.1-1-0.6-1-1.2c0-0.8,0.6-1.3,1.6-1.3c0.6,0,1,0.2,1.4,0.4l-0.3,0.6
				c-0.4-0.2-0.7-0.3-1-0.3c-0.4,0-0.6,0.2-0.6,0.5c0,0.3,0.1,0.4,0.6,0.5l0.5,0.1c0.8,0.2,1.1,0.7,1.1,1.2
				C552.4,88.3,551.7,88.9,550.7,88.9z"/>
			<path class="st35" d="M554.3,84.5h1l-0.2,0.6h-0.8v2.4c0,0.5,0.1,0.7,0.5,0.7c0.1,0,0.2,0,0.4-0.1l0.1,0.5
				c-0.3,0.1-0.5,0.2-0.8,0.2c-0.8,0-1.1-0.5-1.1-1.1v-2.6h-0.5v-0.6h0.5c0-0.4,0-0.7,0-1l0.9-0.2C554.3,83.6,554.3,84.1,554.3,84.5
				z"/>
			<path class="st35" d="M559,88.9c-0.3-0.1-0.5-0.3-0.6-0.6c-0.3,0.4-0.7,0.5-1.2,0.5c-1,0-1.4-0.5-1.4-1.3c0-1,0.7-1.5,2.1-1.5
				h0.3v-0.2c0-0.5-0.1-0.7-0.6-0.7c-0.6,0-1.3,0.5-1.3,0.5L556,85c0.6-0.4,1.2-0.6,1.8-0.6c0.7,0,1.1,0.2,1.3,0.7
				c0.1,0.2,0.1,0.4,0.1,1l0,1.2c0,0.6,0,0.7,0.4,1L559,88.9z M558,86.8c-0.9,0-1.2,0.3-1.2,0.8c0,0.4,0.2,0.6,0.6,0.6
				c0.3,0,0.6-0.2,0.8-0.4l0-1C558.2,86.8,558.1,86.8,558,86.8z"/>
			<path class="st35" d="M560.3,83.3c0-0.3,0.3-0.6,0.6-0.6c0.3,0,0.6,0.3,0.6,0.6c0,0.3-0.3,0.6-0.6,0.6
				C560.5,83.9,560.3,83.6,560.3,83.3z M560.4,88.8v-4.1l0.9-0.2v4.3H560.4z"/>
			<path class="st35" d="M564.9,88.8V86c0-0.6-0.1-0.7-0.5-0.7c-0.3,0-0.6,0.2-0.9,0.5v3.1h-0.9v-3.1c0-0.4,0-0.7-0.2-1l0.8-0.2
				c0.1,0.2,0.1,0.4,0.1,0.6c0.4-0.4,0.8-0.6,1.3-0.6c0.6,0,1.1,0.4,1.1,1.2v3.1H564.9z"/>
			<path class="st35" d="M569.9,88.9c-0.3-0.1-0.5-0.3-0.6-0.6c-0.3,0.4-0.7,0.5-1.2,0.5c-1,0-1.4-0.5-1.4-1.3c0-1,0.7-1.5,2.1-1.5
				h0.3v-0.2c0-0.5-0.1-0.7-0.6-0.7c-0.6,0-1.3,0.5-1.3,0.5l-0.4-0.7c0.6-0.4,1.2-0.6,1.8-0.6c0.7,0,1.1,0.2,1.3,0.7
				c0.1,0.2,0.1,0.4,0.1,1l0,1.2c0,0.6,0,0.7,0.4,1L569.9,88.9z M569,86.8c-0.9,0-1.2,0.3-1.2,0.8c0,0.4,0.2,0.6,0.6,0.6
				c0.3,0,0.6-0.2,0.8-0.4l0-1C569.1,86.8,569,86.8,569,86.8z"/>
			<path class="st35" d="M573.2,88.9c-0.4,0-0.8-0.2-1-0.5c0,0.2,0,0.3-0.1,0.4h-0.8c0.1-0.2,0.1-0.4,0.1-0.9v-4c0-0.5,0-0.8-0.1-1
				l0.9-0.2c0,0.3,0.1,0.5,0.1,0.8v1c0,0.3,0,0.4,0,0.4l0,0c0.3-0.3,0.6-0.4,1-0.4c1,0,1.6,0.8,1.6,2.1
				C574.9,87.9,574.2,88.9,573.2,88.9z M573,85.2c-0.4,0-0.6,0.2-0.8,0.4v2.1c0.2,0.2,0.4,0.4,0.8,0.4c0.6,0,0.8-0.4,0.8-1.5
				C573.8,85.8,573.7,85.2,573,85.2z"/>
			<path class="st35" d="M576.8,88.9c-0.9,0-0.9-0.8-0.9-1.2v-3.6c0-0.6,0-0.9-0.1-1.2l0.9-0.2c0.1,0.3,0.1,0.6,0.1,1.2v3.6
				c0,0.6,0,0.7,0.1,0.8c0,0.1,0.2,0.1,0.3,0.1l0.1,0.6C577.1,88.8,577,88.9,576.8,88.9z"/>
			<path class="st35" d="M578.9,86.9L578.9,86.9c0,0.6,0.2,1.3,1,1.3c0.4,0,0.7-0.1,1-0.4l0.4,0.6c-0.4,0.4-0.9,0.6-1.5,0.6
				c-1.2,0-1.9-0.9-1.9-2.2c0-0.7,0.2-1.2,0.5-1.6c0.3-0.4,0.8-0.6,1.3-0.6c0.4,0,0.8,0.1,1.2,0.4c0.4,0.3,0.6,0.8,0.6,1.8v0.2
				H578.9z M579.7,85.1c-0.5,0-0.8,0.4-0.8,1.1h1.6C580.5,85.5,580.2,85.1,579.7,85.1z"/>
			<path class="st35" d="M586.5,88.9c-0.8,0-1.4-0.3-1.8-0.8c-0.4-0.5-0.7-1.2-0.7-2.1c0-0.7,0.1-1.3,0.4-1.7
				c0.4-0.8,1.2-1.3,2.1-1.3c0.6,0,1.1,0.2,1.4,0.4l-0.4,0.6c-0.3-0.2-0.6-0.3-1-0.3c-0.5,0-0.9,0.2-1.1,0.7
				c-0.2,0.4-0.3,0.8-0.3,1.5c0,0.7,0.1,1.1,0.2,1.4c0.2,0.5,0.7,0.8,1.3,0.8c0.4,0,0.7-0.1,1-0.4l0.5,0.6
				C587.6,88.7,587.1,88.9,586.5,88.9z"/>
			<path class="st35" d="M592.3,86.7c0,1.4-0.7,2.2-1.9,2.2c-1.1,0-1.9-0.9-1.9-2.2c0-1.3,0.7-2.2,1.8-2.2
				C591.6,84.4,592.3,85.3,592.3,86.7z M589.6,86.6c0,1.2,0.3,1.6,0.9,1.6c0.5,0,0.8-0.4,0.8-1.5c0-1.2-0.3-1.5-0.9-1.5
				C589.8,85.1,589.6,85.6,589.6,86.6z"/>
			<path class="st35" d="M595.3,85.3c-0.1,0-0.2-0.1-0.3-0.1c-0.4,0-0.7,0.3-0.8,0.6v2.8h-0.9v-3c0-0.5-0.1-0.9-0.1-1.1l0.8-0.2
				c0.1,0.2,0.2,0.4,0.2,0.7c0.3-0.5,0.7-0.7,1.1-0.7c0.1,0,0.2,0,0.3,0.1L595.3,85.3z"/>
			<path class="st35" d="M598,88.8c-0.4,0-0.7-0.1-1-0.3c0,0,0,0.2,0,0.4v1.4l-0.9,0.2v-4.9c0-0.5,0-0.7-0.1-1l0.8-0.1
				c0,0.1,0.1,0.3,0.1,0.5c0.3-0.3,0.7-0.5,1.1-0.5c0.8,0,1.6,0.6,1.6,2.1C599.7,88,599.1,88.8,598,88.8z M597.1,85.6v2.1
				c0.2,0.2,0.5,0.4,0.8,0.4c0.6,0,0.9-0.5,0.9-1.5c0-0.9-0.2-1.4-0.8-1.4C597.6,85.2,597.3,85.4,597.1,85.6z"/>
			<path class="st35" d="M604.1,86.7c0,1.4-0.7,2.2-1.9,2.2c-1.1,0-1.9-0.9-1.9-2.2c0-1.3,0.7-2.2,1.8-2.2
				C603.4,84.4,604.1,85.3,604.1,86.7z M601.4,86.6c0,1.2,0.3,1.6,0.9,1.6c0.5,0,0.8-0.4,0.8-1.5c0-1.2-0.3-1.5-0.9-1.5
				C601.7,85.1,601.4,85.6,601.4,86.6z"/>
			<path class="st35" d="M607.1,85.3c-0.1,0-0.2-0.1-0.3-0.1c-0.4,0-0.7,0.3-0.8,0.6v2.8h-0.9v-3c0-0.5-0.1-0.9-0.1-1.1l0.8-0.2
				c0.1,0.2,0.2,0.4,0.2,0.7c0.3-0.5,0.7-0.7,1.1-0.7c0.1,0,0.2,0,0.3,0.1L607.1,85.3z"/>
			<path class="st35" d="M610.8,88.9c-0.3-0.1-0.5-0.3-0.6-0.6c-0.3,0.4-0.7,0.5-1.2,0.5c-1,0-1.4-0.5-1.4-1.3c0-1,0.7-1.5,2.1-1.5
				h0.3v-0.2c0-0.5-0.1-0.7-0.6-0.7c-0.6,0-1.3,0.5-1.3,0.5l-0.4-0.7c0.6-0.4,1.2-0.6,1.8-0.6c0.7,0,1.1,0.2,1.3,0.7
				c0.1,0.2,0.1,0.4,0.1,1l0,1.2c0,0.6,0,0.7,0.4,1L610.8,88.9z M609.8,86.8c-0.9,0-1.2,0.3-1.2,0.8c0,0.4,0.2,0.6,0.6,0.6
				c0.3,0,0.6-0.2,0.8-0.4l0-1C610,86.8,609.9,86.8,609.8,86.8z"/>
			<path class="st35" d="M613.1,84.5h1l-0.2,0.6h-0.8v2.4c0,0.5,0.1,0.7,0.5,0.7c0.1,0,0.2,0,0.4-0.1l0.1,0.5
				c-0.3,0.1-0.5,0.2-0.8,0.2c-0.8,0-1.1-0.5-1.1-1.1v-2.6h-0.5v-0.6h0.5c0-0.4,0-0.7,0-1l0.9-0.2C613.1,83.6,613.1,84.1,613.1,84.5
				z"/>
			<path class="st35" d="M614.8,83.3c0-0.3,0.3-0.6,0.6-0.6c0.3,0,0.6,0.3,0.6,0.6c0,0.3-0.3,0.6-0.6,0.6
				C615,83.9,614.8,83.6,614.8,83.3z M614.9,88.8v-4.1l0.9-0.2v4.3H614.9z"/>
			<path class="st35" d="M620.5,86.7c0,1.4-0.7,2.2-1.9,2.2c-1.1,0-1.9-0.9-1.9-2.2c0-1.3,0.7-2.2,1.8-2.2
				C619.8,84.4,620.5,85.3,620.5,86.7z M617.8,86.6c0,1.2,0.3,1.6,0.9,1.6c0.5,0,0.8-0.4,0.8-1.5c0-1.2-0.3-1.5-0.9-1.5
				C618.1,85.1,617.8,85.6,617.8,86.6z"/>
			<path class="st35" d="M623.8,88.8V86c0-0.6-0.1-0.7-0.5-0.7c-0.3,0-0.6,0.2-0.9,0.5v3.1h-0.9v-3.1c0-0.4,0-0.7-0.2-1l0.8-0.2
				c0.1,0.2,0.1,0.4,0.1,0.6c0.5-0.4,0.8-0.6,1.3-0.6c0.6,0,1.1,0.4,1.1,1.2v3.1H623.8z"/>
			<path class="st35" d="M627.2,88.9c-0.5,0-1.1-0.2-1.6-0.5l0.3-0.7c0.4,0.2,0.9,0.4,1.4,0.4c0.4,0,0.7-0.2,0.7-0.6
				c0-0.3-0.2-0.5-0.7-0.6l-0.5-0.1c-0.6-0.1-1-0.6-1-1.2c0-0.8,0.6-1.3,1.6-1.3c0.6,0,1,0.2,1.4,0.4l-0.3,0.6
				c-0.4-0.2-0.7-0.3-1-0.3c-0.4,0-0.6,0.2-0.6,0.5c0,0.3,0.1,0.4,0.6,0.5l0.5,0.1c0.8,0.2,1.1,0.7,1.1,1.2
				C628.9,88.3,628.2,88.9,627.2,88.9z"/>
			<path class="st35" d="M631.6,83.3c0-0.3,0.3-0.6,0.6-0.6c0.3,0,0.6,0.3,0.6,0.6c0,0.3-0.3,0.6-0.6,0.6
				C631.9,83.9,631.6,83.6,631.6,83.3z M631.7,88.8v-4.1l0.9-0.2v4.3H631.7z"/>
			<path class="st35" d="M636.2,88.8V86c0-0.6-0.1-0.7-0.5-0.7c-0.3,0-0.6,0.2-0.9,0.5v3.1h-0.9v-3.1c0-0.4,0-0.7-0.2-1l0.8-0.2
				c0.1,0.2,0.1,0.4,0.1,0.6c0.4-0.4,0.8-0.6,1.3-0.6c0.6,0,1.1,0.4,1.1,1.2v3.1H636.2z"/>
			<path class="st35" d="M641.2,84.5h1l-0.2,0.6h-0.8v2.4c0,0.5,0.1,0.7,0.5,0.7c0.1,0,0.2,0,0.4-0.1l0.1,0.5
				c-0.3,0.1-0.5,0.2-0.8,0.2c-0.8,0-1.1-0.5-1.1-1.1v-2.6h-0.5v-0.6h0.5c0-0.4,0-0.7,0-1l0.9-0.2C641.2,83.6,641.2,84.1,641.2,84.5
				z"/>
			<path class="st35" d="M645.5,88.8v-2.9c0-0.5-0.2-0.7-0.5-0.7c-0.3,0-0.7,0.2-1,0.5v3H643v-5c0-0.4,0-0.7-0.1-0.9l0.9-0.2
				c0.1,0.2,0.1,0.6,0.1,1v0.9c0,0.3,0,0.5,0,0.5c0.4-0.4,0.8-0.5,1.3-0.5c0.5,0,0.9,0.2,1,0.5c0.1,0.2,0.1,0.4,0.1,0.8v3H645.5z"/>
			<path class="st35" d="M648.3,86.9L648.3,86.9c0,0.6,0.2,1.3,1,1.3c0.4,0,0.7-0.1,1-0.4l0.4,0.6c-0.4,0.4-0.9,0.6-1.5,0.6
				c-1.2,0-1.9-0.9-1.9-2.2c0-0.7,0.2-1.2,0.5-1.6c0.3-0.4,0.8-0.6,1.3-0.6c0.4,0,0.8,0.1,1.2,0.4c0.4,0.3,0.5,0.8,0.5,1.8v0.2
				H648.3z M649.1,85.1c-0.5,0-0.8,0.4-0.8,1.1h1.6C649.9,85.5,649.6,85.1,649.1,85.1z"/>
			<path class="st35" d="M658.4,88.8h-1.1l-0.6-2.7c-0.2-0.9-0.3-1.7-0.3-1.7h0c0,0-0.1,0.9-0.3,1.6l-0.6,2.7h-1.1L653,83h1l0.6,2.7
				c0.2,0.9,0.3,1.8,0.3,1.8h0c0,0,0.2-1.1,0.3-1.8l0.6-2.7h1.1l0.6,2.9c0.1,0.7,0.3,1.6,0.3,1.6h0c0,0,0.2-1.2,0.3-1.9l0.5-2.6h1
				L658.4,88.8z"/>
			<path class="st35" d="M663.7,86.7c0,1.4-0.7,2.2-1.9,2.2c-1.1,0-1.9-0.9-1.9-2.2c0-1.3,0.7-2.2,1.8-2.2
				C663,84.4,663.7,85.3,663.7,86.7z M661,86.6c0,1.2,0.3,1.6,0.9,1.6c0.5,0,0.8-0.4,0.8-1.5c0-1.2-0.3-1.5-0.9-1.5
				C661.2,85.1,661,85.6,661,86.6z"/>
			<path class="st35" d="M666.6,85.3c-0.1,0-0.2-0.1-0.3-0.1c-0.4,0-0.7,0.3-0.8,0.6v2.8h-0.9v-3c0-0.5-0.1-0.9-0.1-1.1l0.8-0.2
				c0.1,0.2,0.2,0.4,0.2,0.7c0.3-0.5,0.7-0.7,1.1-0.7c0.1,0,0.2,0,0.3,0.1L666.6,85.3z"/>
			<path class="st35" d="M668.4,88.9c-0.9,0-0.9-0.8-0.9-1.2v-3.6c0-0.6,0-0.9-0.1-1.2l0.9-0.2c0.1,0.3,0.1,0.6,0.1,1.2v3.6
				c0,0.6,0,0.7,0.1,0.8c0,0.1,0.2,0.1,0.3,0.1l0.2,0.6C668.8,88.8,668.6,88.9,668.4,88.9z"/>
			<path class="st35" d="M672.4,88.8c0-0.1,0-0.1-0.1-0.3c-0.3,0.3-0.6,0.4-1,0.4c-1.1,0-1.7-0.8-1.7-2.2c0-1.3,0.7-2.2,1.7-2.2
				c0.4,0,0.6,0.1,0.9,0.4c0,0,0-0.3,0-0.7v-1.5l0.9,0.1v4.5c0,0.8,0.1,1.3,0.1,1.5H672.4z M672.2,85.5c-0.2-0.2-0.5-0.3-0.8-0.3
				c-0.6,0-0.8,0.5-0.8,1.5c0,0.9,0.2,1.4,0.9,1.4c0.3,0,0.6-0.2,0.7-0.4V85.5z"/>
		</g>
	</g>
	<g>
		<g id="_x23_7a726bff">
			<path class="st49" d="M849.9,50.2c3.1-0.3,6.3-0.2,9.4,0.5c-0.5,2.2-0.9,4.4-1.4,6.6c-2.4-0.1-4.9-0.3-7.3-0.4
				C850.3,54.6,850.1,52.4,849.9,50.2z"/>
			<path class="st49" d="M828.6,62.4c1.9-2.6,4.1-4.8,6.7-6.7c2,2.8,4,5.5,6,8.3c-1.5,1.5-2.9,2.9-4.4,4.4
				C834.1,66.4,831.4,64.4,828.6,62.4z"/>
			<path class="st49" d="M864.8,74.9c5.2-2.3,10.5-4.7,15.7-7c1.3,2.9,2.1,6,2.4,9.1c-5.7,0.6-11.4,1.2-17.1,1.8
				C865.5,77.5,865.2,76.2,864.8,74.9z"/>
			<path class="st49" d="M824.3,89.5c4.9-1.6,9.8-3.2,14.7-4.8c0.7,1.4,1.4,2.7,2.1,4.1c-4.2,3-8.3,6.1-12.5,9.1
				C826.8,95.3,825.3,92.5,824.3,89.5z"/>
			<path class="st49" d="M866.5,92.4c1-1.6,2.1-3.2,3.1-4.8c3.6,1.6,7.3,3.2,10.9,4.9c-1.3,2.9-3,5.6-5.2,7.9
				C872.5,97.7,869.5,95,866.5,92.4z"/>
			<path class="st49" d="M847,93.6c1.5,0.4,3,0.8,4.5,1.2c-0.5,5.1-1.1,10.3-1.6,15.4c-3.1-0.3-6.2-1.2-9.1-2.4
				C842.8,103,844.9,98.3,847,93.6z"/>
		</g>
		<g id="_x23_c4b7acff">
			<path class="st50" d="M837.9,54c2.7-1.6,5.7-2.7,8.8-3.4c1,4.5,1.9,9,2.9,13.4c-1.6,0.6-3.2,1.2-4.8,1.8
				C842.5,62,840.2,58,837.9,54z"/>
			<path class="st50" d="M823,77c4,0.4,7.9,0.8,11.9,1.3c0.1,1.9,0.2,3.8,0.3,5.7c-3.9,0.8-7.8,1.7-11.7,2.5
				C822.9,83.4,822.7,80.2,823,77z"/>
			<path class="st50" d="M874.7,80.2c2.8,0,5.6,0,8.5,0c0,3.2-0.5,6.3-1.5,9.3c-2.7-0.9-5.4-1.7-8-2.6
				C874,84.6,874.4,82.4,874.7,80.2z"/>
			<path class="st50" d="M830.6,100.3c3-2.7,5.9-5.3,8.9-8c1.5,1.2,3,2.4,4.4,3.6c-2,3.5-4,6.9-6,10.4
				C835.2,104.7,832.7,102.7,830.6,100.3z"/>
			<path class="st50" d="M861.1,98.4c1.7-1.1,3.5-2.3,5.2-3.4c2.3,2.5,4.6,5.1,6.8,7.6c-2.3,2.1-5,3.9-7.9,5.2
				C863.9,104.6,862.5,101.5,861.1,98.4z"/>
		</g>
		<g id="_x23_afcb08ff">
			<path class="st51" d="M858.1,64.5c1.4-4.4,2.8-8.7,4.2-13.1c3,1,5.9,2.4,8.4,4.3c-2.7,3.7-5.4,7.4-8.1,11.1
				C861.2,66.1,859.6,65.3,858.1,64.5z"/>
			<path class="st51" d="M810.7,140.8c1.1,0,2.3-0.2,3.4,0.3c1.1,0.6,1.1,2.2,0.3,3c-0.5,0.6-1.3,0.7-2.1,0.8
				c1.1,1.2,2.1,2.4,3.1,3.7c-0.3,0-0.7,0-1,0c-0.9-1.2-2-2.4-2.9-3.6c0,0-0.1,0.1-0.2,0.1c0.1,1.2,0,2.4,0,3.6c-0.2,0-0.5,0-0.7,0
				C810.7,146,810.7,143.4,810.7,140.8 M811.5,141.4c0,1,0,1.9,0,2.9c0.7,0,1.5,0.1,2.1-0.3c0.7-0.5,0.8-1.6,0.2-2.2
				C813.1,141.3,812.3,141.4,811.5,141.4z"/>
			<path class="st51" d="M819.8,140.8c1.3,0,2.5,0,3.8,0c0,0.2,0,0.4,0,0.6c-1,0-2,0-3.1,0c0,0.9,0,1.9,0,2.8c1,0,2,0,2.9,0
				c0,0.2,0,0.4,0,0.6c-1,0-2,0-2.9,0c0,1,0,2,0,3.1c1,0,2,0,3.1,0c0,0.2,0,0.4,0,0.6c-1.3,0-2.5,0-3.8,0
				C819.8,146,819.8,143.4,819.8,140.8z"/>
			<path class="st51" d="M830.1,140.8c0.3,0,0.5,0,0.8,0c1,2.6,1.9,5.2,2.9,7.7c-0.3,0-0.6,0-0.9,0c-0.2-0.7-0.5-1.3-0.7-2
				c-1.2,0-2.4,0-3.5,0c-0.2,0.7-0.5,1.3-0.7,2c-0.3,0-0.5,0-0.8,0C828.1,146,829.1,143.4,830.1,140.8 M828.9,146c1,0,2.1,0,3.1,0
				c-0.5-1.5-1.1-2.9-1.5-4.3C830,143.1,829.4,144.5,828.9,146z"/>
			<path class="st51" d="M837.7,140.8c0.2,0,0.5,0,0.8,0c0,2.4,0,4.7,0,7.1c1,0,2,0,2.9,0c0,0.2,0,0.4,0,0.6c-1.2,0-2.5,0-3.7,0
				C837.7,146,837.7,143.4,837.7,140.8z"/>
			<path class="st51" d="M850.3,140.8c1.3,0,2.5,0,3.8,0c0,0.2,0,0.4,0,0.6c-1,0-2,0-3.1,0c0,0.9,0,1.9,0,2.8c1,0,1.9,0,2.9,0
				c0,0.2,0,0.4,0,0.6c-1,0-1.9,0-2.9,0c0,1,0,2,0,3.1c1,0,2,0,3.1,0c0,0.2,0,0.4,0,0.6c-1.3,0-2.5,0-3.8,0
				C850.3,146,850.3,143.4,850.3,140.8z"/>
			<path class="st51" d="M859.2,141.2c0.9-0.7,2.1-0.6,3.2-0.4c0,0.2,0,0.5,0,0.7c-0.8-0.2-1.7-0.4-2.5,0c-0.7,0.3-1,1.4-0.4,2
				c0.8,0.7,2,0.8,2.8,1.5c0.9,0.8,0.7,2.4-0.3,3.1c-1,0.7-2.3,0.6-3.5,0.4c0-0.3,0-0.5,0-0.7c0.9,0.3,2,0.5,2.8,0
				c0.8-0.4,1-1.7,0.2-2.2c-0.8-0.6-1.9-0.7-2.7-1.4C858.1,143.3,858.3,141.9,859.2,141.2z"/>
			<path class="st51" d="M866,140.8c1.8,0,3.7,0,5.5,0c0,0.2,0,0.5,0,0.6c-0.8,0-1.6,0-2.4,0c0,2.4,0,4.7,0,7.1c-0.2,0-0.5,0-0.7,0
				c0-2.4,0-4.7,0-7.1c-0.8,0-1.6,0-2.4,0C866,141.2,866,141,866,140.8z"/>
			<path class="st51" d="M876.4,140.8c0.3,0,0.5,0,0.8,0c1,2.6,1.9,5.2,2.9,7.7c-0.3,0-0.6,0-0.9,0c-0.2-0.7-0.5-1.3-0.7-2
				c-1.2,0-2.4,0-3.5,0c-0.2,0.7-0.5,1.3-0.7,2c-0.3,0-0.5,0-0.8,0C874.5,146,875.5,143.4,876.4,140.8 M876.8,141.6
				c-0.5,1.5-1,2.9-1.6,4.4c1,0,2.1,0,3.1,0C877.9,144.5,877.2,143.1,876.8,141.6z"/>
			<path class="st51" d="M882.3,140.8c1.8,0,3.7,0,5.5,0c0,0.2,0,0.4,0,0.6c-0.8,0-1.6,0-2.4,0c0,2.4,0,4.7,0,7.1
				c-0.2,0-0.5,0-0.7,0c0-2.4,0-4.7,0-7.1c-0.8,0-1.6,0-2.4,0C882.3,141.2,882.3,141,882.3,140.8z"/>
			<path class="st51" d="M891.7,140.8c1.3,0,2.5,0,3.8,0c0,0.2,0,0.4,0,0.6c-1,0-2,0-3.1,0c0,0.9,0,1.9,0,2.8c1,0,2,0,2.9,0
				c0,0.1,0,0.4,0,0.6c-1,0-2,0-2.9,0c0,1,0,2,0,3.1c1,0,2,0,3.1,0c0,0.2,0,0.4,0,0.6c-1.3,0-2.5,0-3.8,0
				C891.7,146,891.7,143.4,891.7,140.8z"/>
		</g>
		<g id="_x23_c6c4b9ff">
			<path class="st52" d="M871.1,60.1c0.7-0.8,1.4-1.6,2.1-2.4c2.3,2.1,4.4,4.6,6,7.3c-0.9,0.5-1.8,1.1-2.8,1.6
				C874.6,64.5,872.8,62.3,871.1,60.1z"/>
			<path class="st52" d="M826.9,65.1c0.9,0.5,1.8,1.1,2.8,1.6c-1,2.6-2,5.3-3,7.9c-1-0.2-2.1-0.4-3.1-0.7
				C824.2,70.8,825.3,67.8,826.9,65.1z"/>
			<path class="st52" d="M853,96.6c1.7-0.3,3.4-0.5,5.1-0.8c1.4,4.3,2.8,8.7,4.2,13c-3,1-6.2,1.5-9.3,1.5
				C853,105.8,853,101.2,853,96.6z"/>
		</g>
		<g id="_x23_483a2cff">
			<path class="st53" d="M921.6,112.3c1.1-0.5,2.6,0.2,2.8,1.4c0.3,1.1-0.4,2.4-1.5,2.6c-1.1,0.3-2.3-0.4-2.6-1.5
				C920,113.9,920.6,112.7,921.6,112.3 M921.9,112.6c-1.3,0.3-1.7,2.2-0.7,3.1c0.9,0.9,2.6,0.4,2.9-0.8
				C924.5,113.5,923.2,112.1,921.9,112.6z"/>
			<path class="st53" d="M921.7,113.1c0.5,0,1.2-0.1,1.5,0.4c0.2,0.4-0.1,0.8-0.4,1c0.2,0.3,0.4,0.6,0.5,1c-0.1,0-0.3,0-0.4,0
				c-0.2-0.3-0.4-1.1-0.8-0.9c0,0.3,0,0.6,0,0.9c-0.1,0-0.2,0-0.3,0C921.7,114.7,921.7,113.9,921.7,113.1 M922,113.4
				c0,0.3,0,0.5,0,0.8c0.3,0,0.8,0.1,0.8-0.4C922.9,113.4,922.3,113.4,922,113.4z"/>
			<path class="st53" d="M788.7,120.1c1-1.1,2.5-1.9,4-2.1c1.9-0.3,3.8-0.1,5.6,0.5c-0.1,0.4-0.1,0.9-0.2,1.3
				c-1.6-0.6-3.4-1-5.2-0.7c-1.9,0.3-3.7,1.7-4.3,3.6c-0.5,1.5-0.5,3.2-0.2,4.7c0.4,1.6,1.5,3,3,3.7c1.8,0.8,3.9,0.6,5.8,0
				c0-1.9,0-3.9,0-5.8c0.5,0,0.9,0,1.4,0c0,2.2,0,4.5,0,6.7c-1.9,0.7-3.9,0.9-5.9,0.7c-1.8-0.2-3.6-1.1-4.7-2.6
				c-1.1-1.5-1.4-3.5-1.3-5.3C786.8,123.1,787.5,121.4,788.7,120.1z"/>
			<path class="st53" d="M821.1,118c1.9,0.1,3.9-0.3,5.7,0.3c0.9,0.3,1.8,1,2.1,1.9c0.4,1.4,0.2,3-0.9,4.1c-1,1-2.5,1.4-3.9,1.4
				c2,2.2,3.9,4.6,5.9,6.9c-0.6,0-1.2,0-1.9,0c-1.9-2.3-3.7-4.6-5.6-6.9c0,2.3,0,4.6-0.1,6.9c-0.5,0-0.9,0-1.4,0
				C821.1,127.8,821.1,122.9,821.1,118 M822.5,119.1c0,1.8,0,3.6,0,5.5c1.3,0.1,2.8,0.2,4-0.6c1.4-0.9,1.6-3.1,0.4-4.2
				C825.7,118.9,824,119.1,822.5,119.1z"/>
			<path class="st53" d="M851.5,118c2.4,0,4.8,0,7.2,0c0,0.4,0,0.7,0,1.1c-1.9,0-3.9,0-5.8,0c0,1.8,0,3.6,0,5.4c1.8,0,3.7,0,5.5,0
				c0,0.4,0,0.7,0,1.1c-1.8,0-3.7,0-5.5,0c0,1.9,0,3.9,0,5.8c1.9,0,3.9,0,5.8,0c0,0.4,0,0.8,0,1.2c-2.4,0-4.8,0-7.2,0
				C851.5,127.8,851.5,122.9,851.5,118z"/>
			<path class="st53" d="M881.8,118.7c1.8-1.2,4-1,6-0.7c0,0.4-0.1,0.9-0.1,1.3c-1.5-0.4-3.3-0.7-4.7,0c-1.2,0.6-1.8,2.3-1,3.4
				c0.7,1,1.9,1.3,2.8,1.8c1,0.5,2.2,0.8,2.9,1.7c1,1,1,2.7,0.5,3.9c-0.6,1.4-2,2.3-3.5,2.5c-1.5,0.2-3,0.1-4.4-0.2
				c0-0.5,0.1-0.9,0.1-1.4c1.7,0.6,3.7,0.9,5.3,0c1.5-0.7,1.8-3,0.6-4c-0.8-0.8-2-1.1-3-1.6c-1-0.4-2-0.8-2.6-1.8
				C879.7,122.1,880.2,119.8,881.8,118.7z"/>
			<path class="st53" d="M910.5,118c1.4,0,2.7,0,4.1,0c1.2,0,2.5,0.2,3.5,1.1c0.9,0.9,1.1,2.3,0.7,3.5c-0.4,1.2-1.5,2-2.6,2.4
				c1,0.2,2.1,0.6,2.6,1.6c1.3,2.1,0,5.2-2.4,5.9c-1.9,0.6-4,0.2-5.9,0.3C910.5,127.8,910.5,122.9,910.5,118 M911.9,119.1
				c0,1.8,0,3.6,0,5.4c1.5,0,3.3,0.2,4.6-0.8c1.5-0.9,1.5-3.6-0.2-4.3C914.9,118.9,913.4,119.1,911.9,119.1 M911.9,125.6
				c0,1.9,0,3.9,0,5.8c1.5,0.1,3.2,0.3,4.6-0.4c1.6-0.9,2-3.5,0.4-4.6C915.5,125.5,913.6,125.6,911.9,125.6z"/>
			<path class="st53" d="M868.8,155.2c0.6-0.1,1.3-0.1,2-0.1c0,2.9,0,5.9,0,8.8c0.4,0,0.8,0.1,1.2,0.1c0,0.1,0,0.3,0,0.4
				c-0.6,0.1-1.3,0.1-2,0.1c0-0.5,0-1,0.1-1.5c-0.5,1.4-2.3,2-3.6,1.2c-0.9-0.6-1.1-1.8-1.1-2.8c0-1.2,0.4-2.4,1.5-3.1
				c0.9-0.6,2.1-0.5,3.1-0.4c0-0.8,0-1.6,0-2.3c-0.4,0-0.8-0.1-1.2-0.1C868.7,155.6,868.8,155.3,868.8,155.2 M867.1,159.2
				c-0.8,0.6-0.9,1.6-0.9,2.4c0,0.7,0.1,1.6,0.7,2.1c0.7,0.6,1.8,0.3,2.3-0.4c1-1.3,0.6-2.9,0.7-4.4
				C869,158.8,867.9,158.6,867.1,159.2z"/>
			<path class="st53" d="M930.8,155.8c0.9-0.5,2.2-0.5,3.1,0c0.9,0.5,1.1,1.7,0.7,2.6c-0.4,0.6-1,1.1-1.6,1.5
				c0.6,0.4,1.4,0.8,1.7,1.5c0.6,1,0.2,2.3-0.7,2.9c-1,0.6-2.3,0.7-3.4,0.2c-1-0.5-1.3-1.9-0.8-2.9c0.4-0.7,1-1.1,1.6-1.5
				c-0.7-0.5-1.6-1-1.7-1.9C929.5,157.2,930,156.2,930.8,155.8 M931.2,156.4c-0.7,0.4-0.9,1.5-0.3,2.1c0.4,0.5,0.9,0.7,1.4,1.1
				c0.8-0.5,1.9-1.2,1.6-2.3C933.7,156.1,932.1,155.8,931.2,156.4 M930.5,162.7c0.1,1.2,1.6,1.6,2.6,1.3c0.8-0.2,1.3-1,1-1.8
				c-0.2-0.9-1.1-1.4-1.9-1.8C931.4,160.9,930.3,161.6,930.5,162.7z"/>
			<path class="st53" d="M776,155.9c0.9-0.3,1.9-0.2,2.9,0c0,0.3,0,0.5,0,0.8c-0.9-0.2-2-0.4-2.9,0c-0.8,0.4-1,1.6-0.4,2.3
				c0.9,0.8,2.2,0.8,3.1,1.7c1.1,0.9,0.8,2.8-0.3,3.5c-1.1,0.8-2.7,0.7-4,0.4c0-0.3,0-0.6,0.1-0.8c1,0.3,2.3,0.5,3.3-0.1
				c0.9-0.5,1.1-1.9,0.2-2.5c-0.9-0.7-2.3-0.8-3.1-1.7c-0.6-0.5-0.7-1.4-0.4-2.2C774.7,156.7,775.3,156.2,776,155.9z"/>
			<path class="st53" d="M804,156c0.3-0.1,0.6-0.1,0.8-0.2c0,0.8,0,1.6,0,2.4c0.7,0,1.3,0,2,0c0,0.2,0,0.4,0,0.7c-0.7,0-1.3,0-2,0
				c0,1.3,0,2.6,0,3.9c0,0.4,0,1,0.4,1.2c0.5,0.2,1,0.1,1.6,0c0,0.2,0,0.5,0,0.7c-0.7,0.1-1.5,0.2-2.2-0.1c-0.5-0.3-0.6-0.9-0.6-1.5
				c0-1.4,0-2.8,0-4.2c-0.5,0-1,0-1.5,0c0-0.2,0-0.4,0-0.7c0.5,0,1,0,1.5,0C804,157.4,804,156.7,804,156z"/>
			<path class="st53" d="M836.9,155.9c0.3,0,0.6,0,0.8,0c0,2.7,0,5.4,0,8.1c1.1,0,2.2,0,3.4,0c0,0.2,0,0.4,0,0.7c-1.4,0-2.8,0-4.2,0
				C836.9,161.7,836.9,158.8,836.9,155.9z"/>
			<path class="st53" d="M887.6,159.9c0.2-1.1,1.2-2,2.4-1.9c0,0.3,0,0.5,0,0.8c-0.7-0.1-1.5,0.2-1.8,0.9c-0.7,1.6-0.3,3.3-0.4,5
				c-0.3,0-0.5,0-0.8,0c0-1.9,0-3.9,0-5.8c-0.4,0-0.8-0.1-1.1-0.1c0-0.1,0-0.3,0-0.5c0.7-0.1,1.3-0.1,2-0.1
				C887.8,158.7,887.7,159.3,887.6,159.9z"/>
			<path class="st53" d="M900.9,158.3c0.9-0.4,1.9-0.6,2.9-0.3c0.6,0.2,1.1,0.6,1.3,1.2c0.3,0.8,0,1.8-0.6,2.4
				c-0.8,0.9-1.8,1.6-2.6,2.3c1.2,0,2.4,0,3.7,0c0,0.2,0,0.5,0,0.8c-1.6,0-3.2,0-4.8,0c0-0.2,0-0.4,0-0.7c1.1-1,2.2-1.8,3.2-2.9
				c0.6-0.7,0.6-2-0.3-2.4c-0.8-0.4-1.8-0.1-2.6,0.3C901,158.8,900.9,158.5,900.9,158.3z"/>
			<path class="st53" d="M912.5,158c1.3-0.4,3.1-0.1,3.8,1.1c0.7,1.3,0.7,3.1-0.3,4.3c-1,1.4-3.2,1.7-4.6,0.7
				c-1-0.7-1.3-2.1-1.2-3.2C910.4,159.6,911.3,158.4,912.5,158 M913.1,158.6c-2,0.4-2.5,3.2-1.3,4.7c0.8,1,2.4,1.1,3.3,0.2
				c1.1-0.9,1.2-2.6,0.6-3.8C915.2,158.8,914.1,158.3,913.1,158.6z"/>
			<path class="st53" d="M921.4,158.7c0.9-0.3,1.7-0.8,2.6-0.7c0,2.2,0,4.5,0,6.7c-0.3,0-0.6,0-0.9,0c0-2,0-3.9,0-5.9
				c-0.5,0.2-1.1,0.4-1.6,0.7C921.5,159.2,921.4,158.9,921.4,158.7z"/>
			<path class="st53" d="M784.8,159.1c0.8-1.1,2.6-1.3,3.7-0.5c0.8,0.6,0.9,1.6,0.9,2.6c-1.5,0-3,0-4.4,0c0,0.9,0.1,2,0.9,2.6
				c1,0.6,2.2,0.3,3.2-0.1c0,0.2,0,0.5,0.1,0.7c-1.1,0.4-2.3,0.5-3.4,0.2c-0.8-0.3-1.4-1-1.5-1.8C784,161.5,784,160.1,784.8,159.1
				 M785.5,159.4c-0.2,0.3-0.3,0.7-0.5,1.1c1.2,0,2.4,0,3.5,0c-0.1-0.4-0.1-0.7-0.3-1C787.6,158.5,786.1,158.5,785.5,159.4z"/>
			<path class="st53" d="M795.1,158.8c1-0.8,2.4-0.8,3.6-0.4c0,0.2-0.1,0.5-0.1,0.7c-0.9-0.3-2-0.5-2.8,0.1c-0.8,0.6-1,1.6-1,2.5
				c0,0.8,0.2,1.7,1,2.1c0.9,0.4,1.9,0.2,2.8-0.1c0,0.2,0,0.5,0.1,0.7c-1,0.4-2.2,0.5-3.3,0.1c-0.9-0.4-1.4-1.4-1.5-2.4
				C793.9,161,794.1,159.6,795.1,158.8z"/>
			<path class="st53" d="M813.6,158.1c0.8-0.2,1.7-0.1,2.4,0.4c0.7,0.5,1,1.3,1.1,2.1c0.1,1.1,0,2.3-0.8,3.1
				c-1.1,1.3-3.4,1.4-4.4,0.1c-0.6-0.9-0.7-2-0.6-3C811.5,159.6,812.4,158.4,813.6,158.1 M813.5,158.9c-1.4,0.7-1.5,2.6-1.1,3.9
				c0.3,1.1,1.7,1.6,2.7,1.1c0.8-0.4,1.1-1.3,1.2-2.1c0.1-0.8,0-1.7-0.5-2.4C815.3,158.7,814.2,158.6,813.5,158.9z"/>
			<path class="st53" d="M821.6,158.2c0.6-0.1,1.3-0.1,2-0.1c0,0.6-0.1,1.2-0.2,1.8c0.2-1.1,1.2-2,2.4-1.9c0,0.3,0,0.5,0,0.8
				c-0.7-0.1-1.5,0.2-1.8,0.9c-0.7,1.5-0.3,3.3-0.4,4.9c-0.3,0-0.5,0-0.8,0c0-1.9,0-3.9,0-5.8c-0.4,0-0.8-0.1-1.2-0.1
				C821.5,158.6,821.5,158.4,821.6,158.2z"/>
			<path class="st53" d="M845.8,159c0.9-1.1,2.7-1.3,3.7-0.4c0.7,0.6,0.9,1.6,0.8,2.5c-1.5,0-3,0-4.4,0c0,0.9,0,1.9,0.8,2.5
				c1,0.7,2.3,0.4,3.3,0c0,0.2,0.1,0.6,0.1,0.7c-1.1,0.4-2.3,0.5-3.4,0.2c-0.8-0.3-1.4-1.1-1.5-1.9C845,161.4,845,160,845.8,159
				 M846.6,159.3c-0.3,0.3-0.4,0.8-0.6,1.2c1.2,0,2.4,0,3.5,0c-0.1-0.4-0.1-0.7-0.3-1C848.7,158.5,847.3,158.5,846.6,159.3z"/>
			<path class="st53" d="M855.5,158.5c1-0.4,2.2-0.6,3.3-0.3c0.7,0.2,1.1,0.9,1.1,1.7c0,1.4,0,2.7,0,4.1c0.4,0,0.8,0.1,1.1,0.1
				c0,0.2,0,0.3,0,0.5c-0.7,0.1-1.3,0.1-2,0.1c0-0.5,0-0.9,0.1-1.4c-0.5,1.3-2.2,1.9-3.5,1.2c-0.9-0.6-0.8-2,0-2.6
				c0.9-0.8,2.2-0.9,3.4-0.9c0-0.7,0.1-1.7-0.7-2c-0.9-0.4-2-0.1-2.9,0.4C855.6,159,855.5,158.8,855.5,158.5 M856.3,162.3
				c-0.6,0.5-0.4,1.6,0.4,1.7c1.4,0.3,2.4-1.1,2.4-2.4C858.2,161.6,857.1,161.7,856.3,162.3z"/>
			<path class="st53" d="M876.8,159.1c0.8-1.1,2.6-1.3,3.7-0.5c0.8,0.6,0.9,1.6,0.9,2.6c-1.5,0-3,0-4.4,0c0,0.9,0.1,2,0.9,2.6
				c1,0.6,2.2,0.3,3.2-0.1c0,0.2,0,0.5,0.1,0.7c-1.1,0.4-2.3,0.5-3.4,0.2c-0.8-0.3-1.4-1-1.5-1.8C876,161.5,876,160.1,876.8,159.1
				 M877.6,159.3c-0.3,0.3-0.4,0.8-0.5,1.2c1.2,0,2.4,0,3.5,0c-0.1-0.4-0.1-0.7-0.3-1C879.7,158.5,878.2,158.5,877.6,159.3z"/>
		</g>
	</g>
</g>
</svg>
