<?xml version="1.0" encoding="utf-8"?>
<!-- Generator: Adobe Illustrator 19.1.1, SVG Export Plug-In . SVG Version: 6.00 Build 0) -->
<svg version="1.1" xmlns="http://www.w3.org/2000/svg" xmlns:xlink="http://www.w3.org/1999/xlink" x="0px" y="0px" width="34px" height="42px" viewBox="0 0 35.9 36" style="enable-background:new 0 0 35.9 36;" xml:space="preserve">
	<style type="text/css">
		.st0{fill:#fff;}
		.st1{fill:#fd7125;}
		.st2{fill:#f02358;}
		.st3{display:none;}
		.st4{display:inline;fill:#fff;}
		.st5{display:inline;}
		.st6{fill:#65c2b3;}
		.st7{fill:#6d39cd;}
		.st8{fill:#334d9f;}
		.st9{fill-rule:evenodd;clip-rule:evenodd;fill:#00bce4;}
		.st10{fill:none;}
	</style>
	<defs>
		<filter id="dropshadow" height="125%">
			<feGaussianBlur in="SourceAlpha" stdDeviation="1"/>
			<feOffset dx="0" dy="3" result="offsetblur"/>
			<feComponentTransfer>
				<feFuncA type="linear" slope="0.5"/>
			</feComponentTransfer>
			<feMerge>
				<feMergeNode/>
				<feMergeNode in="SourceGraphic"/>
			</feMerge>
		</filter>
	</defs>
	<g id="Layer_2">
		<g>
			<circle class="st0" cx="17.9" cy="18" r="17.5" filter="url(#dropshadow)"/>
			<polygon class="st1" points="17.9,9.3 20.8,15 27.1,15.9 22.5,20.4 23.6,26.7 17.9,23.7 12.3,26.7 13.4,20.4 8.8,15.9 15.1,15"/>
		</g>
	</g>
	<g id="_x31_00_icons">
		<circle class="st0" cx="18" cy="18" r="17.5"/>
		<path class="st2" d="M19.1,12.9c0-0.4-0.4-0.8-0.8-0.8H16c0-1.7-1.4-3.1-3.1-3.1c-1.7,0-3.1,1.4-3.1,3.1H7.4 c-0.4,0-0.8,0.4-0.8,0.8L6.2,26.2C6.2,26.6,6.5,27,7,27h11.7c0.4,0,0.8-0.4,0.8-0.8L19.1,12.9z M10.5,12.1c0-1.3,1.1-2.3,2.3-2.3 c1.3,0,2.3,1.1,2.3,2.3H10.5z"/>
		<g class="st3">
			<circle class="st4" cx="5.1" cy="-18.8" r="17.5"/>
			<g class="st5">
				<g>
					<path class="st6" d="M5.2-25.6C5.1-25.6,5.1-25.6,5.2-25.6c-0.1,0-0.1,0-0.2,0l-8.3,5.6c0,0-0.1,0.1-0.1,0.1v10.3 c0,0.1,0.1,0.2,0.2,0.2h16.6c0.1,0,0.2-0.1,0.2-0.2v-10.3c0-0.1,0-0.1-0.1-0.1L5.2-25.6z M9.6-14.7h-3v3H3.5v-3h-3v-3.2h3v-3 h3.2v3h3V-14.7z"/>
				</g>
				<g>
					<path class="st6" d="M15.4-21.2l-3.2-2.2v-2.3c0-0.1-0.1-0.2-0.2-0.2H9.4c-0.1,0-0.2,0.1-0.2,0.2v0.3l-4.1-2.7c0,0-0.1,0-0.1,0 c0,0-0.1,0-0.1,0l-10.3,6.9c0,0-0.1,0.1-0.1,0.1v1.3c0,0.1,0,0.1,0.1,0.1c0,0,0,0,0.1,0c0,0,0.1,0,0.1,0l10.2-6.8l10.2,6.8 c0,0,0.1,0,0.1,0c0,0,0.1,0,0.1,0c0.1,0,0.1-0.1,0.1-0.1V-21C15.5-21.1,15.4-21.1,15.4-21.2z"/>
				</g>
			</g>
		</g>
		<g class="st3">
			<circle class="st4" cx="48.1" cy="-21.7" r="17.5"/>
			<g class="st5">
				<path class="st7" d="M57.3-27.6h-1c-0.2,0-0.4,0.2-0.4,0.4v-2c0-0.8-0.7-1.5-1.5-1.5H41.8c-0.8,0-1.5,0.7-1.5,1.5v2 c0-0.2-0.2-0.4-0.4-0.4h-1c-0.2,0-0.4,0.2-0.4,0.4v3.3c0,0.2,0.2,0.4,0.4,0.4h1c0.2,0,0.4-0.2,0.4-0.4v8.7c0,0.4,0.2,0.8,0.5,1.1 v1.1c0,0.2,0.1,0.3,0.3,0.3h2.3c0.2,0,0.3-0.1,0.3-0.3v-0.7h8.6v0.7c0,0.2,0.1,0.3,0.3,0.3h2.3c0.2,0,0.3-0.1,0.3-0.3v-1.1 c0.3-0.3,0.5-0.7,0.5-1.1V-24c0,0.2,0.2,0.4,0.4,0.4h1c0.2,0,0.4-0.2,0.4-0.4v-3.3C57.7-27.5,57.6-27.6,57.3-27.6z M41.3-28.6 c0-0.4,0.3-0.7,0.7-0.7h12.4c0.4,0,0.7,0.3,0.7,0.7v6.7c0,0.9-0.7,1.6-1.5,1.6H42.8c-0.8,0-1.5-0.7-1.5-1.6V-28.6z M44.1-16.2 c0,0.1-0.1,0.2-0.2,0.2h-2.9c-0.1,0-0.2-0.1-0.2-0.2V-17c0-0.1,0.1-0.2,0.2-0.2h2.9c0.1,0,0.2,0.1,0.2,0.2V-16.2z M55.5-16.2 c0,0.1-0.1,0.2-0.2,0.2h-2.9c-0.1,0-0.2-0.1-0.2-0.2V-17c0-0.1,0.1-0.2,0.2-0.2h2.9c0.1,0,0.2,0.1,0.2,0.2V-16.2z"/>
			</g>
		</g>
		<g class="st3">
			<circle class="st4" cx="60.6" cy="29.9" r="17.5"/>
			<g class="st5">
				<g>
					<path class="st8" d="M59.7,33.6v-3h2.1v3H59.7z M71.3,30.6l-1.9,1.9h-7.1v1.6h-3.1v-1.6h-7.9L50,31.3v7.2l0.5,0.5h20.3l0.5-0.5 V30.6z M49.5,30v-5.5l0.6-0.6h6.5c0,0,0-0.1,0-0.1v-2.1c0-0.4,0.3-0.7,0.7-0.7h6.4c0.4,0,0.7,0.3,0.7,0.7v2.1c0,0,0,0.1,0,0.1 h6.5l0.6,0.6v4.9l-2.6,2.3h-6.9v-1.6h-3.2v1.6h-7.7L49.5,30z M58,23.7c0,0,0,0.1,0,0.1h5.3c0,0,0-0.1,0-0.1v-1.2 c0-0.1-0.1-0.2-0.2-0.2h-4.9c-0.1,0-0.2,0.1-0.2,0.2V23.7z"/>
				</g>
			</g>
		</g>
		<g class="st3">
			<circle class="st4" cx="-28.4" cy="23.8" r="17.5"/>
			<g class="st5">
				<path class="st9" d="M-28.7,16.2v12.9c-0.4-0.3-0.9-0.5-1.4-0.7c-0.8-0.3-1.8-0.5-2.9-0.5h-5.3V16.1v-1.3h5.3 c1,0,1.9,0.2,2.7,0.4C-29.6,15.5-29.1,15.8-28.7,16.2L-28.7,16.2z M-17,17.9v11.4H-23c-1.3,0-2.5,0.2-3.4,0.5 c-0.8,0.3-1.4,0.6-2,1.1c-0.5-0.4-1.2-0.8-2-1.1c-1-0.3-2.2-0.5-3.4-0.5h-5.9V17.9v-1.9h-1.2v1.9v12v0.6h0.6h6.6 c1.1,0,2.2,0.2,3,0.5c0.8,0.3,1.5,0.7,1.9,1.2l0.5,0.6l0.5-0.6c0.4-0.5,1-0.9,1.9-1.2c0.9-0.3,1.9-0.5,3-0.5h6.6h0.6V30v-12H-17z M-18.4,16.1V28h-5.3c-1.1,0-2.1,0.2-2.9,0.5c-0.5,0.2-1,0.4-1.4,0.7V16.2c0.3-0.4,0.9-0.7,1.6-1c0.8-0.3,1.7-0.4,2.7-0.4h5.3 V16.1z"/>
			</g>
		</g>
		<path class="st10" d="M21.8,18.1c0.1,0,1.3,0,3,0c1.7,0,2.9,0,3,0l0.7-0.8h-7.4L21.8,18.1z"/>
		<path class="st10" d="M21.8,18.1c0.1,0,1.3,0,3,0c0,0,0,0,0,0v-0.8h-3.7L21.8,18.1z"/>
		<path class="st2" d="M28.7,17h-1l1.7-1.9L29,14.7L27,17h-2.2h-0.1h-4c-0.1,0-0.2,0-0.2,0.1c-0.1,0.1-0.1,0.2,0,0.3l3.6,4 c0.2,0.2,0.3,0.5,0.3,0.8v3.7l-1.6,0.5c0,0-0.1,0.1-0.1,0.1c0,0,0,0.1,0,0.1c0,0,0.1,0.1,0.1,0.1h1.7h0.1h1.7c0.1,0,0.1,0,0.1-0.1 c0,0,0-0.1,0-0.1c0,0,0-0.1-0.1-0.1L25,25.9v-3.7c0-0.3,0.1-0.6,0.3-0.8l3.6-4c0.1-0.1,0.1-0.2,0-0.3C28.9,17,28.8,17,28.7,17z M27.7,18.1c-0.1,0-1.3,0-3,0c-1.7,0-2.9,0-3,0l-0.7-0.8h3.6h0.1h3.6L27.7,18.1z"/>
	</g>
</svg>
