<?xml version="1.0" encoding="utf-8"?>
<!-- Generator: Adobe Illustrator 20.0.0, SVG Export Plug-In . SVG Version: 6.00 Build 0) -->
<svg version="1.1" id="Layer_1" xmlns="http://www.w3.org/2000/svg" xmlns:xlink="http://www.w3.org/1999/xlink" x="0px" y="0px" viewBox="0 0 135.5 136.5" style="enable-background:new 0 0 135.5 136.5;" xml:space="preserve">
	<style type="text/css">
		.st0{fill:#e8e8e8;}
		.st1{fill:#5a5a5a;}
		.st2{fill:url(#SVGID_1_);}
		.st3{fill:#fff;}
	</style>
	<g id="Layer_1_1_">
		<polygon class="st0" points="89.4,3.4 89.4,40.9 132.1,40.9"/>
	</g>
	<g id="Layer_2">
		<path class="st1" d="M135.5,136.5H18.8V0H89l46.5,40.4V136.5z M25.6,129.7h103V43.5L86.5,6.8H25.6V129.7z"/>
	</g>
	<radialGradient id="SVGID_1_" cx="37.503" cy="91.6782" r="111.6204" gradientTransform="matrix(1 0 0 -1 0 138)" gradientUnits="userSpaceOnUse">
		<stop offset="0" style="stop-color:#ee2526"/>
		<stop offset="1" style="stop-color:#7a1316"/>
	</radialGradient>
	<rect y="32.9" class="st2" width="88.4" height="86.7"/>
	<g>
		<path class="st3" d="M77.7,86.7c-0.3-0.6-0.7-0.3-1.1-0.2c-1.6,0.3-3.2,0.4-4.9,0.2c-3.1-0.4-5.9-1.6-8.8-2.7 c-0.3-0.2-0.7-0.4-1.1-0.4c0.2-0.1,0.4,0,0.6-0.2c2.4-0.4,4.8-0.3,7.2-0.3s4.6,0.5,6.8,1.5c0.4,0.2,0.8,0.7,1.1,0.2 c0.3-0.4,0.2-0.9-0.1-1.4c-0.4-0.6-0.9-1.1-1.5-1.4c-1-0.5-2-0.8-3.1-1c-4.4-0.9-8.8-0.5-13.2,0.2c-1.6,0.3-2.9,0-4.1-1 C50.2,75.9,46,71,43.8,64.5c-0.2-0.7-0.3-1.3-0.1-2.1c0.5-2.6,1-5.2,0.9-7.9c0-0.4,0.2-0.9-0.4-1.2c-0.5,1.7-0.7,3.4-1.2,5 l-0.2,0.6c-0.1,0.1-0.1,0.2-0.1,0.3v0.1c-0.1-0.3-0.2-0.5-0.3-0.7c-1.4-4.1-1.6-8.4-1.5-12.7c0-0.6,0.1-1.1,0.4-1.7 c0.5-1.2,1.1-1.3,1.9-0.3c0.7,0.9,1.2,1.9,1.4,3c0.2,0.9,0.4,1.7,0.7,2.9c0.6-1.8,0.5-3.3,0.4-4.9c0-0.5-0.2-0.9-0.5-1.3 c-1-1.2-3.4-1.6-5.3-0.9c-1.6,0.6-2.1,1.5-2.1,3.4C37.6,52.2,39,58,40.3,63.9c0.2,1,0.2,1.9-0.2,2.9c-1.5,3.2-2.9,6.4-4.5,9.6 C31.8,84.2,28,92,22.7,99c-1.7,2.3-3.5,4.4-6.2,5.7c-0.3,0.2-0.7,0.5-1.1,0.1c-0.4-0.4,0-0.8,0.1-1.1c1.4-3.1,3.3-5.7,5.9-7.9 c1.2-1,2.5-2,3.7-3c0.2-0.2,0.5-0.3,0.3-0.7c-0.2-0.3-0.4-0.2-0.7-0.1c-0.2,0.1-0.4,0.1-0.6,0.2c-4.6,2.2-8.3,5.5-11,9.8 c-0.9,1.5-0.5,2.7,1,3.6c1.9,1.2,3.9,1,5.8-0.1c1.6-1,3-2.4,4.3-3.7c3.1-3,4.9-6.9,7-10.5c0.5-0.9,1.2-1.4,2.1-1.8 c7.4-2.6,15.1-3.7,22.8-5.2c0.4-0.1,0.7,0,1,0.2c2.3,1.4,4.9,2.2,7.4,3.1c3.2,1.1,6.5,2.1,9.9,2.2c1.4,0,2.6-0.3,3.5-1.4 C78,87.8,78,87.2,77.7,86.7z M47.4,83.5c-4.7,1.2-9.3,2.9-14,4.4c-0.3-0.3-0.2-0.5-0.1-0.8c3.1-5.7,6.1-11.5,8.5-17.8 c2.9,5.2,6.5,9.4,11.1,13C51,82.7,49.2,83,47.4,83.5z"/>
	</g>
	<rect x="78.9" y="88.4" class="st3" width="3" height="3"/>
</svg>
