<?xml version="1.0" encoding="utf-8"?>
<!-- Generator: Adobe Illustrator 19.1.1, SVG Export Plug-In . SVG Version: 6.00 Build 0) -->
<svg version="1.1" xmlns="http://www.w3.org/2000/svg" xmlns:xlink="http://www.w3.org/1999/xlink" x="0px" y="0px" width="34px" height="42px" viewBox="0 0 35.9 36" style="enable-background:new 0 0 35.9 36;" xml:space="preserve">
	<style type="text/css">
		.st0{display:none;}
		.st1{display:inline;fill:#fff;}
		.st2{display:inline;fill:#fd7125;}
		.st3{display:inline;}
		.st4{fill:#f02358;}
		.st5{fill:#65c2b3;}
		.st6{fill:#6d39cd;}
		.st7{fill:#334d9f;}
		.st8{fill:#fff;}
		.st9{fill-rule:evenodd;clip-rule:evenodd;fill:#00bce4;}
	</style>
	<defs>
		<filter id="dropshadow" height="125%">
			<feGaussianBlur in="SourceAlpha" stdDeviation="1"/>
			<feOffset dx="0" dy="3" result="offsetblur"/>
			<feComponentTransfer>
				<feFuncA type="linear" slope="0.5"/>
			</feComponentTransfer>
			<feMerge>
				<feMergeNode/>
				<feMergeNode in="SourceGraphic"/>
			</feMerge>
		</filter>
	</defs>
	<g id="Layer_2">
		<g class="st0">
			<circle class="st1" cx="17.9" cy="18" r="17.5"/>
			<polygon class="st2" points="17.9,9.3 20.8,15 27.1,15.9 22.5,20.4 23.6,26.7 17.9,23.7 12.3,26.7 13.4,20.4 8.8,15.9 15.1,15"/>
		</g>
	</g>
	<g id="_x31_00_icons">
		<g class="st0">
			<circle class="st1" cx="18" cy="18" r="17.5"/>
			<g class="st3">
				<path class="st4" d="M19.1,12.9c0-0.4-0.4-0.8-0.8-0.8H16c0-1.7-1.4-3.1-3.1-3.1c-1.7,0-3.1,1.4-3.1,3.1H7.4 c-0.4,0-0.8,0.4-0.8,0.8L6.2,26.2C6.2,26.6,6.5,27,7,27h11.7c0.4,0,0.8-0.4,0.8-0.8L19.1,12.9z M10.5,12.1c0-1.3,1.1-2.3,2.3-2.3 c1.3,0,2.3,1.1,2.3,2.3H10.5z"/>
				<path class="st4" d="M28.8,17H28l1.7-1.9l-0.4-0.4L27.3,17h-6.7c-0.1,0-0.2,0-0.2,0.1c-0.1,0.1-0.1,0.2,0,0.3l3.6,4 c0.2,0.2,0.3,0.5,0.3,0.8v3.7l-1.6,0.5c0,0-0.1,0.1-0.1,0.1c0,0,0,0.1,0,0.1c0,0,0.1,0.1,0.1,0.1h3.5c0.1,0,0.1,0,0.2-0.1 c0-0.1,0-0.2-0.1-0.2l-1.6-0.5v-3.7c0-0.3,0.1-0.6,0.3-0.8l3-3.3l0.7-0.7c0.1-0.1,0.1-0.2,0-0.3C28.9,17,28.8,17,28.8,17z M27.7,18.1c-0.1,0-1.3,0-3,0c-1.7,0-2.9,0-3,0L21,17.4h7.4L27.7,18.1z"/>
			</g>
		</g>
		<g class="st0">
			<circle class="st1" cx="18" cy="18" r="17.5"/>
			<g class="st3">
				<g>
					<path class="st5" d="M18,11.1C18,11.1,18,11.1,18,11.1c-0.1,0-0.1,0-0.2,0l-8.3,5.6c0,0-0.1,0.1-0.1,0.1v10.3 c0,0.1,0.1,0.2,0.2,0.2h16.6c0.1,0,0.2-0.1,0.2-0.2V16.8c0-0.1,0-0.1-0.1-0.1L18,11.1z M22.5,22.1h-3v3h-3.2v-3h-3v-3.2h3v-3 h3.2v3h3V22.1z"/>
				</g>
				<g>
					<path class="st5" d="M28.3,15.6l-3.2-2.2v-2.3c0-0.1-0.1-0.2-0.2-0.2h-2.6c-0.1,0-0.2,0.1-0.2,0.2v0.3L18,8.7c0,0-0.1,0-0.1,0 c0,0-0.1,0-0.1,0L7.6,15.6c0,0-0.1,0.1-0.1,0.1V17c0,0.1,0,0.1,0.1,0.1c0,0,0,0,0.1,0c0,0,0.1,0,0.1,0L18,10.3l10.2,6.8 c0,0,0.1,0,0.1,0c0,0,0.1,0,0.1,0c0.1,0,0.1-0.1,0.1-0.1v-1.3C28.4,15.7,28.3,15.6,28.3,15.6z"/>
				</g>
			</g>
		</g>
		<g class="st0">
			<circle class="st1" cx="18" cy="18" r="17.5"/>
			<g class="st3">
				<path class="st6" d="M27.2,12.1h-1c-0.2,0-0.4,0.2-0.4,0.4v-2c0-0.8-0.7-1.5-1.5-1.5H11.7c-0.8,0-1.5,0.7-1.5,1.5v2 c0-0.2-0.2-0.4-0.4-0.4h-1c-0.2,0-0.4,0.2-0.4,0.4v3.3c0,0.2,0.2,0.4,0.4,0.4h1c0.2,0,0.4-0.2,0.4-0.4v8.7c0,0.4,0.2,0.8,0.5,1.1 v1.1c0,0.2,0.1,0.3,0.3,0.3h2.3c0.2,0,0.3-0.1,0.3-0.3V26h8.6v0.7c0,0.2,0.1,0.3,0.3,0.3h2.3c0.2,0,0.3-0.1,0.3-0.3v-1.1 c0.3-0.3,0.5-0.7,0.5-1.1v-8.7c0,0.2,0.2,0.4,0.4,0.4h1c0.2,0,0.4-0.2,0.4-0.4v-3.3C27.6,12.2,27.4,12.1,27.2,12.1z M11.1,11.2 c0-0.4,0.3-0.7,0.7-0.7h12.4c0.4,0,0.7,0.3,0.7,0.7v6.7c0,0.9-0.7,1.6-1.5,1.6H12.6c-0.8,0-1.5-0.7-1.5-1.6V11.2z M13.9,23.5 c0,0.1-0.1,0.2-0.2,0.2h-2.9c-0.1,0-0.2-0.1-0.2-0.2v-0.8c0-0.1,0.1-0.2,0.2-0.2h2.9c0.1,0,0.2,0.1,0.2,0.2V23.5z M25.3,23.5 c0,0.1-0.1,0.2-0.2,0.2h-2.9c-0.1,0-0.2-0.1-0.2-0.2v-0.8c0-0.1,0.1-0.2,0.2-0.2h2.9c0.1,0,0.2,0.1,0.2,0.2V23.5z"/>
			</g>
		</g>
		<g class="st0">
			<circle class="st1" cx="18" cy="18" r="17.5"/>
			<g class="st3">
				<g>
					<path class="st7" d="M17,21.7v-3h2.1v3H17z M28.6,18.7l-1.9,1.9h-7.1v1.6h-3.1v-1.6H8.6l-1.3-1.3v7.2L7.8,27h20.3l0.5-0.5V18.7z M6.9,18.1v-5.5l0.6-0.6H14c0,0,0-0.1,0-0.1V9.7C14,9.3,14.4,9,14.8,9h6.4c0.4,0,0.7,0.3,0.7,0.7v2.1c0,0,0,0.1,0,0.1h6.5 l0.6,0.6v4.9l-2.6,2.3h-6.9v-1.6h-3.2v1.6H8.8L6.9,18.1z M15.3,11.8c0,0,0,0.1,0,0.1h5.3c0,0,0-0.1,0-0.1v-1.2 c0-0.1-0.1-0.2-0.2-0.2h-4.9c-0.1,0-0.2,0.1-0.2,0.2V11.8z"/>
				</g>
			</g>
		</g>
		<g>
			<circle class="st8" cx="18" cy="18" r="17.5" filter="url(#dropshadow)"/>
			<g>
				<path class="st9" d="M17.6,10.4v12.9c-0.4-0.3-0.9-0.5-1.4-0.7c-0.8-0.3-1.8-0.5-2.9-0.5H8V10.3V9h5.3c1,0,1.9,0.2,2.7,0.4 C16.7,9.7,17.3,10,17.6,10.4L17.6,10.4z M29.3,12.1v11.4h-5.9c-1.3,0-2.5,0.2-3.4,0.5c-0.8,0.3-1.4,0.6-2,1.1 c-0.5-0.4-1.2-0.8-2-1.1c-1-0.3-2.2-0.5-3.4-0.5H6.6V12.1v-1.9H5.4v1.9v12v0.6H6h6.6c1.1,0,2.2,0.2,3,0.5 c0.8,0.3,1.5,0.7,1.9,1.2L18,27l0.5-0.6c0.4-0.5,1-0.9,1.9-1.2c0.9-0.3,1.9-0.5,3-0.5h6.6h0.6v-0.6v-12H29.3z M27.9,10.3v11.9 h-5.3c-1.1,0-2.1,0.2-2.9,0.5c-0.5,0.2-1,0.4-1.4,0.7V10.4c0.3-0.4,0.9-0.7,1.6-1C20.7,9.2,21.6,9,22.6,9h5.3V10.3z"/>
			</g>
		</g>
	</g>
</svg>
