<?xml version="1.0" encoding="utf-8"?>
<!-- Generator: Adobe Illustrator 19.1.1, SVG Export Plug-In . SVG Version: 6.00 Build 0) -->
<svg version="1.1" xmlns="http://www.w3.org/2000/svg" xmlns:xlink="http://www.w3.org/1999/xlink" x="0px" y="0px" width="34px" height="42px" viewBox="0 0 35.9 36" style="enable-background:new 0 0 35.9 36;" xml:space="preserve">
	<style type="text/css">
		.st0{display:none;}
		.st1{display:inline;fill:#fff;}
		.st2{display:inline;fill:#fd7125;}
		.st3{display:inline;}
		.st4{fill:#f02358;}
		.st5{fill:#fff;}
		.st6{fill:#65c2b3;}
	</style>
	<defs>
		<filter id="dropshadow" height="125%">
			<feGaussianBlur in="SourceAlpha" stdDeviation="1"/>
			<feOffset dx="0" dy="3" result="offsetblur"/>
			<feComponentTransfer>
				<feFuncA type="linear" slope="0.5"/>
			</feComponentTransfer>
			<feMerge>
				<feMergeNode/>
				<feMergeNode in="SourceGraphic"/>
			</feMerge>
		</filter>
	</defs>
	<g id="Layer_2">
		<g class="st0">
			<circle class="st1" cx="17.9" cy="18" r="17.5"/>
			<polygon class="st2" points="17.9,9.3 20.8,15 27.1,15.9 22.5,20.4 23.6,26.7 17.9,23.7 12.3,26.7 13.4,20.4 8.8,15.9 15.1,15"/>
		</g>
	</g>
	<g id="_x31_00_icons">
		<g class="st0">
			<circle class="st1" cx="18" cy="18" r="17.5"/>
			<g class="st3">
				<path class="st4" d="M19.1,12.9c0-0.4-0.4-0.8-0.8-0.8H16c0-1.7-1.4-3.1-3.1-3.1c-1.7,0-3.1,1.4-3.1,3.1H7.4 c-0.4,0-0.8,0.4-0.8,0.8L6.2,26.2C6.2,26.6,6.5,27,7,27h11.7c0.4,0,0.8-0.4,0.8-0.8L19.1,12.9z M10.5,12.1c0-1.3,1.1-2.3,2.3-2.3 c1.3,0,2.3,1.1,2.3,2.3H10.5z"/>
				<path class="st4" d="M28.8,17H28l1.7-1.9l-0.4-0.4L27.3,17h-6.7c-0.1,0-0.2,0-0.2,0.1c-0.1,0.1-0.1,0.2,0,0.3l3.6,4 c0.2,0.2,0.3,0.5,0.3,0.8v3.7l-1.6,0.5c0,0-0.1,0.1-0.1,0.1c0,0,0,0.1,0,0.1c0,0,0.1,0.1,0.1,0.1h3.5c0.1,0,0.1,0,0.2-0.1 c0-0.1,0-0.2-0.1-0.2l-1.6-0.5v-3.7c0-0.3,0.1-0.6,0.3-0.8l3-3.3l0.7-0.7c0.1-0.1,0.1-0.2,0-0.3C28.9,17,28.8,17,28.8,17z M27.7,18.1c-0.1,0-1.3,0-3,0c-1.7,0-2.9,0-3,0L21,17.4h7.4L27.7,18.1z"/>
			</g>
		</g>
		<g>
			<circle class="st5" cx="18" cy="18" r="17.5" filter="url(#dropshadow)"/>
			<g>
				<g>
					<path class="st6" d="M18,11.1C18,11.1,18,11.1,18,11.1c-0.1,0-0.1,0-0.2,0l-8.3,5.6c0,0-0.1,0.1-0.1,0.1v10.3 c0,0.1,0.1,0.2,0.2,0.2h16.6c0.1,0,0.2-0.1,0.2-0.2V16.8c0-0.1,0-0.1-0.1-0.1L18,11.1z M22.5,22.1h-3v3h-3.2v-3h-3v-3.2h3v-3 h3.2v3h3V22.1z"/>
				</g>
				<g>
					<path class="st6" d="M28.3,15.6l-3.2-2.2v-2.3c0-0.1-0.1-0.2-0.2-0.2h-2.6c-0.1,0-0.2,0.1-0.2,0.2v0.3L18,8.7c0,0-0.1,0-0.1,0 c0,0-0.1,0-0.1,0L7.6,15.6c0,0-0.1,0.1-0.1,0.1V17c0,0.1,0,0.1,0.1,0.1c0,0,0,0,0.1,0c0,0,0.1,0,0.1,0L18,10.3l10.2,6.8 c0,0,0.1,0,0.1,0c0,0,0.1,0,0.1,0c0.1,0,0.1-0.1,0.1-0.1v-1.3C28.4,15.7,28.3,15.6,28.3,15.6z"/>
				</g>
			</g>
		</g>
	</g>
</svg>
