<?xml version="1.0" encoding="utf-8"?>
<!-- Generator: Adobe Illustrator 19.1.1, SVG Export Plug-In . SVG Version: 6.00 Build 0) -->
<svg version="1.1" xmlns="http://www.w3.org/2000/svg" xmlns:xlink="http://www.w3.org/1999/xlink" x="0px" y="0px" width="34px" height="42px" viewBox="0 0 35.9 36" style="enable-background:new 0 0 35.9 36;" xml:space="preserve">
	<style type="text/css">
		.st0{fill:#fff;}
		.st1{fill:#ad5a00;}
	</style>
	<defs>
		<filter id="dropshadow" height="125%">
			<feGaussianBlur in="SourceAlpha" stdDeviation="1"/>
			<feOffset dx="0" dy="3" result="offsetblur"/>
			<feComponentTransfer>
				<feFuncA type="linear" slope="0.5"/>
			</feComponentTransfer>
			<feMerge>
				<feMergeNode/>
				<feMergeNode in="SourceGraphic"/>
			</feMerge>
		</filter>
	</defs>
	<g id="Layer_2"></g>
	<g id="_x31_00_icons">
		<g>
			<circle class="st0" cx="18" cy="18" r="17.5" filter="url(#dropshadow)"/>
		</g>
		<g>
			<g>
				<path class="st1" d="M27.8,13.2h-1.7l-8.3-6.1l0,0l0,0l0,0l0,0l-8.3,6.1H7.8v2h20V13.2z"/>
			</g>
			<polygon class="st1" points="28.7,27.2 6.9,27.2 7.9,25.2 27.6,25.2"/>
			<g>
				<polygon class="st1" points="13.4,16.2 12.9,16.2 11.7,16.2 10.4,16.2 9.9,16.2 10.4,16.7 10.4,23.8 9.9,24.3 10.4,24.3 11.7,24.3 12.9,24.3 13.4,24.3 12.9,23.8 12.9,16.7"/>
				<polygon class="st1" points="17.5,16.2 17,16.2 15.7,16.2 14.5,16.2 14,16.2 14.5,16.7 14.5,23.8 14,24.3 14.5,24.3 15.7,24.3 17,24.3 17.5,24.3 17,23.8 17,16.7"/>
				<polygon class="st1" points="21.6,16.2 21.1,16.2 19.8,16.2 18.6,16.2 18.1,16.2 18.5,16.7 18.6,16.7 18.6,23.8 18.5,23.8 18.1,24.3 18.6,24.3 19.8,24.3 21.1,24.3 21.6,24.3 21.1,23.9 21.1,16.7"/>
				<polygon class="st1" points="25.2,23.8 25.2,16.7 25.2,16.7 25.7,16.2 25.2,16.2 23.9,16.2 22.7,16.2 22.2,16.2 22.7,16.7 22.7,23.9 22.2,24.3 22.7,24.3 23.9,24.3 25.2,24.3 25.7,24.3 25.2,23.8"/>
			</g>
		</g>
	</g>
	<g id="Layer_3"></g>
</svg>
